<svg width="118" height="117" fill="none" xmlns="http://www.w3.org/2000/svg"><g filter="url(#b)" clip-path="url(#a)"><path d="m23.62 26.87 31-17.97 22.75 6.25 16.75 11.72 7.75 11.53 3.75 25.5-8 15.75-10.29 14.18-4.52 4.74-19.94 5.58-19.75-2.75-17.5-12.25L12.1 68.62V43.65l11.52-16.78Z" fill="url(#c)"/><path d="M99.63 44.21c.38.56-.74 21.4-1.35 31.76l-8.93 15.32-34.66 11.8-35.05-31.88-.55-35.62L47.27 13.8l33.84 4.55c6.01 8.39 18.14 25.3 18.52 25.85Z" stroke="url(#d)" stroke-width="1.94"/><path d="M72.23 86.3c-.41.27-16.76-1.8-24.88-2.87l-12.49-7.75-11.23-27.26L46.5 23.39l27.79 1.65 18.65 22.88-1.6 25.68-19.1 12.7Z" stroke="url(#e)" stroke-width="1.94"/><path d="M40.77 68.46c-.26-.23-2.13-11.74-3.03-17.47l2.76-10.03 16.27-13.08 21.57 10.51 4.45 19.2-11.8 17.25-17.77 4.06c-4.04-3.38-12.2-10.2-12.45-10.44Z" stroke="url(#f)" stroke-width="1.46"/><path d="M47.92 48.58c.05-.2 5.38-4 8.04-5.89l5.74-1.11 10.65 4.92.1 13.5-8.57 7.03-11.63-1.65-6.48-7.93 2.15-8.87Z" stroke="url(#g)" stroke-width=".97"/><path d="M103.07 40 105 69.17 89.41 93.94 62.25 104.8l-28.37-7.18-18.72-22.47-1.94-29.2 15.6-24.75 27.16-10.87 28.36 7.18L103.07 40Z" stroke="url(#h)" stroke-width="6.8"/><path d="m24.23 88.2-6.7-6.84 2.64-3.84 7.75-7.08 9.42 2.12 3.09 18.27-16.2-2.64Z" fill="url(#i)" style="mix-blend-mode:multiply"/><path transform="rotate(-70.26 28.67 91.44)" fill="url(#j)" style="mix-blend-mode:multiply" d="M28.67 91.44h5.76v5.8h-5.76z"/><path transform="rotate(-14.15 9.93 65.62)" fill="url(#k)" style="mix-blend-mode:multiply" d="M9.93 65.62h4.64v4.26H9.93z"/><path transform="rotate(-59.16 31.7 98.65)" fill="url(#l)" style="mix-blend-mode:multiply" d="M31.71 98.65h2.5v2.22h-2.5z"/><path d="m36.35 96.56 4.7-1.43 4.73 1.35-1.47 4.07-2.9 1.85-5.23-1.46.17-4.38Z" fill="url(#m)" style="mix-blend-mode:multiply"/><path d="m22.99 79.9-6.12-8.58 2.15-3.13 3.76-3.16 7.68 6.96L23 79.91Z" fill="url(#n)" style="mix-blend-mode:multiply"/><path d="m76.6 19.4 9.53.87.48 4.63-1.32 10.41-8.55 4.5-14.18-11.93L76.6 19.4Z" fill="url(#o)" style="mix-blend-mode:soft-light"/><path transform="rotate(69.39 85.12 20.91)" fill="url(#p)" style="mix-blend-mode:soft-light" d="M85.12 20.91h5.76v5.8h-5.76z"/><path transform="rotate(125.5 99.48 35.8)" fill="url(#q)" style="mix-blend-mode:soft-light" d="M99.48 35.8h4.64v4.26h-4.64z"/><path transform="rotate(80.49 100.23 36.45)" fill="url(#r)" style="mix-blend-mode:soft-light" d="M100.23 36.45h2.5v2.22h-2.5z"/><path d="m61.38 11.45-2.66 4.14-4.47 2.03-1.52-4.05 1-3.28L58.68 8l2.7 3.44Z" fill="url(#s)" style="mix-blend-mode:soft-light"/><path d="m87.49 27.04 10.22 2.57.4 3.79-.83 4.84-10.36-.33.57-10.87Z" fill="url(#t)" style="mix-blend-mode:soft-light"/><path d="M34.37 100.99c-20-20.12-19.75-25.59-21.34-34.65l7.59 9.06 4.5 9.5 3.27 4.27 3.02.47L42.64 101l11.98 1.81 9.5-.26 10.75-4.39-13.75 8.25L34.37 101Z" fill="#591587" fill-opacity=".2" style="mix-blend-mode:multiply"/><path d="M104.75 39.62c2.45 11.68 2.12 27.75 2.52 28.85l-3.9-8.35 1.38-14.25-3.63-3.12 1.14-2.13-8.64-11.22-9.12-10.78h-4.25l-1.38-2.47-18.27-7.8 24.9 7.8 5.09 6.92 14.16 16.55Z" fill="#fff" style="mix-blend-mode:soft-light"/></g><defs><linearGradient id="d" x1="53.56" y1="127.66" x2="50.7" y2="-44.82" gradientUnits="userSpaceOnUse"><stop stop-color="#00057B"/><stop offset=".28" stop-opacity=".01"/><stop offset=".4" stop-color="#00023E"/><stop offset=".52" stop-opacity="0"/><stop offset=".76" stop-color="#000239"/></linearGradient><linearGradient id="e" x1="4.38" y1="46.12" x2="137.06" y2="33.85" gradientUnits="userSpaceOnUse"><stop stop-color="#00057B"/><stop offset=".28" stop-opacity=".01"/><stop offset=".4" stop-color="#00023E"/><stop offset=".52" stop-opacity="0"/><stop offset=".76" stop-color="#000239"/></linearGradient><linearGradient id="f" x1="54.47" y1="14.34" x2="89.37" y2="101.99" gradientUnits="userSpaceOnUse"><stop stop-color="#00057B"/><stop offset=".28" stop-opacity=".01"/><stop offset=".4" stop-color="#00023E"/><stop offset=".52" stop-opacity="0"/><stop offset=".76" stop-color="#000239"/></linearGradient><linearGradient id="g" x1="78.6" y1="41.97" x2="43.16" y2="81.42" gradientUnits="userSpaceOnUse"><stop stop-color="#00057B"/><stop offset=".28" stop-opacity=".01"/><stop offset=".4" stop-color="#00023E"/><stop offset=".52" stop-opacity="0"/><stop offset=".76" stop-color="#000239"/></linearGradient><linearGradient id="h" x1="108.47" y1="70.06" x2="9.75" y2="45.08" gradientUnits="userSpaceOnUse"><stop stop-color="#ECA9E5"/><stop offset=".5" stop-color="#CAEFF4"/><stop offset="1" stop-color="#D581CC"/></linearGradient><linearGradient id="i" x1="18.68" y1="88.62" x2="45.01" y2="84.73" gradientUnits="userSpaceOnUse"><stop stop-color="#B1EAEE"/><stop offset="1" stop-color="#79C4C9" stop-opacity="0"/></linearGradient><linearGradient id="j" x1="30.65" y1="91.22" x2="29.71" y2="98.35" gradientUnits="userSpaceOnUse"><stop stop-color="#B1EAEE"/><stop offset="1" stop-color="#79C4C9" stop-opacity="0"/></linearGradient><linearGradient id="k" x1="11.53" y1="65.45" x2="10.89" y2="70.7" gradientUnits="userSpaceOnUse"><stop stop-color="#B1EAEE"/><stop offset="1" stop-color="#79C4C9" stop-opacity="0"/></linearGradient><linearGradient id="l" x1="32.57" y1="98.56" x2="32.25" y2="101.31" gradientUnits="userSpaceOnUse"><stop stop-color="#B1EAEE"/><stop offset="1" stop-color="#79C4C9" stop-opacity="0"/></linearGradient><linearGradient id="m" x1="39.45" y1="94.86" x2="38.63" y2="103.87" gradientUnits="userSpaceOnUse"><stop stop-color="#B1EAEE"/><stop offset="1" stop-color="#79C4C9" stop-opacity="0"/></linearGradient><linearGradient id="n" x1="19.96" y1="77.63" x2="30.43" y2="69.1" gradientUnits="userSpaceOnUse"><stop stop-color="#B1EAEE"/><stop offset="1" stop-color="#79C4C9" stop-opacity="0"/></linearGradient><linearGradient id="o" x1="80.56" y1="15.48" x2="63.02" y2="35.49" gradientUnits="userSpaceOnUse"><stop stop-color="#B1EAEE"/><stop offset="1" stop-color="#79C4C9" stop-opacity="0"/></linearGradient><linearGradient id="p" x1="87.1" y1="20.69" x2="86.16" y2="27.81" gradientUnits="userSpaceOnUse"><stop stop-color="#B1EAEE"/><stop offset="1" stop-color="#79C4C9" stop-opacity="0"/></linearGradient><linearGradient id="q" x1="101.08" y1="35.64" x2="100.44" y2="40.89" gradientUnits="userSpaceOnUse"><stop stop-color="#B1EAEE"/><stop offset="1" stop-color="#79C4C9" stop-opacity="0"/></linearGradient><linearGradient id="r" x1="101.09" y1="36.37" x2="100.77" y2="39.11" gradientUnits="userSpaceOnUse"><stop stop-color="#B1EAEE"/><stop offset="1" stop-color="#79C4C9" stop-opacity="0"/></linearGradient><linearGradient id="s" x1="60.12" y1="14.75" x2="54.91" y2="7.36" gradientUnits="userSpaceOnUse"><stop stop-color="#B1EAEE"/><stop offset="1" stop-color="#79C4C9" stop-opacity="0"/></linearGradient><linearGradient id="t" x1="91.27" y1="26.81" x2="88.81" y2="40.09" gradientUnits="userSpaceOnUse"><stop stop-color="#B1EAEE"/><stop offset="1" stop-color="#79C4C9" stop-opacity="0"/></linearGradient><radialGradient id="c" cx="0" cy="0" r="1" gradientUnits="userSpaceOnUse" gradientTransform="rotate(-103.11 50.22 5.22) scale(102.543 105.835)"><stop stop-color="#3C416A"/><stop offset=".69" stop-color="#220025"/></radialGradient><clipPath id="a"><path fill="#fff" transform="translate(.67)" d="M0 0h117v117H0z"/></clipPath><filter id="b" x="5.75" y="6.77" width="106.72" height="109.61" filterUnits="userSpaceOnUse" color-interpolation-filters="sRGB"><feFlood flood-opacity="0" result="BackgroundImageFix"/><feColorMatrix in="SourceAlpha" values="0 0 0 0 0 0 0 0 0 0 0 0 0 0 0 0 0 0 127 0" result="hardAlpha"/><feOffset dy="4"/><feGaussianBlur stdDeviation="2"/><feComposite in2="hardAlpha" operator="out"/><feColorMatrix values="0 0 0 0 0 0 0 0 0 0 0 0 0 0 0 0 0 0 0.25 0"/><feBlend in2="BackgroundImageFix" result="effect1_dropShadow_845_10865"/><feBlend in="SourceGraphic" in2="effect1_dropShadow_845_10865" result="shape"/></filter></defs></svg>