<svg width="118" height="117" fill="none" xmlns="http://www.w3.org/2000/svg"><g filter="url(#b)" clip-path="url(#a)"><path d="m101.08 76.92-39.5 26.75-33.25-18-8.75-5.25-1.5-32.25 1.5-17 21-12L60.3 8.92l19.77 10.25 21 13.5v44.25Z" fill="url(#c)"/><path d="M52.86 86.95c-.48 0-12.98-10.74-19.17-16.11l-6.15-13.35 5.66-28.94 32.87-8.28 22.28 16.7 2.95 29.37L75.8 86.89c-7.45.03-22.46.07-22.95.06Z" stroke="url(#d)" stroke-width="1.94"/><path d="M40.68 64.88c-.23-.26-.6-11.92-.77-17.71l4.02-9.6 17.81-10.9 20.05 13.2 1.95 19.6-13.91 15.6-18.14 1.75a7059.69 7059.69 0 0 1-11.01-11.94Z" stroke="url(#e)" stroke-width="1.46"/><path d="M48.29 56.1c-.08-.18 1.49-6.54 2.28-9.7l3.64-4.59 11.3-3.18 8.83 10.19-1.93 10.9-9.9 6.33-10.08-1.82a3975.6 3975.6 0 0 1-4.14-8.13Z" stroke="url(#f)" stroke-width=".97"/><path d="M101.26 32.92V79.9l-40.7 23.49-40.69-23.5V32.93l40.7-23.5 40.69 23.5Z" stroke="url(#g)" stroke-width="6.8"/><path d="m25.69 87.04-6.7-6.84 2.64-3.83 7.75-7.08 9.42 2.1 3.09 18.28-16.2-2.63Z" fill="url(#h)" style="mix-blend-mode:multiply"/><path transform="rotate(-108.99 37.17 93.68)" fill="url(#i)" style="mix-blend-mode:multiply" d="M37.17 93.68h5.76v5.8h-5.76z"/><path transform="rotate(-14.15 17.91 60.33)" fill="url(#j)" style="mix-blend-mode:multiply" d="M17.91 60.33h4.64v4.26h-4.64z"/><path transform="rotate(-59.16 43.7 91.1)" fill="url(#k)" style="mix-blend-mode:multiply" d="M43.71 91.11h2.5v2.22h-2.5z"/><path d="m50.85 96.26 4.7-1.43 4.72 1.35-1.46 4.07-2.9 1.85-5.23-1.46.17-4.38Z" fill="url(#l)" style="mix-blend-mode:multiply"/><path d="m24.44 78.75-6.12-8.58 2.16-3.14 3.76-3.16 7.68 6.96-7.48 7.92Z" fill="url(#m)" style="mix-blend-mode:multiply"/><path d="m66.96 14.37 9.53.87.47 4.63-1.31 10.41-8.55 4.5L52.9 22.84l14.05-8.48Z" fill="url(#n)" style="mix-blend-mode:soft-light"/><path transform="rotate(69.39 86.3 20.49)" fill="url(#o)" style="mix-blend-mode:soft-light" d="M86.31 20.49h5.76v5.8h-5.76z"/><path transform="rotate(125.5 100.93 34.65)" fill="url(#p)" style="mix-blend-mode:soft-light" d="M100.93 34.65h4.64v4.26h-4.64z"/><path transform="rotate(80.49 101.69 35.3)" fill="url(#q)" style="mix-blend-mode:soft-light" d="M101.69 35.3h2.5v2.22h-2.5z"/><path d="m62.84 10.3-2.66 4.13-4.48 2.03-1.51-4.05 1-3.28 4.94-2.28 2.7 3.45Z" fill="url(#r)" style="mix-blend-mode:soft-light"/><path d="m88.95 25.88 10.22 2.58.39 3.78-.82 4.84-10.36-.33.57-10.87Z" fill="url(#s)" style="mix-blend-mode:soft-light"/><path d="M18.7 82.04c-2.5-11.67-.6-35.02-1-36.12l4.38 3.87-2.5 17.63 2.5 1.75 2.37 14.24 10.13 1.75 22.37 16.13L18.7 82.04Z" fill="#591587" fill-opacity=".2" style="mix-blend-mode:multiply"/><path d="M103.01 32.42c2.45 11.67-.4 30.14 0 31.25l-4.36-3.9 2.67-17.6v-5.25l-2.67-4-14.28-9.51L62.06 7.19 103 32.42Z" fill="#fff" style="mix-blend-mode:soft-light"/></g><defs><linearGradient id="d" x1="18.4" y1="16.03" x2="135.87" y2="78.92" gradientUnits="userSpaceOnUse"><stop stop-color="#00057B"/><stop offset=".28" stop-opacity=".01"/><stop offset=".4" stop-color="#00023E"/><stop offset=".52" stop-opacity="0"/><stop offset=".76" stop-color="#000239"/></linearGradient><linearGradient id="e" x1="61.19" y1="12.96" x2="84.59" y2="104.35" gradientUnits="userSpaceOnUse"><stop stop-color="#00057B"/><stop offset=".28" stop-opacity=".01"/><stop offset=".4" stop-color="#00023E"/><stop offset=".52" stop-opacity="0"/><stop offset=".76" stop-color="#000239"/></linearGradient><linearGradient id="f" x1="67.29" y1="31.12" x2="66.04" y2="84.14" gradientUnits="userSpaceOnUse"><stop stop-color="#00057B"/><stop offset=".28" stop-opacity=".01"/><stop offset=".4" stop-color="#00023E"/><stop offset=".52" stop-opacity="0"/><stop offset=".76" stop-color="#000239"/></linearGradient><linearGradient id="g" x1="104.66" y1="81.87" x2="16.47" y2="30.95" gradientUnits="userSpaceOnUse"><stop stop-color="#ECA9E5"/><stop offset=".5" stop-color="#CAEFF4"/><stop offset="1" stop-color="#D581CC"/></linearGradient><linearGradient id="h" x1="20.13" y1="87.47" x2="46.46" y2="83.57" gradientUnits="userSpaceOnUse"><stop stop-color="#B1EAEE"/><stop offset="1" stop-color="#79C4C9" stop-opacity="0"/></linearGradient><linearGradient id="i" x1="39.15" y1="93.45" x2="38.21" y2="100.58" gradientUnits="userSpaceOnUse"><stop stop-color="#B1EAEE"/><stop offset="1" stop-color="#79C4C9" stop-opacity="0"/></linearGradient><linearGradient id="j" x1="19.51" y1="60.17" x2="18.87" y2="65.42" gradientUnits="userSpaceOnUse"><stop stop-color="#B1EAEE"/><stop offset="1" stop-color="#79C4C9" stop-opacity="0"/></linearGradient><linearGradient id="k" x1="44.57" y1="91.02" x2="44.25" y2="93.76" gradientUnits="userSpaceOnUse"><stop stop-color="#B1EAEE"/><stop offset="1" stop-color="#79C4C9" stop-opacity="0"/></linearGradient><linearGradient id="l" x1="53.95" y1="94.56" x2="53.13" y2="103.58" gradientUnits="userSpaceOnUse"><stop stop-color="#B1EAEE"/><stop offset="1" stop-color="#79C4C9" stop-opacity="0"/></linearGradient><linearGradient id="m" x1="21.41" y1="76.47" x2="31.89" y2="67.95" gradientUnits="userSpaceOnUse"><stop stop-color="#B1EAEE"/><stop offset="1" stop-color="#79C4C9" stop-opacity="0"/></linearGradient><linearGradient id="n" x1="70.92" y1="10.44" x2="53.38" y2="30.46" gradientUnits="userSpaceOnUse"><stop stop-color="#B1EAEE"/><stop offset="1" stop-color="#79C4C9" stop-opacity="0"/></linearGradient><linearGradient id="o" x1="88.29" y1="20.26" x2="87.34" y2="27.39" gradientUnits="userSpaceOnUse"><stop stop-color="#B1EAEE"/><stop offset="1" stop-color="#79C4C9" stop-opacity="0"/></linearGradient><linearGradient id="p" x1="102.53" y1="34.48" x2="101.89" y2="39.73" gradientUnits="userSpaceOnUse"><stop stop-color="#B1EAEE"/><stop offset="1" stop-color="#79C4C9" stop-opacity="0"/></linearGradient><linearGradient id="q" x1="102.55" y1="35.21" x2="102.23" y2="37.95" gradientUnits="userSpaceOnUse"><stop stop-color="#B1EAEE"/><stop offset="1" stop-color="#79C4C9" stop-opacity="0"/></linearGradient><linearGradient id="r" x1="61.57" y1="13.6" x2="56.36" y2="6.2" gradientUnits="userSpaceOnUse"><stop stop-color="#B1EAEE"/><stop offset="1" stop-color="#79C4C9" stop-opacity="0"/></linearGradient><linearGradient id="s" x1="92.73" y1="25.65" x2="90.27" y2="38.93" gradientUnits="userSpaceOnUse"><stop stop-color="#B1EAEE"/><stop offset="1" stop-color="#79C4C9" stop-opacity="0"/></linearGradient><radialGradient id="c" cx="0" cy="0" r="1" gradientUnits="userSpaceOnUse" gradientTransform="matrix(93.35067 -41.18968 39.2459 88.94535 61.55 55.13)"><stop stop-color="#3C416A"/><stop offset=".69" stop-color="#220025"/></radialGradient><clipPath id="a"><path fill="#fff" transform="translate(.64)" d="M0 0h117v117H0z"/></clipPath><filter id="b" x="12.47" y="5.5" width="96.19" height="109.83" filterUnits="userSpaceOnUse" color-interpolation-filters="sRGB"><feFlood flood-opacity="0" result="BackgroundImageFix"/><feColorMatrix in="SourceAlpha" values="0 0 0 0 0 0 0 0 0 0 0 0 0 0 0 0 0 0 127 0" result="hardAlpha"/><feOffset dy="4"/><feGaussianBlur stdDeviation="2"/><feComposite in2="hardAlpha" operator="out"/><feColorMatrix values="0 0 0 0 0 0 0 0 0 0 0 0 0 0 0 0 0 0 0.25 0"/><feBlend in2="BackgroundImageFix" result="effect1_dropShadow_845_10880"/><feBlend in="SourceGraphic" in2="effect1_dropShadow_845_10880" result="shape"/></filter></defs></svg>