<svg width="118" height="117" fill="none" xmlns="http://www.w3.org/2000/svg"><g filter="url(#b)" clip-path="url(#a)"><path d="M96.86 32.54v40.6l1.2 20.36-38.62 2.3-38.76-2.3-3.16-20.35v-33.8l-1.14-25.01h81.68l-1.2 18.2Z" fill="url(#c)"/><path d="M52.6 82.36c-.44-.01-11.9-9.86-17.59-14.8l-5.64-12.24 5.19-26.56 30.17-7.6 20.45 15.32 2.7 26.96L73.67 82.3c-6.83.03-20.61.07-21.06.06Z" stroke="url(#d)" stroke-width="1.94"/><path d="M41.43 62.1c-.21-.24-.56-10.94-.7-16.26l3.68-8.8 16.35-10 18.4 12.1 1.79 18-12.77 14.31-16.65 1.61c-3.28-3.55-9.9-10.72-10.1-10.96Z" stroke="url(#e)" stroke-width="1.46"/><path d="M48.41 54.04c-.08-.16 1.37-6 2.1-8.9l3.33-4.2L64.21 38l8.11 9.35-1.77 10.01-9.09 5.8-9.25-1.66-3.8-7.47Z" stroke="url(#f)" stroke-width=".97"/><path d="M98.26 14.07V94.1H18.2V14.07h80.05Z" stroke="url(#g)" stroke-width="6.8"/><path d="m24.6 96.8-8.73-.96-.36-4.26 1.38-9.53 7.91-3.98 12.83 11.17L24.6 96.8Z" fill="url(#h)" style="mix-blend-mode:multiply"/><path transform="rotate(-108.99 39.17 94.56)" fill="url(#i)" style="mix-blend-mode:multiply" d="M39.17 94.56h5.29v5.32h-5.29z"/><path transform="rotate(-14.15 20.53 57.93)" fill="url(#j)" style="mix-blend-mode:multiply" d="M20.53 57.93h4.26v3.91h-4.26z"/><path transform="rotate(-59.16 42.45 96.52)" fill="url(#k)" style="mix-blend-mode:multiply" d="M42.45 96.52h2.29v2.04h-2.29z"/><path d="m50.76 90.9 4.31-1.3 4.34 1.23-1.35 3.73-2.65 1.7-4.8-1.33.15-4.03Z" fill="url(#l)" style="mix-blend-mode:multiply"/><path d="m20.42 86.9-5.62-7.88 1.98-2.88 3.45-2.9 7.05 6.39-6.86 7.26Z" fill="url(#m)" style="mix-blend-mode:multiply"/><path d="m90.69 11.82 8.74.8.44 4.25-1.21 9.56-7.85 4.12L77.8 19.61l12.89-7.79Z" fill="url(#n)" style="mix-blend-mode:soft-light"/><path transform="rotate(69.39 86.38 14.75)" fill="url(#o)" style="mix-blend-mode:soft-light" d="M86.38 14.75h5.29v5.32h-5.29z"/><path transform="rotate(125.5 96.73 34.35)" fill="url(#p)" style="mix-blend-mode:soft-light" d="M96.73 34.35h4.26v3.91h-4.26z"/><path transform="rotate(80.49 97.42 34.95)" fill="url(#q)" style="mix-blend-mode:soft-light" d="M97.42 34.95h2.29v2.04h-2.29z"/><path d="m77.35 14.73-2.44 3.8-4.1 1.86-1.4-3.71.92-3.01 4.53-2.1 2.49 3.16Z" fill="url(#r)" style="mix-blend-mode:soft-light"/><path d="m88.76 24.24 9.39 2.37.35 3.47-.75 4.45-9.5-.3.51-9.99Z" fill="url(#s)" style="mix-blend-mode:soft-light"/><path d="M16.95 95.51c-2.3-10.7-.55-32.14-.92-33.15l4.02 3.56-2.3 16.18.98 11.98 6.48-.93 9.64.93 21.51 1.43h-39.4Z" fill="#591587" fill-opacity=".2" style="mix-blend-mode:multiply"/><path d="M100.5 41.41a.38.38 0 0 1-.08-.17l-3.28-6.02 1.34-13.42-1.34-7.8-3.21 1.26-14.4-.66-25.19-2.54 45.21.67c.92 9.36.2 26.52.87 28.51l.09.17Z" fill="#fff" style="mix-blend-mode:soft-light"/></g><defs><linearGradient id="d" x1="20.98" y1="17.26" x2="128.79" y2="74.99" gradientUnits="userSpaceOnUse"><stop stop-color="#00057B"/><stop offset=".28" stop-opacity=".01"/><stop offset=".4" stop-color="#00023E"/><stop offset=".52" stop-opacity="0"/><stop offset=".76" stop-color="#000239"/></linearGradient><linearGradient id="e" x1="60.25" y1="14.45" x2="81.73" y2="98.32" gradientUnits="userSpaceOnUse"><stop stop-color="#00057B"/><stop offset=".28" stop-opacity=".01"/><stop offset=".4" stop-color="#00023E"/><stop offset=".52" stop-opacity="0"/><stop offset=".76" stop-color="#000239"/></linearGradient><linearGradient id="f" x1="65.85" y1="31.12" x2="64.71" y2="79.77" gradientUnits="userSpaceOnUse"><stop stop-color="#00057B"/><stop offset=".28" stop-opacity=".01"/><stop offset=".4" stop-color="#00023E"/><stop offset=".52" stop-opacity="0"/><stop offset=".76" stop-color="#000239"/></linearGradient><linearGradient id="g" x1="101.66" y1="97.51" x2="14.81" y2="10.67" gradientUnits="userSpaceOnUse"><stop stop-color="#ECA9E5"/><stop offset=".5" stop-color="#CAEFF4"/><stop offset="1" stop-color="#D581CC"/></linearGradient><linearGradient id="h" x1="20.9" y1="100.33" x2="37.33" y2="82.25" gradientUnits="userSpaceOnUse"><stop stop-color="#B1EAEE"/><stop offset="1" stop-color="#79C4C9" stop-opacity="0"/></linearGradient><linearGradient id="i" x1="41" y1="94.35" x2="40.13" y2="100.89" gradientUnits="userSpaceOnUse"><stop stop-color="#B1EAEE"/><stop offset="1" stop-color="#79C4C9" stop-opacity="0"/></linearGradient><linearGradient id="j" x1="22" y1="57.77" x2="21.41" y2="62.59" gradientUnits="userSpaceOnUse"><stop stop-color="#B1EAEE"/><stop offset="1" stop-color="#79C4C9" stop-opacity="0"/></linearGradient><linearGradient id="k" x1="43.24" y1="96.44" x2="42.95" y2="98.96" gradientUnits="userSpaceOnUse"><stop stop-color="#B1EAEE"/><stop offset="1" stop-color="#79C4C9" stop-opacity="0"/></linearGradient><linearGradient id="l" x1="53.6" y1="89.35" x2="52.85" y2="97.62" gradientUnits="userSpaceOnUse"><stop stop-color="#B1EAEE"/><stop offset="1" stop-color="#79C4C9" stop-opacity="0"/></linearGradient><linearGradient id="m" x1="17.64" y1="84.8" x2="27.26" y2="76.98" gradientUnits="userSpaceOnUse"><stop stop-color="#B1EAEE"/><stop offset="1" stop-color="#79C4C9" stop-opacity="0"/></linearGradient><linearGradient id="n" x1="94.32" y1="8.22" x2="78.22" y2="26.6" gradientUnits="userSpaceOnUse"><stop stop-color="#B1EAEE"/><stop offset="1" stop-color="#79C4C9" stop-opacity="0"/></linearGradient><linearGradient id="o" x1="88.2" y1="14.54" x2="87.33" y2="21.08" gradientUnits="userSpaceOnUse"><stop stop-color="#B1EAEE"/><stop offset="1" stop-color="#79C4C9" stop-opacity="0"/></linearGradient><linearGradient id="p" x1="98.19" y1="34.2" x2="97.61" y2="39.02" gradientUnits="userSpaceOnUse"><stop stop-color="#B1EAEE"/><stop offset="1" stop-color="#79C4C9" stop-opacity="0"/></linearGradient><linearGradient id="q" x1="98.21" y1="34.87" x2="97.91" y2="37.39" gradientUnits="userSpaceOnUse"><stop stop-color="#B1EAEE"/><stop offset="1" stop-color="#79C4C9" stop-opacity="0"/></linearGradient><linearGradient id="r" x1="76.19" y1="17.76" x2="71.41" y2="10.97" gradientUnits="userSpaceOnUse"><stop stop-color="#B1EAEE"/><stop offset="1" stop-color="#79C4C9" stop-opacity="0"/></linearGradient><linearGradient id="s" x1="92.24" y1="24.04" x2="89.98" y2="36.22" gradientUnits="userSpaceOnUse"><stop stop-color="#B1EAEE"/><stop offset="1" stop-color="#79C4C9" stop-opacity="0"/></linearGradient><radialGradient id="c" cx="0" cy="0" r="1" gradientUnits="userSpaceOnUse" gradientTransform="rotate(-23.73 152.58 -117.8) scale(112.138 118.776)"><stop stop-color="#3C416A"/><stop offset=".69" stop-color="#220025"/></radialGradient><clipPath id="a"><path fill="#fff" transform="translate(.5)" d="M0 0h117v117H0z"/></clipPath><filter id="b" x="10.8" y="10.67" width="94.85" height="94.9" filterUnits="userSpaceOnUse" color-interpolation-filters="sRGB"><feFlood flood-opacity="0" result="BackgroundImageFix"/><feColorMatrix in="SourceAlpha" values="0 0 0 0 0 0 0 0 0 0 0 0 0 0 0 0 0 0 127 0" result="hardAlpha"/><feOffset dy="4"/><feGaussianBlur stdDeviation="2"/><feComposite in2="hardAlpha" operator="out"/><feColorMatrix values="0 0 0 0 0 0 0 0 0 0 0 0 0 0 0 0 0 0 0.25 0"/><feBlend in2="BackgroundImageFix" result="effect1_dropShadow_845_10905"/><feBlend in="SourceGraphic" in2="effect1_dropShadow_845_10905" result="shape"/></filter></defs></svg>