<svg width="117" height="117" fill="none" xmlns="http://www.w3.org/2000/svg"><g filter="url(#b)" clip-path="url(#a)"><path d="M107.094 14.647 58.5 98.816 9.905 14.647h97.189Z" fill="url(#c)" stroke="url(#d)" stroke-width="6.8"/><path d="m92.709 14.612 9.528.872.473 4.632-1.317 10.412-8.548 4.49L78.66 23.098l14.049-8.485Z" fill="url(#e)" style="mix-blend-mode:soft-light"/><path d="m87.012 27.55 10.221 2.575.39 3.786-.819 4.841-10.363-.328.57-10.875Z" fill="url(#f)" style="mix-blend-mode:soft-light"/><path d="m84.642 15.034-2.66 4.136-4.47 2.03-1.519-4.046L77 13.87l4.932-2.282 2.71 3.446Z" fill="url(#g)" style="mix-blend-mode:soft-light"/><path d="M109.131 13.21c-3.523 10.965-18.166 30.328-17.327 31.144l-3.951-1.277 14.63-18.414-3.012-.488 3.884-9.702-9.877 2.83-27.162-4.784 42.815.69Z" fill="#fff" style="mix-blend-mode:soft-light"/><path d="M65.93 37.292c.09.048-1.718 2.965-1.06 4.55l-.097 3.078-6.295 9.492-4.412-6.125-2.613-5.215-1.113-5.78 6.375 3.37c1.398.693 9.125-3.418 9.215-3.37Z" stroke="url(#h)" stroke-width=".972"/><path d="M36.892 28.016c-.196.103 4.872 6.958 3.447 10.396l4.126 9.25 13.5 21 8.858-18.288 5.666-11.31 6.226-10.277-19.565 3.126c-3.032 1.501-22.062-4-22.258-3.897Z" stroke="url(#i)" stroke-width=".972"/><path d="M90.333 22.09c.331.175-9.919 6.697-7.513 12.502l-4.26 9.945-19.142 36.078-16.153-22.428-9.567-19.095-4.59-17.965 23.148 1.841c5.118 2.536 37.746-1.052 38.077-.878Z" stroke="url(#j)" stroke-width=".972"/><path d="m44.72 77.587-6.697-6.835 2.64-3.835 7.745-7.082 9.422 2.113 3.089 18.27-16.2-2.631Z" fill="url(#k)" style="mix-blend-mode:multiply"/><path transform="rotate(-70.255 47.096 84.913)" fill="url(#l)" style="mix-blend-mode:multiply" d="M47.096 84.913h5.762v5.798h-5.762z"/><path transform="rotate(-14.15 31.459 54.568)" fill="url(#m)" style="mix-blend-mode:multiply" d="M31.459 54.568h4.638v4.26h-4.638z"/><path d="m50.951 85.723 4.704-1.43 4.723 1.348-1.464 4.067-2.894 1.85-5.236-1.454.167-4.381Z" fill="url(#n)" style="mix-blend-mode:multiply"/><path d="m41.872 69.788-6.12-8.582 2.153-3.137 3.759-3.159 7.684 6.961-7.476 7.917Z" fill="url(#o)" style="mix-blend-mode:multiply"/></g><defs><linearGradient id="d" x1="58.5" y1="105.616" x2="58.5" y2="-20.209" gradientUnits="userSpaceOnUse"><stop stop-color="#ECA9E5"/><stop offset=".5" stop-color="#CAEFF4"/><stop offset="1" stop-color="#D581CC"/></linearGradient><linearGradient id="e" x1="96.664" y1="10.69" x2="79.123" y2="30.709" gradientUnits="userSpaceOnUse"><stop stop-color="#B1EAEE"/><stop offset="1" stop-color="#79C4C9" stop-opacity="0"/></linearGradient><linearGradient id="f" x1="90.796" y1="27.324" x2="88.332" y2="40.604" gradientUnits="userSpaceOnUse"><stop stop-color="#B1EAEE"/><stop offset="1" stop-color="#79C4C9" stop-opacity="0"/></linearGradient><linearGradient id="g" x1="83.379" y1="18.336" x2="78.169" y2="10.938" gradientUnits="userSpaceOnUse"><stop stop-color="#B1EAEE"/><stop offset="1" stop-color="#79C4C9" stop-opacity="0"/></linearGradient><linearGradient id="h" x1="62.602" y1="53.547" x2="46.476" y2="30.76" gradientUnits="userSpaceOnUse"><stop stop-color="#00057B"/><stop offset=".279" stop-opacity=".01"/><stop offset=".398" stop-color="#00023E"/><stop offset=".521" stop-opacity="0"/><stop offset=".755" stop-color="#000239"/></linearGradient><linearGradient id="i" x1="48.313" y1="61.781" x2="83.286" y2="12.362" gradientUnits="userSpaceOnUse"><stop stop-color="#00057B"/><stop offset=".279" stop-opacity=".01"/><stop offset=".398" stop-color="#00023E"/><stop offset=".521" stop-opacity="0"/><stop offset=".755" stop-color="#000239"/></linearGradient><linearGradient id="j" x1="74.519" y1="77.446" x2="15.472" y2="-5.989" gradientUnits="userSpaceOnUse"><stop stop-color="#00057B"/><stop offset=".279" stop-opacity=".01"/><stop offset=".398" stop-color="#00023E"/><stop offset=".521" stop-opacity="0"/><stop offset=".755" stop-color="#000239"/></linearGradient><linearGradient id="k" x1="39.165" y1="78.014" x2="65.495" y2="74.118" gradientUnits="userSpaceOnUse"><stop stop-color="#B1EAEE"/><stop offset="1" stop-color="#79C4C9" stop-opacity="0"/></linearGradient><linearGradient id="l" x1="49.081" y1="84.688" x2="48.133" y2="91.815" gradientUnits="userSpaceOnUse"><stop stop-color="#B1EAEE"/><stop offset="1" stop-color="#79C4C9" stop-opacity="0"/></linearGradient><linearGradient id="m" x1="33.057" y1="54.403" x2="32.419" y2="59.655" gradientUnits="userSpaceOnUse"><stop stop-color="#B1EAEE"/><stop offset="1" stop-color="#79C4C9" stop-opacity="0"/></linearGradient><linearGradient id="n" x1="54.051" y1="84.024" x2="53.231" y2="93.035" gradientUnits="userSpaceOnUse"><stop stop-color="#B1EAEE"/><stop offset="1" stop-color="#79C4C9" stop-opacity="0"/></linearGradient><linearGradient id="o" x1="38.842" y1="67.51" x2="49.319" y2="58.985" gradientUnits="userSpaceOnUse"><stop stop-color="#B1EAEE"/><stop offset="1" stop-color="#79C4C9" stop-opacity="0"/></linearGradient><radialGradient id="c" cx="0" cy="0" r="1" gradientUnits="userSpaceOnUse" gradientTransform="rotate(-89.197 49.165 -8.861) scale(136.622 141.069)"><stop stop-color="#3C416A"/><stop offset=".693" stop-color="#220025"/></radialGradient><clipPath id="a"><path fill="#fff" d="M0 0h117v117H0z"/></clipPath><filter id="b" x=".017" y="11.247" width="116.967" height="102.369" filterUnits="userSpaceOnUse" color-interpolation-filters="sRGB"><feFlood flood-opacity="0" result="BackgroundImageFix"/><feColorMatrix in="SourceAlpha" values="0 0 0 0 0 0 0 0 0 0 0 0 0 0 0 0 0 0 127 0" result="hardAlpha"/><feOffset dy="4"/><feGaussianBlur stdDeviation="2"/><feComposite in2="hardAlpha" operator="out"/><feColorMatrix values="0 0 0 0 0 0 0 0 0 0 0 0 0 0 0 0 0 0 0.25 0"/><feBlend in2="BackgroundImageFix" result="effect1_dropShadow_845_10849"/><feBlend in="SourceGraphic" in2="effect1_dropShadow_845_10849" result="shape"/></filter></defs></svg>