<svg width="238" height="66" fill="none" xmlns="http://www.w3.org/2000/svg"><g filter="url(#a)"><path d="m18.45 48.836 1.495 12.32h6.337L19.418 7.212h4.488V1.228H3.049v5.984h4.488l-6.6 53.944H7.01l1.496-12.32 5.016 4.928 4.928-4.928Zm-8.977-7.128 4.048-33 4.049 33-4.049 3.96-4.048-3.96ZM43.121.436c-3.52 0-6.072 1.232-7.744 2.992-1.76 1.76-2.464 3.96-2.464 5.72V24.9L46.73 38.012v13.112c0 2.376-1.848 4.312-3.872 4.312-1.496 0-3.696-1.76-3.696-4.224V36.78h-6.248v15.4c0 2.112.792 4.488 2.464 6.248 1.672 1.848 4.048 3.168 7.48 3.168 3.344 0 5.808-1.32 7.568-3.168 1.672-1.848 2.552-4.224 2.552-6.248V34.844L39.161 21.38V10.028c0-2.376 1.672-3.96 3.872-3.96S46.73 7.476 46.73 9.94v11.352h6.248V9.148c0-1.76-.616-3.96-2.112-5.72C49.37 1.756 46.905.436 43.121.436Zm28.83 0c-3.52 0-6.072 1.232-7.744 2.992-1.76 1.76-2.464 3.96-2.464 5.72V24.9L75.56 38.012v13.112c0 2.376-1.848 4.312-3.872 4.312-1.496 0-3.696-1.76-3.696-4.224V36.78h-6.248v15.4c0 2.112.792 4.488 2.464 6.248 1.672 1.848 4.048 3.168 7.48 3.168 3.344 0 5.808-1.32 7.568-3.168 1.672-1.848 2.552-4.224 2.552-6.248V34.844L67.991 21.38V10.028c0-2.376 1.672-3.96 3.872-3.96S75.56 7.476 75.56 9.94v11.352h6.248V9.148c0-1.76-.616-3.96-2.112-5.72C78.2 1.756 75.735.436 71.951.436Zm38.247 6.776V1.316H91.014v59.84h19.184v-5.984H97.086V39.244l10.296-10.208-4.224-4.312-6.072 5.984V7.212h13.112Zm21.852 2.112v51.832h6.336V17.772l9.064-8.448v51.832h6.336V1.228h-6.336l-9.064 8.888V1.228h-6.336l-8.008 8.184V1.228h-6.16l-.176 59.928h6.336V17.772l8.008-8.448Zm32.189 51.832h9.064c1.76 0 4.576.264 7.04-1.144 2.464-1.32 4.488-4.048 4.488-10.208V37.22l-6.512-6.688 6.512-6.424v-12.32c0-4.4-1.32-6.864-3.344-8.536-2.024-1.496-4.752-2.024-7.568-2.024h-9.68v59.928Zm6.16-30.712V7.212h3.784c1.144 0 2.376.264 3.168.968.792.792 1.32 2.288 1.32 4.752v9.24l-8.272 8.272Zm0 24.728V38.54l3.96-3.872 4.312 4.312v10.648c0 2.464-.88 3.872-1.672 4.576-.968.792-2.024.968-2.464.968h-4.136Zm29.948-53.944h-6.16v59.928h17.776v-5.984h-11.616V1.228Zm36.688 5.984V1.316h-19.184v59.84h19.184v-5.984h-13.112V39.244l10.296-10.208-4.224-4.312-6.072 5.984V7.212h13.112Z" fill="url(#b)"/><path d="m18.45 48.836.992-.12-.247-2.04-1.453 1.453.707.707Zm1.495 12.32-.992.12.107.88h.886v-1Zm6.337 0v1h1.135l-.144-1.127-.991.127ZM19.418 7.212v-1h-1.136l.143 1.126.992-.126Zm4.488 0v1h1v-1h-1Zm0-5.984h1v-1h-1v1Zm-20.857 0v-1h-1v1h1Zm0 5.984h-1v1h1v-1Zm4.488 0 .993.121.137-1.121h-1.13v1Zm-6.6 53.944-.992-.122-.137 1.122h1.13v-1Zm6.072 0v1h.886l.107-.88-.993-.12Zm1.496-12.32.701-.714L7.758 46.7l-.245 2.016.992.12Zm5.016 4.928-.7.713.707.695.7-.701-.707-.707ZM9.473 41.708l-.992-.122-.06.49.353.346.7-.714Zm4.048-33 .993-.122h-1.985l.992.122Zm4.049 33 .699.715.353-.346-.06-.491-.992.122Zm-4.049 3.96-.699.715.7.684.699-.684-.7-.715Zm3.936 3.288 1.496 12.32 1.985-.24-1.496-12.32-1.985.24Zm2.488 13.2h6.337v-2h-6.337v2Zm7.328-1.127L20.41 7.085l-1.985.253 6.864 53.944 1.984-.252ZM19.418 8.212h4.488v-2h-4.488v2Zm5.488-1V1.228h-2v5.984h2Zm-1-6.984H3.049v2h20.857v-2Zm-21.857 1v5.984h2V1.228h-2Zm1 6.984h4.488v-2H3.05v2ZM6.545 7.09l-6.6 53.944 1.985.243 6.6-53.944-1.985-.243ZM.937 62.156H7.01v-2H.937v2Zm7.065-.88 1.496-12.32-1.985-.24-1.496 12.32 1.985.24ZM7.805 49.55l5.016 4.928 1.401-1.427-5.016-4.928-1.401 1.427Zm6.424 4.922 4.928-4.928-1.415-1.414-4.928 4.928 1.415 1.414ZM10.466 41.83l4.048-33-1.985-.244-4.048 33 1.985.244Zm2.063-33 4.048 33 1.985-.244-4.048-33-1.985.243Zm4.341 32.163-4.048 3.96 1.399 1.43 4.048-3.96-1.399-1.43Zm-2.65 3.96-4.047-3.96-1.399 1.43 4.048 3.96 1.399-1.43ZM35.378 3.428l.707.707.01-.01.008-.009-.725-.688ZM32.913 24.9h-1v.43l.312.295.688-.725ZM46.73 38.012h1v-.43l-.312-.296-.688.726Zm-7.568-1.232h1v-1h-1v1Zm-6.248 0v-1h-1v1h1Zm2.464 21.648.742-.671-.008-.01-.009-.008-.725.689Zm15.048 0 .724.69.009-.01.009-.01-.742-.67Zm2.552-23.584h1v-.422l-.302-.294-.698.716ZM39.161 21.38h-1v.422l.302.294.698-.716Zm7.568-.088h-1v1h1v-1Zm6.248 0v1h1v-1h-1ZM50.865 3.428l.762-.648-.008-.01-.009-.01-.745.668ZM43.121-.564c-3.77 0-6.592 1.327-8.469 3.303l1.45 1.377c1.467-1.544 3.75-2.68 7.02-2.68v-2ZM34.67 2.72c-1.96 1.96-2.757 4.42-2.757 6.427h2c0-1.513.611-3.453 2.171-5.013L34.67 2.72Zm-2.757 6.427V24.9h2V9.148h-2Zm.312 16.477L46.04 38.737l1.377-1.45-13.816-13.113-1.377 1.451Zm13.504 12.387v13.112h2V38.012h-2Zm0 13.112c0 1.908-1.481 3.312-2.872 3.312v2c2.658 0 4.872-2.469 4.872-5.312h-2Zm-2.872 3.312c-.402 0-1.085-.27-1.697-.89-.587-.596-.999-1.41-.999-2.334h-2c0 1.54.688 2.838 1.575 3.738.862.874 2.027 1.486 3.121 1.486v-2Zm-2.696-3.224V36.78h-2v14.432h2Zm-1-15.432h-6.248v2h6.248v-2Zm-7.248 1v15.4h2v-15.4h-2Zm0 15.4c0 2.34.872 4.971 2.74 6.937l1.45-1.378c-1.478-1.555-2.19-3.676-2.19-5.56h-2Zm2.723 6.919c1.852 2.047 4.493 3.497 8.221 3.497v-2c-3.136 0-5.246-1.19-6.738-2.84L34.636 59.1Zm8.221 3.497c3.64 0 6.36-1.45 8.292-3.479l-1.448-1.379c-1.587 1.667-3.796 2.858-6.844 2.858v2Zm8.31-3.497c1.827-2.02 2.81-4.632 2.81-6.92h-2c0 1.761-.777 3.902-2.293 5.578l1.483 1.342Zm2.81-6.92V34.845h-2V52.18h2Zm-.302-18.052L39.859 20.663l-1.396 1.433L52.28 35.56l1.396-1.433ZM40.161 21.38V10.028h-2V21.38h2Zm0-11.352c0-1.824 1.224-2.96 2.872-2.96v-2c-2.752 0-4.872 2.031-4.872 4.96h2Zm2.872-2.96c.884 0 1.532.278 1.96.713.428.435.736 1.13.736 2.159h2c0-1.436-.44-2.677-1.31-3.561-.87-.886-2.07-1.311-3.386-1.311v2ZM45.73 9.94v11.352h2V9.94h-2Zm1 12.352h6.248v-2H46.73v2Zm7.248-1V9.148h-2v12.144h2Zm0-12.144c0-1.968-.682-4.406-2.35-6.368l-1.524 1.295c1.324 1.558 1.874 3.52 1.874 5.073h2ZM51.61 2.76C49.905.855 47.16-.564 43.121-.564v2c3.53 0 5.712 1.22 6.999 2.658l1.49-1.333Zm12.597.667.708.707.009-.01.008-.009-.725-.688ZM61.743 24.9h-1v.43l.312.295.688-.725ZM75.56 38.012h1v-.43l-.311-.296-.689.726Zm-7.568-1.232h1v-1h-1v1Zm-6.248 0v-1h-1v1h1Zm2.464 21.648.742-.671-.008-.01-.009-.008-.725.689Zm15.048 0 .725.69.008-.01.009-.01-.742-.67Zm2.552-23.584h1v-.422l-.302-.294-.698.716ZM67.991 21.38h-1v.422l.302.294.698-.716Zm7.568-.088h-1v1h1v-1Zm6.248 0v1h1v-1h-1ZM79.695 3.428l.762-.648-.008-.01-.008-.01-.746.668ZM71.951-.564c-3.77 0-6.592 1.327-8.469 3.303l1.45 1.377c1.468-1.544 3.75-2.68 7.02-2.68v-2Zm-8.45 3.285c-1.96 1.96-2.758 4.42-2.758 6.427h2c0-1.513.611-3.453 2.172-5.013L63.5 2.72Zm-2.758 6.427V24.9h2V9.148h-2Zm.312 16.477 13.816 13.112 1.377-1.45-13.816-13.113-1.377 1.451Zm13.504 12.387v13.112h2V38.012h-2Zm0 13.112c0 1.908-1.481 3.312-2.872 3.312v2c2.658 0 4.872-2.469 4.872-5.312h-2Zm-2.872 3.312c-.402 0-1.084-.27-1.696-.89-.588-.596-1-1.41-1-2.334h-2c0 1.54.688 2.838 1.575 3.738.862.874 2.028 1.486 3.121 1.486v-2Zm-2.696-3.224V36.78h-2v14.432h2Zm-1-15.432h-6.248v2h6.248v-2Zm-7.248 1v15.4h2v-15.4h-2Zm0 15.4c0 2.34.873 4.971 2.74 6.937l1.45-1.378c-1.478-1.555-2.19-3.676-2.19-5.56h-2Zm2.723 6.919c1.852 2.047 4.493 3.497 8.221 3.497v-2c-3.135 0-5.246-1.19-6.738-2.84L63.466 59.1Zm8.221 3.497c3.64 0 6.36-1.45 8.293-3.479l-1.449-1.379c-1.587 1.667-3.796 2.858-6.844 2.858v2Zm8.31-3.497c1.828-2.02 2.81-4.632 2.81-6.92h-2c0 1.761-.777 3.902-2.293 5.578l1.483 1.342Zm2.81-6.92V34.845h-2V52.18h2Zm-.302-18.052L68.69 20.663l-1.395 1.433L81.11 35.56l1.395-1.433ZM68.991 21.38V10.028h-2V21.38h2Zm0-11.352c0-1.824 1.225-2.96 2.872-2.96v-2c-2.752 0-4.872 2.031-4.872 4.96h2Zm2.872-2.96c.884 0 1.533.278 1.96.713.428.435.736 1.13.736 2.159h2c0-1.436-.44-2.677-1.31-3.561-.87-.886-2.07-1.311-3.386-1.311v2ZM74.56 9.94v11.352h2V9.94h-2Zm1 12.352h6.248v-2H75.56v2Zm7.248-1V9.148h-2v12.144h2Zm0-12.144c0-1.968-.682-4.406-2.35-6.368l-1.523 1.295c1.323 1.558 1.873 3.52 1.873 5.073h2ZM80.441 2.76C78.735.855 75.989-.564 71.95-.564v2c3.53 0 5.713 1.22 7 2.658l1.49-1.333Zm29.757 4.45v1h1v-1h-1Zm0-5.895h1v-1h-1v1Zm-19.184 0v-1h-1v1h1Zm0 59.84h-1v1h1v-1Zm19.184 0v1h1v-1h-1Zm0-5.984h1v-1h-1v1Zm-13.112 0h-1v1h1v-1Zm0-15.928-.704-.71-.296.293v.417h1Zm10.296-10.208.704.71.706-.7-.696-.71-.714.7Zm-4.224-4.312.714-.7-.702-.717-.714.704.702.713Zm-6.072 5.984h-1v2.39l1.702-1.678-.702-.712Zm0-23.496v-1h-1v1h1Zm14.112 0V1.316h-2v5.896h2Zm-1-6.896H91.014v2h19.184v-2Zm-20.184 1v59.84h2V1.316h-2Zm1 60.84h19.184v-2H91.014v2Zm20.184-1v-5.984h-2v5.984h2Zm-1-6.984H97.086v2h13.112v-2Zm-12.112 1V39.244h-2v15.928h2Zm-.296-15.218 10.296-10.208-1.408-1.42-10.296 10.208 1.408 1.42Zm10.306-11.618-4.224-4.312-1.429 1.4 4.224 4.311 1.429-1.4Zm-5.64-4.325-6.072 5.985 1.404 1.424 6.072-5.984-1.404-1.425Zm-4.37 6.697V7.212h-2v23.496h2Zm-1-22.496h13.112v-2H97.086v2Zm34.964 1.112h1V6.815l-1.726 1.82.726.689Zm0 51.832h-1v1h1v-1Zm6.336 0v1h1v-1h-1Zm0-43.384-.682-.732-.318.297v.435h1Zm9.064-8.448h1v-2.3l-1.682 1.568.682.732Zm0 51.832h-1v1h1v-1Zm6.336 0v1h1v-1h-1Zm0-59.928h1v-1h-1v1Zm-6.336 0v-1h-.409l-.291.286.7.714Zm-9.064 8.888h-1v2.38l1.7-1.666-.7-.714Zm0-8.888h1v-1h-1v1Zm-6.336 0v-1h-.421l-.294.3.715.7Zm-8.008 8.184h-1v2.451l1.715-1.752-.715-.7Zm0-8.184h1v-1h-1v1Zm-6.16 0v-1h-.997l-.003.997 1 .003Zm-.176 59.928-1-.003-.003 1.003h1.003v-1Zm6.336 0v1h1v-1h-1Zm0-43.384-.726-.688-.274.29v.398h1Zm7.008-8.448v51.832h2V9.324h-2Zm1 52.832h6.336v-2h-6.336v2Zm7.336-1V17.772h-2v43.384h2Zm-.318-42.653 9.064-8.448-1.364-1.463-9.064 8.448 1.364 1.463Zm7.382-9.18v51.833h2V9.324h-2Zm1 52.833h6.336v-2h-6.336v2Zm7.336-1V1.228h-2v59.928h2Zm-1-60.928h-6.336v2h6.336v-2Zm-7.036.286-9.064 8.888 1.4 1.428 9.064-8.888-1.4-1.428Zm-7.364 9.602V1.228h-2v8.888h2Zm-1-9.888h-6.336v2h6.336v-2Zm-7.051.3-8.008 8.184 1.43 1.4 8.008-8.185-1.43-1.399Zm-6.293 8.884V1.228h-2v8.184h2Zm-1-9.184h-6.16v2h6.16v-2Zm-7.16.997-.176 59.928 2 .006.176-59.928-2-.006Zm.824 60.93h6.336v-2h-6.336v2Zm7.336-1V17.773h-2v43.384h2Zm-.274-42.695 8.008-8.448-1.452-1.376-8.008 8.448 1.452 1.376Zm39.471 42.696h-1v1h1v-1Zm16.104-1.144-.472-.882-.012.007-.012.007.496.868Zm4.488-22.792h1v-.407l-.283-.29-.717.697Zm-6.512-6.688-.702-.712-.707.697.693.712.716-.697Zm6.512-6.424.703.712.297-.294v-.418h-1Zm-3.344-20.856.637-.771-.021-.017-.021-.016-.595.804Zm-17.248-2.024v-1h-1v1h1Zm6.16 29.216h-1v2.414l1.707-1.707-.707-.707Zm0-23.232v-1h-1v1h1Zm6.952.968.707-.707-.02-.021-.022-.02-.665.748Zm1.32 13.992.707.707.293-.293v-.414h-1Zm-8.272 33h-1v1h1v-1Zm0-16.632-.699-.715-.301.294v.42h1Zm3.96-3.872.707-.707-.699-.7-.707.692.699.715Zm4.312 4.312h1v-.414l-.293-.293-.707.707Zm-1.672 15.224.634.774.015-.013.016-.014-.665-.747Zm-12.76 7.952h9.064v-2h-9.064v2Zm9.064 0c1.625 0 4.784.297 7.536-1.276l-.992-1.736c-2.175 1.242-4.648 1.012-6.544 1.012v2Zm7.513-1.263c1.399-.75 2.675-1.906 3.589-3.72.904-1.798 1.426-4.186 1.426-7.37h-2c0 2.978-.49 5.033-1.213 6.47-.714 1.42-1.682 2.287-2.747 2.857l.945 1.763Zm5.015-11.09V37.22h-2v12.584h2Zm-.283-13.28-6.512-6.689-1.433 1.395 6.512 6.688 1.433-1.395Zm-6.526-5.28 6.512-6.423-1.405-1.424-6.512 6.424 1.405 1.424Zm6.809-7.135v-12.32h-2v12.32h2Zm0-12.32c0-4.638-1.41-7.41-3.707-9.307l-1.274 1.542c1.752 1.446 2.981 3.603 2.981 7.765h2Zm-3.749-9.34c-2.272-1.68-5.25-2.22-8.163-2.22v2c2.72 0 5.197.515 6.974 1.828l1.189-1.608Zm-8.163-2.22h-9.68v2h9.68v-2Zm-10.68 1v59.928h2V1.228h-2Zm8.16 29.216V7.212h-2v23.232h2Zm-1-22.232h3.784v-2h-3.784v2Zm3.784 0c1.043 0 1.98.25 2.504.715l1.329-1.495c-1.06-.942-2.588-1.22-3.833-1.22v2Zm2.461.675c.511.51 1.027 1.675 1.027 4.045h2c0-2.559-.54-4.386-1.613-5.46l-1.414 1.415Zm1.027 4.045v9.24h2v-9.24h-2Zm.293 8.533-8.272 8.272 1.414 1.414 8.272-8.272-1.414-1.414Zm-6.565 33.707V38.54h-2v16.632h2Zm-.301-15.917 3.96-3.872-1.398-1.43-3.96 3.872 1.398 1.43Zm2.554-3.88 4.312 4.312 1.414-1.414-4.312-4.312-1.414 1.414Zm4.019 3.605v10.648h2V38.98h-2Zm0 10.648c0 2.206-.778 3.332-1.336 3.828l1.329 1.495c1.025-.912 2.007-2.602 2.007-5.323h-2Zm-1.305 3.802c-.759.62-1.579.742-1.831.742v2c.629 0 1.921-.231 3.098-1.194l-1.267-1.548Zm-1.831.742h-4.136v2h4.136v-2Zm25.812-52.944h1v-1h-1v1Zm-6.16 0v-1h-1v1h1Zm0 59.928h-1v1h1v-1Zm17.776 0v1h1v-1h-1Zm0-5.984h1v-1h-1v1Zm-11.616 0h-1v1h1v-1Zm0-54.944h-6.16v2h6.16v-2Zm-7.16 1v59.928h2V1.228h-2Zm1 60.928h17.776v-2h-17.776v2Zm18.776-1v-5.984h-2v5.984h2Zm-1-6.984h-11.616v2h11.616v-2Zm-10.616 1V1.228h-2v53.944h2Zm35.688-47.96v1h1v-1h-1Zm0-5.896h1v-1h-1v1Zm-19.184 0v-1h-1v1h1Zm0 59.84h-1v1h1v-1Zm19.184 0v1h1v-1h-1Zm0-5.984h1v-1h-1v1Zm-13.112 0h-1v1h1v-1Zm0-15.928-.704-.71-.296.293v.417h1Zm10.296-10.208.704.71.706-.7-.696-.71-.714.7Zm-4.224-4.312.714-.7-.702-.717-.714.704.702.713Zm-6.072 5.984h-1v2.39l1.702-1.678-.702-.712Zm0-23.496v-1h-1v1h1Zm14.112 0V1.316h-2v5.896h2Zm-1-6.896h-19.184v2h19.184v-2Zm-20.184 1v59.84h2V1.316h-2Zm1 60.84h19.184v-2h-19.184v2Zm20.184-1v-5.984h-2v5.984h2Zm-1-6.984h-13.112v2h13.112v-2Zm-12.112 1V39.244h-2v15.928h2Zm-.296-15.218 10.296-10.208-1.408-1.42-10.296 10.208 1.408 1.42Zm10.306-11.618-4.224-4.312-1.429 1.4 4.224 4.311 1.429-1.4Zm-5.64-4.325-6.072 5.985 1.404 1.424 6.072-5.984-1.404-1.425Zm-4.37 6.697V7.212h-2v23.496h2Zm-1-22.496h13.112v-2h-13.112v2Z" fill="#A6E4CA"/></g><defs><linearGradient id="b" x1="119" y1="-9.389" x2="125.062" y2="89.033" gradientUnits="userSpaceOnUse"><stop stop-color="#FFEFF5"/><stop offset="1" stop-color="#FF699E"/></linearGradient><filter id="a" x=".938" y=".436" width="236.097" height="65.16" filterUnits="userSpaceOnUse" color-interpolation-filters="sRGB"><feFlood flood-opacity="0" result="BackgroundImageFix"/><feColorMatrix in="SourceAlpha" values="0 0 0 0 0 0 0 0 0 0 0 0 0 0 0 0 0 0 127 0" result="hardAlpha"/><feOffset dy="4"/><feComposite in2="hardAlpha" operator="out"/><feColorMatrix values="0 0 0 0 0.262745 0 0 0 0 0.12549 0 0 0 0 0.564706 0 0 0 1 0"/><feBlend in2="BackgroundImageFix" result="effect1_dropShadow_773_11307"/><feBlend in="SourceGraphic" in2="effect1_dropShadow_773_11307" result="shape"/></filter></defs></svg>