<svg width="398" height="848" fill="none" xmlns="http://www.w3.org/2000/svg"><g clip-path="url(#a)"><path fill="#fff" d="M0 0h398v848H0z"/><path fill="url(#b)" d="M-.264-.002h398v848h-398z"/><path d="M-59.065 487.079 145.777 836.98h111.627c29.921-48.891 93.215-153.744 107.024-182.019 17.262-35.343 52.937-104.263 73.651-151.977 20.715-47.714 17.262-38.878 17.262-114.867s6.905-125.47 10.358-204.993c3.452-79.524-2.302-61.855-10.358-102.496-8.055-40.642-9.206 0-17.262 0-8.055 0-33.373 79.523-37.976 67.152-4.603-12.371-2.301-26.511-12.659-79.523-10.357-53.012 2.538-58.317 2.538-91.893-4.603 21.207-20.603 41.176-23.141 54.816-2.59 13.926-4.16 111.647-22.475 126.851 11.427-40.438-5.334-56.945-10.513-126.851-6.912-93.285 2.9-129.038 2.9-139.644 0-10.606-17.206-60.083-24.11-60.083-6.905 0-28.092 77.65-43.68 116.636-15.225-54.427-21.388-165.713-34.076-30.12-1.151 33.576-2.457 62.649-10.513 75.02-4.713-20.46-5.438-68.654-7.613-83.886-1.938-13.578-.771 3.631-6.525-31.713-5.754-35.344 5.74-7.06-10.372-95.418-33.373-65.385-14.96 37.111-24.166 65.386-7.365 22.62-14.577 45.948-17.262 54.784v-70.689c0-24.74 5.754-28.276 0-28.276s-19.564-30.143-29.921-30.143-6.905 28.376-14.96 30.143c-8.056 1.767 8.055 51.595 8.055 67.153 0 4.673 21.728 42.524 11.774 42.524-3.626 0-25.583-60.698-11.774 27.829 11.157 71.522-11.508 84.235-13.809 81.29v-81.29c0-40.645-13.206 53.67-13.206 56.397 0 19.44-4.76-20.72-10.513-41.923-4.603-16.962-3.836-61.853 0-63.621 2.302-12.371-3.902-37.334-9.425-37.334-6.905 0-10.15 24.893-12.888 37.334-2.334 10.606-8.056 37.114-8.056 56.553 0 15.55.858 59.931 3.543 88.206C52.653 22.157 46.808 8.172 42.206 1.1c-5.755-8.839-9.207-22.97-9.207-53.012s10.357-58.317 0-45.947c-6.445 8.483-12.659 3.534-14.96 0C16.12-77.83 12.284-28.231 12.284 9.94v123.703c0-11.31-13.809-48.303-20.714-65.386L-14.184 9.94l5.754-81.29-14.96 26.507-9.206 97.195v51.249l9.206 30.042-9.206 60.084-5.755-10.603-10.357-35.344-10.357-318.427-20.714 355.204 20.714 302.522Z" fill="url(#c)"/><path d="m-28.115 534.364 24.167 290.137 454.985 19c27.321-39.493-28.676-148.16-16.066-171 15.761-28.549-28.066-86.748-9.152-125.29 18.914-38.541 15.761-31.404 15.761-92.784 0-61.381 6.305-101.35 9.457-165.586 3.153-64.235-2.101-49.963-9.457-82.792-7.355-32.828-8.406 0-15.761 0-7.356 0-30.473 64.236-34.676 54.243-4.203-9.992-2.101-21.414-11.558-64.235-9.457-42.822 0-47.106 0-74.228-4.203 17.13-23.364 39.753-23.364 51.172 0 11.42-.646 48.91-20 67.25 4.104-35.84 2.83-73.894-1.25-91-2.5-48.75-5.823-87.375-5.823-95.942 0-8.567-11.559-48.533-17.863-48.533-6.305 0-1.803-1.872-17.564 10.975-15.762 12.847-26.45 24.129-27.5 51.25-1.051 27.122-2.895 56.508-10.25 66.5-10.5-22.75-23.055-77.83-16.75-89.25-18.25 16.849-12.75 35.652-27.25 59.25 0-40.25 11.049-67.322-3.662-138.693-30.473-52.816-13.66 29.976-22.067 52.816a2454.812 2454.812 0 0 0-15.761 44.252v-57.1c0-19.984 5.254-22.84 0-22.84h-21.016c-9.457 0-12.609-1.428-19.964 0-7.356 1.427 34.024 24.268 27.72 35.688-6.305 11.42-14.06-1.352-7.756 28.627-9.994-4.5-8.19-35.764-14.494 37.037-1.534 17.71-1.5 32.213-8 53.713-1.5-22.75-1.5-11.746-1.5-38.011 0-32.832-13.008-64.767-13.008-80.469 0-15.702.012 77.107-5.242 59.98-4.203-13.701-5.003-35.322-1.5-36.75 2.101-9.993 2.793-19.25-2.25-19.25-6.305 0-6.692-10.5-18.25-10.5 7.355 7.138-10.36 71.287-10.36 86.989 0 12.561 4.903 61.38 7.355 84.22-4.203-11.42-13.66-35.687-17.863-41.399-5.254-7.14-8.406-18.555-8.406-42.821 0-24.267 9.456-47.106 0-37.114-5.885 6.852-11.559 2.855-13.66 0-1.752 16.178-5.254 56.242-5.254 87.075v99.922c0-9.136-12.61-39.018-18.914-52.816l-5.254-47.106 5.254-65.663L4.459 104.7l-8.407 78.51v41.396l8.407 24.267-8.407 48.533-5.253-8.565-9.457-28.549-9.457-111.341-18.914 286.918 18.914 98.495Z" fill="url(#d)"/><path fill="#571C6B" fill-opacity=".6" style="mix-blend-mode:color" d="M5.971 13h377.458v816.5H5.971z"/><path fill="#65BDC8" fill-opacity=".2" style="mix-blend-mode:color-dodge" d="M5.971 13h377.458v816.5H5.971z"/></g><defs><radialGradient id="b" cx="0" cy="0" r="1" gradientUnits="userSpaceOnUse" gradientTransform="matrix(-9.99975 -360.00014 357.2842 -9.92431 203.479 366.156)"><stop stop-color="#110F49"/><stop offset=".903" stop-color="#000310"/></radialGradient><radialGradient id="c" cx="0" cy="0" r="1" gradientUnits="userSpaceOnUse" gradientTransform="matrix(12.32549 943.68351 -479.68909 6.26524 173.883 -239.453)"><stop offset=".141" stop-color="#07002F"/><stop offset=".953" stop-color="#050025"/></radialGradient><radialGradient id="d" cx="0" cy="0" r="1" gradientUnits="userSpaceOnUse" gradientTransform="matrix(11.25603 868.06703 -498.25611 6.46078 191.213 80.945)"><stop stop-color="#060358"/><stop offset="1"/></radialGradient><clipPath id="a"><path fill="#fff" d="M0 0h398v848H0z"/></clipPath></defs></svg>