<svg width="192" height="192" fill="none" xmlns="http://www.w3.org/2000/svg"><g filter="url(#a)"><circle cx="96.358" cy="96.416" r="45.495" fill="#C434FC" fill-opacity=".5"/></g><path d="m93.736 57.674 22.736 7.388 14.052 19.34v23.907l-14.052 19.34-22.736 7.388L71 127.649l-14.052-19.34V84.402L71 65.062l22.736-7.388Z" fill="#C434FC"/><path d="M112.537 128.195c-52.61 20.678-69.806-48.531-35.695-61.015-6.213 13.89-14.066 41.743 4.22 42.024 22.859.352 22.684-19.87 33.058-12.484 10.374 7.385 20.923 12.308-1.583 31.475Z" fill="url(#b)"/><path d="m67.234 71.537 20.045-10.023 39.667 21.7-1.5 28.501-38.167 20.309-23.21-15.649-6.154-22.331 9.319-22.507Z" fill="url(#c)" fill-opacity=".5"/><path d="M91.894 63.1c22.726-3.024 38.349 18.978 32.893 38.436-4.249 15.153-9.241 4.805-8.502 1.109.739-3.696-11.086-15.892-13.119-16.262-2.032-.37-50.648-18.044-11.272-23.283Z" fill="url(#d)"/><path d="M93.732 112.881v22.156l22.625-7.531-13-18.5-9.625 3.875Z" fill="url(#e)" style="mix-blend-mode:soft-light"/><path d="m77.563 101.59-20.43 6.906 13.7 19.18 13.447-18.178-6.717-7.908Z" fill="url(#f)" style="mix-blend-mode:soft-light"/><path d="m103.179 82.889 13.314-17.83-22.745-7.406-.605 22.603 10.036 2.633Z" fill="url(#g)" style="mix-blend-mode:soft-light"/><path d="m109.489 101.148 21.052 6.907-.103-23.845-21.63 6.585.681 10.353Z" fill="url(#h)" style="mix-blend-mode:soft-light" opacity=".5"/><path d="M83.573 82.998 70.799 64.895 56.655 84.092l21.288 7.621 5.63-8.715Z" fill="url(#i)" style="mix-blend-mode:soft-light" opacity=".5"/><path d="m83.758 110.09-12.75 17.437 22.724 7.5v-23.375l-9.974-1.562Z" fill="url(#j)" style="mix-blend-mode:soft-light"/><path d="m77.633 91.277-20.708-6.843v23.995l22.178-7.384-1.47-9.768Z" fill="url(#k)" style="mix-blend-mode:soft-light"/><path d="m109.789 92.045 20.517-7.587-13.874-19.249-13.946 18.76 7.303 8.076Z" fill="url(#l)" style="mix-blend-mode:soft-light"/><path d="m103.571 109.355 12.891 18.235 14.078-19.36-22.269-7.481-4.7 8.606Z" fill="url(#m)" style="mix-blend-mode:soft-light" opacity=".8"/><path d="m93.22 79.942.533-22.325-22.848 7.137 13.408 19.29 8.907-4.102Z" fill="url(#n)" style="mix-blend-mode:soft-light" opacity=".8"/><path d="m77.875 74.587 15.86-5.153 15.86 5.153 9.802 13.491v16.676l-9.802 13.492-15.86 5.153-15.86-5.153-9.802-13.492V88.078l9.802-13.491Z" fill="url(#o)"/><path d="m77.875 74.587 15.86-5.153 15.86 5.153 9.802 13.491v16.676l-9.802 13.492-15.86 5.153-15.86-5.153-9.802-13.492V88.078l9.802-13.491Z" stroke="url(#p)" style="mix-blend-mode:multiply"/><defs><linearGradient id="e" x1="89.482" y1="138.506" x2="103.607" y2="113.256" gradientUnits="userSpaceOnUse"><stop stop-color="#0047FF"/><stop offset="1" stop-color="#C942FC"/></linearGradient><linearGradient id="f" x1="51.908" y1="105.652" x2="80.327" y2="111.077" gradientUnits="userSpaceOnUse"><stop stop-color="#0047FF"/><stop offset="1" stop-color="#C942FC"/></linearGradient><linearGradient id="g" x1="121.879" y1="64.859" x2="95.478" y2="76.696" gradientUnits="userSpaceOnUse"><stop stop-color="#0047FF"/><stop offset="1" stop-color="#C942FC"/></linearGradient><linearGradient id="h" x1="132.512" y1="113.175" x2="112.924" y2="91.882" gradientUnits="userSpaceOnUse"><stop stop-color="#0047FF"/><stop offset="1" stop-color="#C942FC"/></linearGradient><linearGradient id="i" x1="58.696" y1="73.965" x2="75.288" y2="88.385" gradientUnits="userSpaceOnUse"><stop stop-color="#001446"/><stop offset="1" stop-color="#C942FC"/></linearGradient><linearGradient id="j" x1="65.505" y1="128.68" x2="91.122" y2="115.232" gradientUnits="userSpaceOnUse"><stop stop-color="#600085"/><stop offset="1" stop-color="#E8A9FF"/></linearGradient><linearGradient id="k" x1="54.031" y1="79.642" x2="74.882" y2="99.699" gradientUnits="userSpaceOnUse"><stop stop-color="#060050"/><stop offset="1" stop-color="#AC01EC"/></linearGradient><linearGradient id="l" x1="135.297" y1="87.144" x2="106.716" y2="82.653" gradientUnits="userSpaceOnUse"><stop stop-color="#600085"/><stop offset="1" stop-color="#E8A9FF"/></linearGradient><linearGradient id="m" x1="116.133" y1="101.152" x2="116.633" y2="125.527" gradientUnits="userSpaceOnUse"><stop stop-color="#DD84FF"/><stop offset="1" stop-color="#4D20FF"/></linearGradient><linearGradient id="n" x1="78.244" y1="79.03" x2="92.385" y2="59.17" gradientUnits="userSpaceOnUse"><stop stop-color="#DD84FF"/><stop offset="1" stop-color="#4D20FF"/></linearGradient><linearGradient id="p" x1="112.071" y1="64.215" x2="66.227" y2="122.715" gradientUnits="userSpaceOnUse"><stop stop-color="#fff"/><stop offset="1" stop-color="#D5ABFF"/></linearGradient><radialGradient id="b" cx="0" cy="0" r="1" gradientUnits="userSpaceOnUse" gradientTransform="rotate(126.254 24.476 71.192) scale(39.2488 40.3591)"><stop stop-color="#C434FC"/><stop offset=".641" stop-color="#861682"/><stop offset="1" stop-color="#7F399F" stop-opacity="0"/></radialGradient><radialGradient id="c" cx="0" cy="0" r="1" gradientUnits="userSpaceOnUse" gradientTransform="matrix(49.23391 22.33111 -21.37064 47.11635 70.926 92.285)"><stop stop-color="#B71FFF"/><stop offset="1" stop-color="#290049" stop-opacity="0"/></radialGradient><radialGradient id="d" cx="0" cy="0" r="1" gradientUnits="userSpaceOnUse" gradientTransform="matrix(17.37049 33.26258 -30.27902 15.8124 104.827 74.927)"><stop offset=".188" stop-color="#FF79FA"/><stop offset="1" stop-color="#80007A" stop-opacity="0"/></radialGradient><radialGradient id="o" cx="0" cy="0" r="1" gradientUnits="userSpaceOnUse" gradientTransform="matrix(-25.24976 36.00018 -45.75984 -32.09497 101.321 81.965)"><stop stop-color="#FFC1EA"/><stop offset=".975" stop-color="#EC34FC"/></radialGradient><filter id="a" x=".863" y=".922" width="190.989" height="190.989" filterUnits="userSpaceOnUse" color-interpolation-filters="sRGB"><feFlood flood-opacity="0" result="BackgroundImageFix"/><feBlend in="SourceGraphic" in2="BackgroundImageFix" result="shape"/><feGaussianBlur stdDeviation="25" result="effect1_foregroundBlur_775_10314"/></filter></defs></svg>