<svg width="195" height="195" fill="none" xmlns="http://www.w3.org/2000/svg"><g filter="url(#a)"><path d="m61.675 66.76 31-17.975 22.75 6.25 16.75 11.724 7.75 11.526 3.75 25.5-8 15.751-10.285 14.181-4.522 4.741-19.943 5.578-19.75-2.751-17.5-12.25-13.514-20.53v-24.97L61.674 66.76Z" fill="url(#b)"/><path d="M137.685 84.096c.382.556-.739 21.403-1.347 31.756l-8.934 15.326-34.66 11.802-35.048-31.881-.553-35.63L85.33 53.693l33.834 4.556c6.015 8.384 18.139 25.29 18.52 25.848Z" stroke="url(#c)" stroke-width="1.943"/><path d="M110.29 126.189c-.413.261-16.759-1.81-24.88-2.878l-12.488-7.742L61.69 88.302l22.863-25.027 27.794 1.646 18.645 22.883-1.592 25.684c-6.198 4.125-18.698 12.441-19.11 12.701Z" stroke="url(#d)" stroke-width="1.943"/><path d="M78.827 108.347c-.26-.228-2.125-11.743-3.025-17.471l2.757-10.03L94.83 67.76 116.4 78.277l4.446 19.204-11.808 17.242-17.76 4.06a6555.643 6555.643 0 0 1-12.451-10.436Z" stroke="url(#e)" stroke-width="1.457"/><path d="M85.975 88.46c.05-.187 5.383-4.001 8.044-5.885l5.74-1.115 10.651 4.928.088 13.49-8.562 7.032-11.631-1.643-6.478-7.931c.695-2.88 2.097-8.688 2.148-8.876Z" stroke="url(#f)" stroke-width=".972"/><path d="m141.123 79.876 1.937 29.193-15.592 24.756-27.166 10.863-28.363-7.179-18.726-22.479-1.937-29.193L66.87 61.081l27.165-10.863 28.363 7.179 18.726 22.479Z" stroke="url(#g)" stroke-width="6.801"/><path d="m62.288 128.079-6.696-6.835 2.639-3.835 7.745-7.082 9.422 2.114 3.09 18.27-16.2-2.632Z" fill="url(#h)" style="mix-blend-mode:multiply"/><path transform="rotate(-70.255 66.725 131.329)" fill="url(#i)" style="mix-blend-mode:multiply" d="M66.725 131.329h5.762v5.798h-5.762z"/><path transform="rotate(-14.15 47.986 105.503)" fill="url(#j)" style="mix-blend-mode:multiply" d="M47.986 105.503h4.638v4.26h-4.638z"/><path transform="rotate(-59.156 69.767 138.532)" fill="url(#k)" style="mix-blend-mode:multiply" d="M69.767 138.532h2.497v2.224h-2.497z"/><path d="m74.407 136.446 4.704-1.43 4.723 1.348-1.464 4.067-2.894 1.85-5.236-1.454.167-4.381Z" fill="url(#l)" style="mix-blend-mode:multiply"/><path d="m61.044 119.791-6.121-8.582 2.153-3.137 3.76-3.159 7.684 6.961-7.476 7.917Z" fill="url(#m)" style="mix-blend-mode:multiply"/><path d="m114.662 59.283 9.528.872.473 4.632-1.316 10.412-8.549 4.49-14.185-11.921 14.049-8.485Z" fill="url(#n)" style="mix-blend-mode:soft-light"/><path transform="rotate(69.388 123.175 60.797)" fill="url(#o)" style="mix-blend-mode:soft-light" d="M123.175 60.797h5.762v5.798h-5.762z"/><path transform="rotate(125.494 137.534 75.687)" fill="url(#p)" style="mix-blend-mode:soft-light" d="M137.534 75.687h4.638v4.26h-4.638z"/><path transform="rotate(80.487 138.29 76.338)" fill="url(#q)" style="mix-blend-mode:soft-light" d="M138.29 76.338h2.497v2.224h-2.497z"/><path d="m99.436 51.337-2.659 4.136-4.471 2.03-1.518-4.047 1.006-3.284 4.932-2.281 2.71 3.446Z" fill="url(#r)" style="mix-blend-mode:soft-light"/><path d="m125.547 66.922 10.221 2.576.391 3.786-.819 4.84-10.364-.328.571-10.874Z" fill="url(#s)" style="mix-blend-mode:soft-light"/><path d="M72.425 140.873c-20.005-20.123-19.75-25.587-21.342-34.651l7.592 9.064 4.5 9.5 3.274 4.264 3.014.477 11.238 11.346 11.974 1.815 9.5-.264 10.75-4.388-13.75 8.25-26.75-5.413Z" fill="#591587" fill-opacity=".2" style="mix-blend-mode:multiply"/><path d="M142.802 79.507c2.452 11.676 2.125 27.75 2.521 28.851l-3.896-8.352 1.375-14.25-3.625-3.124 1.141-2.125-8.643-11.221-9.122-10.78h-4.25l-1.375-2.47-18.27-7.806 24.895 7.806 5.09 6.92 14.159 16.55Z" fill="#fff" style="mix-blend-mode:soft-light"/></g><defs><linearGradient id="c" x1="91.616" y1="167.548" x2="88.754" y2="-4.936" gradientUnits="userSpaceOnUse"><stop stop-color="#00057B"/><stop offset=".279" stop-opacity=".01"/><stop offset=".398" stop-color="#00023E"/><stop offset=".521" stop-opacity="0"/><stop offset=".755" stop-color="#000239"/></linearGradient><linearGradient id="d" x1="42.438" y1="86.009" x2="175.119" y2="73.731" gradientUnits="userSpaceOnUse"><stop stop-color="#00057B"/><stop offset=".279" stop-opacity=".01"/><stop offset=".398" stop-color="#00023E"/><stop offset=".521" stop-opacity="0"/><stop offset=".755" stop-color="#000239"/></linearGradient><linearGradient id="e" x1="92.532" y1="54.227" x2="127.427" y2="141.873" gradientUnits="userSpaceOnUse"><stop stop-color="#00057B"/><stop offset=".279" stop-opacity=".01"/><stop offset=".398" stop-color="#00023E"/><stop offset=".521" stop-opacity="0"/><stop offset=".755" stop-color="#000239"/></linearGradient><linearGradient id="f" x1="116.653" y1="81.853" x2="81.222" y2="121.306" gradientUnits="userSpaceOnUse"><stop stop-color="#00057B"/><stop offset=".279" stop-opacity=".01"/><stop offset=".398" stop-color="#00023E"/><stop offset=".521" stop-opacity="0"/><stop offset=".755" stop-color="#000239"/></linearGradient><linearGradient id="g" x1="146.527" y1="109.946" x2="47.81" y2="84.96" gradientUnits="userSpaceOnUse"><stop stop-color="#ECA9E5"/><stop offset=".5" stop-color="#CAEFF4"/><stop offset="1" stop-color="#D581CC"/></linearGradient><linearGradient id="h" x1="56.734" y1="128.507" x2="83.064" y2="124.61" gradientUnits="userSpaceOnUse"><stop stop-color="#B1EAEE"/><stop offset="1" stop-color="#79C4C9" stop-opacity="0"/></linearGradient><linearGradient id="i" x1="68.711" y1="131.103" x2="67.762" y2="138.231" gradientUnits="userSpaceOnUse"><stop stop-color="#B1EAEE"/><stop offset="1" stop-color="#79C4C9" stop-opacity="0"/></linearGradient><linearGradient id="j" x1="49.585" y1="105.337" x2="48.947" y2="110.589" gradientUnits="userSpaceOnUse"><stop stop-color="#B1EAEE"/><stop offset="1" stop-color="#79C4C9" stop-opacity="0"/></linearGradient><linearGradient id="k" x1="70.627" y1="138.446" x2="70.304" y2="141.19" gradientUnits="userSpaceOnUse"><stop stop-color="#B1EAEE"/><stop offset="1" stop-color="#79C4C9" stop-opacity="0"/></linearGradient><linearGradient id="l" x1="77.507" y1="134.747" x2="76.687" y2="143.758" gradientUnits="userSpaceOnUse"><stop stop-color="#B1EAEE"/><stop offset="1" stop-color="#79C4C9" stop-opacity="0"/></linearGradient><linearGradient id="m" x1="58.014" y1="117.513" x2="68.49" y2="108.988" gradientUnits="userSpaceOnUse"><stop stop-color="#B1EAEE"/><stop offset="1" stop-color="#79C4C9" stop-opacity="0"/></linearGradient><linearGradient id="n" x1="118.617" y1="55.36" x2="101.076" y2="75.38" gradientUnits="userSpaceOnUse"><stop stop-color="#B1EAEE"/><stop offset="1" stop-color="#79C4C9" stop-opacity="0"/></linearGradient><linearGradient id="o" x1="125.161" y1="60.571" x2="124.212" y2="67.699" gradientUnits="userSpaceOnUse"><stop stop-color="#B1EAEE"/><stop offset="1" stop-color="#79C4C9" stop-opacity="0"/></linearGradient><linearGradient id="p" x1="139.133" y1="75.521" x2="138.495" y2="80.773" gradientUnits="userSpaceOnUse"><stop stop-color="#B1EAEE"/><stop offset="1" stop-color="#79C4C9" stop-opacity="0"/></linearGradient><linearGradient id="q" x1="139.15" y1="76.252" x2="138.827" y2="78.996" gradientUnits="userSpaceOnUse"><stop stop-color="#B1EAEE"/><stop offset="1" stop-color="#79C4C9" stop-opacity="0"/></linearGradient><linearGradient id="r" x1="98.174" y1="54.639" x2="92.964" y2="47.241" gradientUnits="userSpaceOnUse"><stop stop-color="#B1EAEE"/><stop offset="1" stop-color="#79C4C9" stop-opacity="0"/></linearGradient><linearGradient id="s" x1="129.331" y1="66.696" x2="126.868" y2="79.977" gradientUnits="userSpaceOnUse"><stop stop-color="#B1EAEE"/><stop offset="1" stop-color="#79C4C9" stop-opacity="0"/></linearGradient><radialGradient id="b" cx="0" cy="0" r="1" gradientUnits="userSpaceOnUse" gradientTransform="rotate(-103.113 85.08 10.053) scale(102.543 105.835)"><stop stop-color="#3C416A"/><stop offset=".693" stop-color="#220025"/></radialGradient><filter id="a" x="43.81" y="46.65" width="106.716" height="109.606" filterUnits="userSpaceOnUse" color-interpolation-filters="sRGB"><feFlood flood-opacity="0" result="BackgroundImageFix"/><feColorMatrix in="SourceAlpha" values="0 0 0 0 0 0 0 0 0 0 0 0 0 0 0 0 0 0 127 0" result="hardAlpha"/><feOffset dy="4"/><feGaussianBlur stdDeviation="2"/><feComposite in2="hardAlpha" operator="out"/><feColorMatrix values="0 0 0 0 0 0 0 0 0 0 0 0 0 0 0 0 0 0 0.25 0"/><feBlend in2="BackgroundImageFix" result="effect1_dropShadow_767_10855"/><feBlend in="SourceGraphic" in2="effect1_dropShadow_767_10855" result="shape"/></filter></defs></svg>