<svg width="175" height="177" fill="none" xmlns="http://www.w3.org/2000/svg"><g filter="url(#a)"><path d="m126.742 110.458-39.5 26.75-33.25-18-8.75-5.25-1.5-32.25 1.5-17 21-12 19.731-10.25 19.769 10.25 21 13.5v44.25Z" fill="url(#b)"/><path d="M78.53 120.495c-.488-.01-12.985-10.748-19.172-16.115l-6.152-13.343 5.659-28.943 32.87-8.278 22.284 16.693 2.943 29.37-15.486 20.553c-7.445.025-22.458.074-22.946.063Z" stroke="url(#c)" stroke-width="1.943"/><path d="M66.345 98.424c-.228-.26-.605-11.919-.766-17.716l4.019-9.595 17.809-10.896 20.049 13.19 1.953 19.614-13.916 15.591-18.134 1.754a7299.02 7299.02 0 0 1-11.014-11.942Z" stroke="url(#d)" stroke-width="1.457"/><path d="M73.957 89.638c-.084-.175 1.486-6.541 2.282-9.702l3.635-4.58 11.295-3.186 8.841 10.189-1.929 10.91-9.903 6.319-10.08-1.811c-1.345-2.64-4.057-7.964-4.141-8.139Z" stroke="url(#e)" stroke-width=".972"/><path d="M126.926 66.458v46.988L86.233 136.94 45.54 113.446V66.458l40.693-23.494 40.693 23.494Z" stroke="url(#f)" stroke-width="6.801"/><path d="m51.353 120.579-6.696-6.835 2.64-3.835 7.745-7.082 9.422 2.114 3.09 18.27-16.2-2.632Z" fill="url(#g)" style="mix-blend-mode:multiply"/><path transform="rotate(-108.989 62.834 127.218)" fill="url(#h)" style="mix-blend-mode:multiply" d="M62.834 127.218h5.762v5.798h-5.762z"/><path transform="rotate(-14.15 43.58 93.872)" fill="url(#i)" style="mix-blend-mode:multiply" d="M43.58 93.872h4.638v4.26H43.58z"/><path transform="rotate(-59.156 69.375 124.647)" fill="url(#j)" style="mix-blend-mode:multiply" d="M69.375 124.647h2.497v2.224h-2.497z"/><path d="m76.513 129.805 4.704-1.429 4.722 1.348-1.464 4.066-2.893 1.851-5.236-1.455.167-4.381Z" fill="url(#k)" style="mix-blend-mode:multiply"/><path d="m50.11 112.291-6.121-8.582 2.153-3.137 3.76-3.159 7.684 6.961-7.477 7.917Z" fill="url(#l)" style="mix-blend-mode:multiply"/><path d="m92.63 47.907 9.528.872.472 4.632-1.316 10.412-8.549 4.49-14.184-11.921 14.048-8.485Z" fill="url(#m)" style="mix-blend-mode:soft-light"/><path transform="rotate(69.388 111.972 54.03)" fill="url(#n)" style="mix-blend-mode:soft-light" d="M111.972 54.029h5.762v5.798h-5.762z"/><path transform="rotate(125.494 126.599 68.187)" fill="url(#o)" style="mix-blend-mode:soft-light" d="M126.599 68.187h4.638v4.26h-4.638z"/><path transform="rotate(80.487 127.354 68.838)" fill="url(#p)" style="mix-blend-mode:soft-light" d="M127.354 68.838h2.497v2.224h-2.497z"/><path d="m88.501 43.837-2.659 4.136-4.471 2.03-1.518-4.047 1.006-3.284 4.932-2.281 2.71 3.446Z" fill="url(#q)" style="mix-blend-mode:soft-light"/><path d="m114.612 59.422 10.222 2.576.39 3.786-.819 4.84-10.363-.328.57-10.874Z" fill="url(#r)" style="mix-blend-mode:soft-light"/><path d="M44.368 115.577c-2.5-11.667-.6-35.02-1-36.12l4.374 3.875-2.5 17.625 2.5 1.75 2.376 14.245 10.125 1.75 22.375 16.125-38.25-19.25Z" fill="#591587" fill-opacity=".2" style="mix-blend-mode:multiply"/><path d="M128.68 65.958c2.452 11.677-.395 30.148 0 31.25l-4.359-3.894 2.671-17.606v-5.25l-2.671-4-14.289-9.51-22.308-16.219 40.956 25.229Z" fill="#fff" style="mix-blend-mode:soft-light"/></g><defs><linearGradient id="c" x1="44.065" y1="49.569" x2="161.537" y2="112.461" gradientUnits="userSpaceOnUse"><stop stop-color="#00057B"/><stop offset=".279" stop-opacity=".01"/><stop offset=".398" stop-color="#00023E"/><stop offset=".521" stop-opacity="0"/><stop offset=".755" stop-color="#000239"/></linearGradient><linearGradient id="d" x1="86.86" y1="46.501" x2="110.258" y2="137.89" gradientUnits="userSpaceOnUse"><stop stop-color="#00057B"/><stop offset=".279" stop-opacity=".01"/><stop offset=".398" stop-color="#00023E"/><stop offset=".521" stop-opacity="0"/><stop offset=".755" stop-color="#000239"/></linearGradient><linearGradient id="e" x1="92.961" y1="64.665" x2="91.711" y2="117.678" gradientUnits="userSpaceOnUse"><stop stop-color="#00057B"/><stop offset=".279" stop-opacity=".01"/><stop offset=".398" stop-color="#00023E"/><stop offset=".521" stop-opacity="0"/><stop offset=".755" stop-color="#000239"/></linearGradient><linearGradient id="f" x1="130.327" y1="115.41" x2="42.14" y2="64.495" gradientUnits="userSpaceOnUse"><stop stop-color="#ECA9E5"/><stop offset=".5" stop-color="#CAEFF4"/><stop offset="1" stop-color="#D581CC"/></linearGradient><linearGradient id="g" x1="45.8" y1="121.007" x2="72.13" y2="117.11" gradientUnits="userSpaceOnUse"><stop stop-color="#B1EAEE"/><stop offset="1" stop-color="#79C4C9" stop-opacity="0"/></linearGradient><linearGradient id="h" x1="64.82" y1="126.993" x2="63.871" y2="134.12" gradientUnits="userSpaceOnUse"><stop stop-color="#B1EAEE"/><stop offset="1" stop-color="#79C4C9" stop-opacity="0"/></linearGradient><linearGradient id="i" x1="45.178" y1="93.707" x2="44.54" y2="98.959" gradientUnits="userSpaceOnUse"><stop stop-color="#B1EAEE"/><stop offset="1" stop-color="#79C4C9" stop-opacity="0"/></linearGradient><linearGradient id="j" x1="70.236" y1="124.56" x2="69.912" y2="127.305" gradientUnits="userSpaceOnUse"><stop stop-color="#B1EAEE"/><stop offset="1" stop-color="#79C4C9" stop-opacity="0"/></linearGradient><linearGradient id="k" x1="79.613" y1="128.107" x2="78.792" y2="137.118" gradientUnits="userSpaceOnUse"><stop stop-color="#B1EAEE"/><stop offset="1" stop-color="#79C4C9" stop-opacity="0"/></linearGradient><linearGradient id="l" x1="47.08" y1="110.013" x2="57.556" y2="101.488" gradientUnits="userSpaceOnUse"><stop stop-color="#B1EAEE"/><stop offset="1" stop-color="#79C4C9" stop-opacity="0"/></linearGradient><linearGradient id="m" x1="96.584" y1="43.984" x2="79.044" y2="64.004" gradientUnits="userSpaceOnUse"><stop stop-color="#B1EAEE"/><stop offset="1" stop-color="#79C4C9" stop-opacity="0"/></linearGradient><linearGradient id="n" x1="113.957" y1="53.803" x2="113.009" y2="60.931" gradientUnits="userSpaceOnUse"><stop stop-color="#B1EAEE"/><stop offset="1" stop-color="#79C4C9" stop-opacity="0"/></linearGradient><linearGradient id="o" x1="128.197" y1="68.021" x2="127.56" y2="73.273" gradientUnits="userSpaceOnUse"><stop stop-color="#B1EAEE"/><stop offset="1" stop-color="#79C4C9" stop-opacity="0"/></linearGradient><linearGradient id="p" x1="128.215" y1="68.752" x2="127.892" y2="71.496" gradientUnits="userSpaceOnUse"><stop stop-color="#B1EAEE"/><stop offset="1" stop-color="#79C4C9" stop-opacity="0"/></linearGradient><linearGradient id="q" x1="87.239" y1="47.139" x2="82.029" y2="39.741" gradientUnits="userSpaceOnUse"><stop stop-color="#B1EAEE"/><stop offset="1" stop-color="#79C4C9" stop-opacity="0"/></linearGradient><linearGradient id="r" x1="118.396" y1="59.196" x2="115.933" y2="72.477" gradientUnits="userSpaceOnUse"><stop stop-color="#B1EAEE"/><stop offset="1" stop-color="#79C4C9" stop-opacity="0"/></linearGradient><radialGradient id="b" cx="0" cy="0" r="1" gradientUnits="userSpaceOnUse" gradientTransform="matrix(93.35067 -41.18968 39.2459 88.94535 87.22 88.672)"><stop stop-color="#3C416A"/><stop offset=".693" stop-color="#220025"/></radialGradient><filter id="a" x="38.14" y="39.038" width="96.187" height="109.83" filterUnits="userSpaceOnUse" color-interpolation-filters="sRGB"><feFlood flood-opacity="0" result="BackgroundImageFix"/><feColorMatrix in="SourceAlpha" values="0 0 0 0 0 0 0 0 0 0 0 0 0 0 0 0 0 0 127 0" result="hardAlpha"/><feOffset dy="4"/><feGaussianBlur stdDeviation="2"/><feComposite in2="hardAlpha" operator="out"/><feColorMatrix values="0 0 0 0 0 0 0 0 0 0 0 0 0 0 0 0 0 0 0.25 0"/><feBlend in2="BackgroundImageFix" result="effect1_dropShadow_768_10896"/><feBlend in="SourceGraphic" in2="effect1_dropShadow_768_10896" result="shape"/></filter></defs></svg>