<svg width="181" height="182" viewBox="0 0 181 182" fill="none" xmlns="http://www.w3.org/2000/svg">
<g filter="url(#filter0_f_775_10290)">
<circle cx="90.5679" cy="90.9673" r="40.3403" fill="#00E0FF" fill-opacity="0.5"/>
</g>
<path d="M90.5002 92.9962L56.0842 73.286L90.6387 53.336L90.5002 92.9962Z" fill="url(#paint0_linear_775_10290)"/>
<path d="M90.5162 92.9999L124.821 73.0972L124.766 112.997L90.5162 92.9999Z" fill="url(#paint1_linear_775_10290)"/>
<path d="M90.4838 92.9999L56.1788 73.0972L56.2339 112.997L90.4838 92.9999Z" fill="url(#paint2_linear_775_10290)"/>
<path d="M90.5002 92.9965L90.3617 53.3363L124.916 73.2863L90.5002 92.9965Z" fill="url(#paint3_linear_775_10290)"/>
<path d="M90.5157 92.9997L124.904 112.757L90.3224 132.66L90.5157 92.9997Z" fill="url(#paint4_linear_775_10290)"/>
<path d="M90.4843 92.9997L56.0956 112.757L90.6776 132.66L90.4843 92.9997Z" fill="url(#paint5_linear_775_10290)"/>
<path d="M91.0381 70.8659V56.147L123.529 74.3108V106.802L107.323 78.5386L91.0381 70.8659Z" fill="url(#paint6_linear_775_10290)" style="mix-blend-mode:soft-light"/>
<path d="M90.5684 120.347V131.308L57.2941 110.795L56.7461 73.9977L65.9703 84.5055L67.4721 106.489L90.5684 120.347Z" fill="url(#paint7_linear_775_10290)" style="mix-blend-mode:multiply"/>
<path d="M90.5348 52.9844L125.115 72.9262V112.81L90.5348 132.752L55.955 112.81V72.9262L90.5348 52.9844Z" fill="url(#paint8_linear_775_10290)" fill-opacity="0.2" style="mix-blend-mode:lighten"/>
<path d="M100.166 72.3537L99.374 61.6636L122.194 75.6861L123.038 98.0423L109.936 81.1073L100.166 72.3537Z" fill="url(#paint9_radial_775_10290)" style="mix-blend-mode:soft-light"/>
<defs>
<filter id="filter0_f_775_10290" x="0.227539" y="0.626953" width="180.681" height="180.681" filterUnits="userSpaceOnUse" color-interpolation-filters="sRGB">
<feFlood flood-opacity="0" result="BackgroundImageFix"/>
<feBlend mode="normal" in="SourceGraphic" in2="BackgroundImageFix" result="shape"/>
<feGaussianBlur stdDeviation="25" result="effect1_foregroundBlur_775_10290"/>
</filter>
<linearGradient id="paint0_linear_775_10290" x1="82.4623" y1="82.2174" x2="67.355" y2="53.5707" gradientUnits="userSpaceOnUse">
<stop stop-color="#03FFFF"/>
<stop offset="1" stop-color="#020066"/>
</linearGradient>
<linearGradient id="paint1_linear_775_10290" x1="103.872" y1="91.4467" x2="136.233" y2="92.7315" gradientUnits="userSpaceOnUse">
<stop stop-color="#03FFFF"/>
<stop offset="1" stop-color="#020066"/>
</linearGradient>
<linearGradient id="paint2_linear_775_10290" x1="77.128" y1="91.4467" x2="44.7673" y2="92.7315" gradientUnits="userSpaceOnUse">
<stop stop-color="#03FFFF"/>
<stop offset="1" stop-color="#020066"/>
</linearGradient>
<linearGradient id="paint3_linear_775_10290" x1="95.8159" y1="80.6461" x2="113.071" y2="53.2395" gradientUnits="userSpaceOnUse">
<stop stop-color="#03FFFF"/>
<stop offset="1" stop-color="#020066"/>
</linearGradient>
<linearGradient id="paint4_linear_775_10290" x1="98.5387" y1="103.79" x2="113.606" y2="132.457" gradientUnits="userSpaceOnUse">
<stop stop-color="#03FFFF"/>
<stop offset="1" stop-color="#020066"/>
</linearGradient>
<linearGradient id="paint5_linear_775_10290" x1="82.4613" y1="103.79" x2="67.3937" y2="132.457" gradientUnits="userSpaceOnUse">
<stop stop-color="#03FFFF"/>
<stop offset="1" stop-color="#020066"/>
</linearGradient>
<linearGradient id="paint6_linear_775_10290" x1="123.529" y1="70.083" x2="99.4154" y2="85.1151" gradientUnits="userSpaceOnUse">
<stop stop-color="white"/>
<stop offset="1" stop-color="white" stop-opacity="0"/>
</linearGradient>
<linearGradient id="paint7_linear_775_10290" x1="41.0093" y1="128.489" x2="73.6572" y2="73.9977" gradientUnits="userSpaceOnUse">
<stop stop-color="#CDCCFF"/>
<stop offset="1" stop-color="#CDCCFF" stop-opacity="0"/>
</linearGradient>
<linearGradient id="paint8_linear_775_10290" x1="115.049" y1="60.3858" x2="48.7331" y2="149.554" gradientUnits="userSpaceOnUse">
<stop stop-color="white"/>
<stop offset="1" stop-color="#2400FF"/>
</linearGradient>
<radialGradient id="paint9_radial_775_10290" cx="0" cy="0" r="1" gradientUnits="userSpaceOnUse" gradientTransform="translate(117.882 77.7627) rotate(179.565) scale(24.3867 15.9881)">
<stop stop-color="white"/>
<stop offset="1" stop-color="white" stop-opacity="0"/>
</radialGradient>
</defs>
</svg>
