<svg width="160" height="159" fill="none" xmlns="http://www.w3.org/2000/svg"><g filter="url(#a)"><path fill="#05FF00" d="M109.387 50.323v58.654H50.733V50.323z"/></g><path fill="#0029FF" d="M113.439 46.27v66.76h-66.76V46.27z"/><path d="M83.525 77.934 46.751 46.247h66.857L83.525 77.934Z" fill="url(#b)"/><path d="m83.64 77.779 30.014-31.562-.295 66.821-29.72-35.259Z" fill="url(#c)"/><path d="m83.558 77.623 29.864 35.384h-66.92l37.056-35.384Z" fill="url(#d)"/><path d="M83.634 77.584 46.628 46.275V113.1l37.006-35.516Z" fill="url(#e)"/><path d="M57.443 55.486h47.555l.663 48.383H56.716l.727-48.383Z" fill="url(#f)"/><path d="M46.68 46.275h66.974l-.202 66.755H46.68V46.275Z" fill="url(#g)" style="mix-blend-mode:color"/><defs><radialGradient id="b" cx="0" cy="0" r="1" gradientUnits="userSpaceOnUse" gradientTransform="rotate(137.359 39.279 43.716) scale(117.099 84.2009)"><stop stop-color="#80C9FF"/><stop offset="1" stop-color="#8000FF" stop-opacity="0"/></radialGradient><radialGradient id="c" cx="0" cy="0" r="1" gradientUnits="userSpaceOnUse" gradientTransform="rotate(117.434 40.984 62.455) scale(78.8546 127.756)"><stop offset=".259" stop-color="#80C9FF"/><stop offset="1" stop-color="#8000FF" stop-opacity="0"/></radialGradient><radialGradient id="d" cx="0" cy="0" r="1" gradientUnits="userSpaceOnUse" gradientTransform="rotate(157.74 38.933 54.73) scale(59.7921 96.8718)"><stop offset=".185" stop-color="#A3A8FF"/><stop offset="1" stop-color="#8000FF" stop-opacity="0"/></radialGradient><radialGradient id="e" cx="0" cy="0" r="1" gradientUnits="userSpaceOnUse" gradientTransform="rotate(167.972 32.563 38.756) scale(62.0975 100.607)"><stop offset=".004" stop-color="#A3C8FF"/><stop offset="1" stop-color="#8000FF" stop-opacity="0"/></radialGradient><radialGradient id="g" cx="0" cy="0" r="1" gradientUnits="userSpaceOnUse" gradientTransform="rotate(131.73 38.67 51.325) scale(91.1511 91.3252)"><stop stop-color="#E8FF59"/><stop offset="1" stop-color="#05FF00"/></radialGradient><linearGradient id="f" x1="100.843" y1="55.89" x2="56.371" y2="104.779" gradientUnits="userSpaceOnUse"><stop stop-color="#FBFFD0"/><stop offset="1" stop-color="#00C614"/></linearGradient><filter id="a" x=".733" y=".323" width="158.654" height="158.654" filterUnits="userSpaceOnUse" color-interpolation-filters="sRGB"><feFlood flood-opacity="0" result="BackgroundImageFix"/><feBlend in="SourceGraphic" in2="BackgroundImageFix" result="shape"/><feGaussianBlur stdDeviation="25" result="effect1_foregroundBlur_775_10304"/></filter></defs></svg>