<svg width="195" height="196" fill="none" xmlns="http://www.w3.org/2000/svg"><g filter="url(#a)"><path d="M135.357 77.59v40.612l1.204 20.35-38.62 2.295-38.76-2.295-3.156-20.35v-33.8l-1.148-25.009h81.684l-1.204 18.197Z" fill="url(#b)"/><path d="M91.109 127.414c-.448-.009-11.918-9.864-17.597-14.79l-5.646-12.247 5.194-26.563 30.169-7.598 20.451 15.321 2.701 26.956-14.213 18.863c-6.833.023-20.612.068-21.06.058Z" stroke="url(#c)" stroke-width="1.943"/><path d="M79.926 107.157c-.21-.238-.556-10.938-.703-16.259l3.688-8.806 16.345-10.001 18.401 12.105 1.792 18.003-12.772 14.309-16.643 1.61a6431.003 6431.003 0 0 1-10.108-10.961Z" stroke="url(#d)" stroke-width="1.457"/><path d="M86.911 99.094c-.077-.16 1.365-6.004 2.095-8.905l3.336-4.204 10.367-2.923 8.114 9.351-1.77 10.014-9.09 5.799-9.25-1.663a3449.287 3449.287 0 0 1-3.802-7.47Z" stroke="url(#e)" stroke-width=".972"/><path d="M136.757 59.123v80.045H56.713V59.123h80.044Z" stroke="url(#f)" stroke-width="6.801"/><path d="m63.096 141.851-8.73-.956-.357-4.258 1.378-9.533 7.918-3.981 12.822 11.172-13.03 7.556Z" fill="url(#g)" style="mix-blend-mode:multiply"/><path transform="rotate(-108.989 77.675 139.609)" fill="url(#h)" style="mix-blend-mode:multiply" d="M77.675 139.609h5.288v5.321h-5.288z"/><path transform="rotate(-14.15 59.032 102.98)" fill="url(#i)" style="mix-blend-mode:multiply" d="M59.032 102.98h4.257v3.91h-4.257z"/><path transform="rotate(-59.156 80.954 141.577)" fill="url(#j)" style="mix-blend-mode:multiply" d="M80.954 141.577h2.292v2.041h-2.292z"/><path d="m89.258 135.959 4.317-1.312 4.334 1.237-1.343 3.732-2.656 1.699-4.805-1.335.153-4.021Z" fill="url(#k)" style="mix-blend-mode:multiply"/><path d="m58.92 131.948-5.617-7.877 1.977-2.879 3.45-2.899 7.053 6.388-6.862 7.267Z" fill="url(#l)" style="mix-blend-mode:multiply"/><path d="m129.189 56.876 8.746.8.433 4.251-1.208 9.556-7.846 4.122-13.018-10.942 12.893-7.787Z" fill="url(#m)" style="mix-blend-mode:soft-light"/><path transform="rotate(69.388 124.88 59.803)" fill="url(#n)" style="mix-blend-mode:soft-light" d="M124.88 59.803h5.288v5.321h-5.288z"/><path transform="rotate(125.494 135.227 79.406)" fill="url(#o)" style="mix-blend-mode:soft-light" d="M135.227 79.406h4.257v3.91h-4.257z"/><path transform="rotate(80.487 135.92 80.004)" fill="url(#p)" style="mix-blend-mode:soft-light" d="M135.92 80.004h2.292v2.041h-2.292z"/><path d="m115.845 59.789-2.44 3.795-4.104 1.864-1.393-3.714.924-3.014 4.526-2.094 2.487 3.163Z" fill="url(#q)" style="mix-blend-mode:soft-light"/><path d="m127.265 69.298 9.381 2.364.359 3.475-.752 4.443-9.512-.302.524-9.98Z" fill="url(#r)" style="mix-blend-mode:soft-light"/><path d="M55.451 140.568c-2.294-10.708-.551-32.141-.918-33.151l4.015 3.557-2.295 16.176.973 11.981 6.484-.922 9.637.922 21.514 1.437H55.45Z" fill="#591587" fill-opacity=".2" style="mix-blend-mode:multiply"/><path d="M139.009 86.468a.393.393 0 0 1-.092-.17l-3.274-6.025 1.336-13.423-1.336-7.8-3.212 1.261-14.403-.652-25.184-2.549 45.208.677c.918 9.353.199 26.513.865 28.51l.092.171Z" fill="#fff" style="mix-blend-mode:soft-light"/></g><defs><linearGradient id="c" x1="59.477" y1="62.319" x2="167.292" y2="120.041" gradientUnits="userSpaceOnUse"><stop stop-color="#00057B"/><stop offset=".279" stop-opacity=".01"/><stop offset=".398" stop-color="#00023E"/><stop offset=".521" stop-opacity="0"/><stop offset=".755" stop-color="#000239"/></linearGradient><linearGradient id="d" x1="98.754" y1="59.503" x2="120.229" y2="143.379" gradientUnits="userSpaceOnUse"><stop stop-color="#00057B"/><stop offset=".279" stop-opacity=".01"/><stop offset=".398" stop-color="#00023E"/><stop offset=".521" stop-opacity="0"/><stop offset=".755" stop-color="#000239"/></linearGradient><linearGradient id="e" x1="104.353" y1="76.174" x2="103.206" y2="124.829" gradientUnits="userSpaceOnUse"><stop stop-color="#00057B"/><stop offset=".279" stop-opacity=".01"/><stop offset=".398" stop-color="#00023E"/><stop offset=".521" stop-opacity="0"/><stop offset=".755" stop-color="#000239"/></linearGradient><linearGradient id="f" x1="140.158" y1="142.569" x2="53.312" y2="55.722" gradientUnits="userSpaceOnUse"><stop stop-color="#ECA9E5"/><stop offset=".5" stop-color="#CAEFF4"/><stop offset="1" stop-color="#D581CC"/></linearGradient><linearGradient id="g" x1="59.403" y1="145.386" x2="75.826" y2="127.302" gradientUnits="userSpaceOnUse"><stop stop-color="#B1EAEE"/><stop offset="1" stop-color="#79C4C9" stop-opacity="0"/></linearGradient><linearGradient id="h" x1="79.497" y1="139.402" x2="78.627" y2="145.944" gradientUnits="userSpaceOnUse"><stop stop-color="#B1EAEE"/><stop offset="1" stop-color="#79C4C9" stop-opacity="0"/></linearGradient><linearGradient id="i" x1="60.499" y1="102.828" x2="59.913" y2="107.648" gradientUnits="userSpaceOnUse"><stop stop-color="#B1EAEE"/><stop offset="1" stop-color="#79C4C9" stop-opacity="0"/></linearGradient><linearGradient id="j" x1="81.743" y1="141.498" x2="81.447" y2="144.017" gradientUnits="userSpaceOnUse"><stop stop-color="#B1EAEE"/><stop offset="1" stop-color="#79C4C9" stop-opacity="0"/></linearGradient><linearGradient id="k" x1="92.103" y1="134.4" x2="91.35" y2="142.67" gradientUnits="userSpaceOnUse"><stop stop-color="#B1EAEE"/><stop offset="1" stop-color="#79C4C9" stop-opacity="0"/></linearGradient><linearGradient id="l" x1="56.14" y1="129.857" x2="65.756" y2="122.033" gradientUnits="userSpaceOnUse"><stop stop-color="#B1EAEE"/><stop offset="1" stop-color="#79C4C9" stop-opacity="0"/></linearGradient><linearGradient id="m" x1="132.819" y1="53.276" x2="116.721" y2="71.65" gradientUnits="userSpaceOnUse"><stop stop-color="#B1EAEE"/><stop offset="1" stop-color="#79C4C9" stop-opacity="0"/></linearGradient><linearGradient id="n" x1="126.703" y1="59.596" x2="125.832" y2="66.138" gradientUnits="userSpaceOnUse"><stop stop-color="#B1EAEE"/><stop offset="1" stop-color="#79C4C9" stop-opacity="0"/></linearGradient><linearGradient id="o" x1="136.694" y1="79.254" x2="136.109" y2="84.074" gradientUnits="userSpaceOnUse"><stop stop-color="#B1EAEE"/><stop offset="1" stop-color="#79C4C9" stop-opacity="0"/></linearGradient><linearGradient id="p" x1="136.71" y1="79.924" x2="136.414" y2="82.443" gradientUnits="userSpaceOnUse"><stop stop-color="#B1EAEE"/><stop offset="1" stop-color="#79C4C9" stop-opacity="0"/></linearGradient><linearGradient id="q" x1="114.687" y1="62.819" x2="109.905" y2="56.029" gradientUnits="userSpaceOnUse"><stop stop-color="#B1EAEE"/><stop offset="1" stop-color="#79C4C9" stop-opacity="0"/></linearGradient><linearGradient id="r" x1="130.738" y1="69.091" x2="128.477" y2="81.279" gradientUnits="userSpaceOnUse"><stop stop-color="#B1EAEE"/><stop offset="1" stop-color="#79C4C9" stop-opacity="0"/></linearGradient><radialGradient id="b" cx="0" cy="0" r="1" gradientUnits="userSpaceOnUse" gradientTransform="rotate(-23.726 279.074 -186.914) scale(112.138 118.776)"><stop stop-color="#3C416A"/><stop offset=".693" stop-color="#220025"/></radialGradient><filter id="a" x="49.303" y="55.722" width="94.855" height="94.901" filterUnits="userSpaceOnUse" color-interpolation-filters="sRGB"><feFlood flood-opacity="0" result="BackgroundImageFix"/><feColorMatrix in="SourceAlpha" values="0 0 0 0 0 0 0 0 0 0 0 0 0 0 0 0 0 0 127 0" result="hardAlpha"/><feOffset dy="4"/><feGaussianBlur stdDeviation="2"/><feComposite in2="hardAlpha" operator="out"/><feColorMatrix values="0 0 0 0 0 0 0 0 0 0 0 0 0 0 0 0 0 0 0.25 0"/><feBlend in2="BackgroundImageFix" result="effect1_dropShadow_768_10920"/><feBlend in="SourceGraphic" in2="effect1_dropShadow_768_10920" result="shape"/></filter></defs></svg>