<svg width="127" height="135" fill="none" xmlns="http://www.w3.org/2000/svg"><g filter="url(#a)"><path d="m111.719 35.535-48.594 84.168L14.53 35.535h97.189Z" fill="url(#b)" stroke="url(#c)" stroke-width="6.8"/><path d="m97.334 35.5 9.528.872.473 4.631-1.317 10.412-8.548 4.491-14.185-11.922 14.049-8.485Z" fill="url(#d)" style="mix-blend-mode:soft-light"/><path d="m91.636 48.437 10.221 2.576.391 3.785-.819 4.842-10.363-.329.57-10.874Z" fill="url(#e)" style="mix-blend-mode:soft-light"/><path d="m89.267 35.922-2.66 4.136-4.47 2.03-1.519-4.047 1.007-3.284 4.932-2.281 2.71 3.446Z" fill="url(#f)" style="mix-blend-mode:soft-light"/><path d="M113.756 34.097c-3.523 10.965-18.166 30.328-17.327 31.145l-3.951-1.277 14.63-18.415-3.012-.488 3.884-9.701-9.877 2.83-27.162-4.784 42.815.69Z" fill="#fff" style="mix-blend-mode:soft-light"/><path d="M70.555 58.18c.09.047-1.718 2.965-1.06 4.55l-.097 3.077-6.295 9.493-4.412-6.125-2.613-5.215-1.113-5.78 6.375 3.37c1.398.693 9.125-3.418 9.215-3.37Z" stroke="url(#g)" stroke-width=".972"/><path d="M41.517 48.904c-.196.103 4.872 6.958 3.447 10.396l4.126 9.25 13.5 21 8.858-18.288 5.666-11.31 6.226-10.277L63.775 52.8c-3.032 1.502-22.062-4-22.258-3.896Z" stroke="url(#h)" stroke-width=".972"/><path d="M94.957 42.978c.332.175-9.918 6.697-7.512 12.501l-4.261 9.946-19.141 36.078-16.154-22.428-9.567-19.095-4.589-17.965 23.147 1.841c5.118 2.535 37.746-1.052 38.077-.878Z" stroke="url(#i)" stroke-width=".972"/><path d="m49.343 98.475-6.696-6.835 2.64-3.835 7.745-7.083 9.422 2.114 3.089 18.27-16.2-2.631Z" fill="url(#j)" style="mix-blend-mode:multiply"/><path transform="rotate(-70.255 51.72 105.801)" fill="url(#k)" style="mix-blend-mode:multiply" d="M51.72 105.801h5.762v5.798H51.72z"/><path transform="rotate(-14.15 36.084 75.456)" fill="url(#l)" style="mix-blend-mode:multiply" d="M36.084 75.456h4.638v4.26h-4.638z"/><path d="m55.575 106.611 4.704-1.43 4.723 1.348-1.464 4.067-2.894 1.851-5.236-1.455.167-4.381Z" fill="url(#m)" style="mix-blend-mode:multiply"/><path d="m46.497 90.676-6.121-8.582 2.153-3.137 3.76-3.16 7.684 6.962-7.476 7.917Z" fill="url(#n)" style="mix-blend-mode:multiply"/></g><defs><linearGradient id="c" x1="63.125" y1="126.503" x2="63.125" y2=".679" gradientUnits="userSpaceOnUse"><stop stop-color="#ECA9E5"/><stop offset=".5" stop-color="#CAEFF4"/><stop offset="1" stop-color="#D581CC"/></linearGradient><linearGradient id="d" x1="101.289" y1="31.577" x2="83.748" y2="51.596" gradientUnits="userSpaceOnUse"><stop stop-color="#B1EAEE"/><stop offset="1" stop-color="#79C4C9" stop-opacity="0"/></linearGradient><linearGradient id="e" x1="95.42" y1="48.211" x2="92.957" y2="61.491" gradientUnits="userSpaceOnUse"><stop stop-color="#B1EAEE"/><stop offset="1" stop-color="#79C4C9" stop-opacity="0"/></linearGradient><linearGradient id="f" x1="88.004" y1="39.224" x2="82.794" y2="31.826" gradientUnits="userSpaceOnUse"><stop stop-color="#B1EAEE"/><stop offset="1" stop-color="#79C4C9" stop-opacity="0"/></linearGradient><linearGradient id="g" x1="67.227" y1="74.434" x2="51.101" y2="51.648" gradientUnits="userSpaceOnUse"><stop stop-color="#00057B"/><stop offset=".279" stop-opacity=".01"/><stop offset=".398" stop-color="#00023E"/><stop offset=".521" stop-opacity="0"/><stop offset=".755" stop-color="#000239"/></linearGradient><linearGradient id="h" x1="52.938" y1="82.668" x2="87.911" y2="33.25" gradientUnits="userSpaceOnUse"><stop stop-color="#00057B"/><stop offset=".279" stop-opacity=".01"/><stop offset=".398" stop-color="#00023E"/><stop offset=".521" stop-opacity="0"/><stop offset=".755" stop-color="#000239"/></linearGradient><linearGradient id="i" x1="79.143" y1="98.334" x2="20.096" y2="14.899" gradientUnits="userSpaceOnUse"><stop stop-color="#00057B"/><stop offset=".279" stop-opacity=".01"/><stop offset=".398" stop-color="#00023E"/><stop offset=".521" stop-opacity="0"/><stop offset=".755" stop-color="#000239"/></linearGradient><linearGradient id="j" x1="43.789" y1="98.902" x2="70.119" y2="95.005" gradientUnits="userSpaceOnUse"><stop stop-color="#B1EAEE"/><stop offset="1" stop-color="#79C4C9" stop-opacity="0"/></linearGradient><linearGradient id="k" x1="53.706" y1="105.575" x2="52.757" y2="112.703" gradientUnits="userSpaceOnUse"><stop stop-color="#B1EAEE"/><stop offset="1" stop-color="#79C4C9" stop-opacity="0"/></linearGradient><linearGradient id="l" x1="37.682" y1="75.29" x2="37.044" y2="80.542" gradientUnits="userSpaceOnUse"><stop stop-color="#B1EAEE"/><stop offset="1" stop-color="#79C4C9" stop-opacity="0"/></linearGradient><linearGradient id="m" x1="58.675" y1="104.912" x2="57.855" y2="113.923" gradientUnits="userSpaceOnUse"><stop stop-color="#B1EAEE"/><stop offset="1" stop-color="#79C4C9" stop-opacity="0"/></linearGradient><linearGradient id="n" x1="43.467" y1="88.397" x2="53.944" y2="79.873" gradientUnits="userSpaceOnUse"><stop stop-color="#B1EAEE"/><stop offset="1" stop-color="#79C4C9" stop-opacity="0"/></linearGradient><radialGradient id="b" cx="0" cy="0" r="1" gradientUnits="userSpaceOnUse" gradientTransform="rotate(-89.197 62.069 -.762) scale(136.622 141.069)"><stop stop-color="#3C416A"/><stop offset=".693" stop-color="#220025"/></radialGradient><filter id="a" x="4.641" y="32.135" width="116.967" height="102.368" filterUnits="userSpaceOnUse" color-interpolation-filters="sRGB"><feFlood flood-opacity="0" result="BackgroundImageFix"/><feColorMatrix in="SourceAlpha" values="0 0 0 0 0 0 0 0 0 0 0 0 0 0 0 0 0 0 127 0" result="hardAlpha"/><feOffset dy="4"/><feGaussianBlur stdDeviation="2"/><feComposite in2="hardAlpha" operator="out"/><feColorMatrix values="0 0 0 0 0 0 0 0 0 0 0 0 0 0 0 0 0 0 0.25 0"/><feBlend in2="BackgroundImageFix" result="effect1_dropShadow_768_10886"/><feBlend in="SourceGraphic" in2="effect1_dropShadow_768_10886" result="shape"/></filter></defs></svg>