<svg width="28" height="34" fill="none" xmlns="http://www.w3.org/2000/svg"><path d="M1.6 24.9.4 9.9l12-9.1L27.1 8l-1.4 15.6-10 9.3L1.6 25Z" fill="url(#a)"/><path d="m1.4 10.7 4.7-4.1-2.7 5.9 2 3.6 6.4-2.5 2.8 6-3.7 4.3h-4l9.5 3.6-.9 4.6-13-7.6-1.1-13.8Z" fill="#D26DB3" style="mix-blend-mode:multiply"/><path d="m20 18.9-6.3-.6-5.2-1 7-.9 4-.5.5 3Z" fill="#E9FFFC"/><path d="m14.7 10.7-4.8 2.5-4 4.3 5.3 4.9 3.1.8-2.4-1.8-3.3-4.2 6-6.5Z" fill="#E9FFFC"/><defs><linearGradient id="a" x1="13.8" y1=".8" x2="13.8" y2="33" gradientUnits="userSpaceOnUse"><stop stop-color="#7C13A4"/><stop offset="1" stop-color="#59128A"/></linearGradient></defs></svg>