<svg width="376" height="813" fill="none" xmlns="http://www.w3.org/2000/svg"><path fill="url(#a)" d="M-6-12h398v848H-6z"/><path d="m15 568 142 256h77c20-35 64-112 73-133 12-26 37-76 51-111s12-29 12-85c0-55 5-92 7-150 3-58-1-45-7-75-5-30-6 0-12 0-5 0-23 58-26 49s-2-19-9-58 2-43 2-68c-3 16-14 31-16 41s-3 82-15 93c7-30-4-42-8-93-4-69 2-95 2-103 0-7-12-44-16-44-5 0-20 57-30 86-11-40-15-122-24-22-1 24-2 46-7 55-3-15-4-51-5-62-2-10-1 3-5-23s4-5-7-70c-23-48-10 27-17 48l-12 40V87c0-18 4-20 0-20s-13-23-20-23-5 21-11 23c-5 1 6 37 6 49 0 3 15 31 8 31-2 0-18-45-8 20 8 53-8 62-10 60v-60c0-29-9 40-9 42 0 14-3-16-7-31-3-12-3-45 0-47 2-9-3-27-6-27-5 0-7 18-9 27-2 8-6 28-6 42 0 11 1 44 3 64l-11-25c-4-7-6-17-6-39s7-43 0-34c-5 6-9 3-10 0-2 15-4 51-4 79v91c0-9-10-36-15-48l-4-43 4-59-10 19-6 71v38l6 22-6 44-4-8-8-26-7-233L1 346l14 222Z" fill="url(#b)"/><path d="m41 699 125 163h68l66-85 45-71c12-22 10-18 10-54 0-35 5-58 7-95s-2-29-7-48-5 0-10 0-21 37-23 31c-3-5-2-12-8-37-7-24 0-27 0-43-3 10-41 74-41 80 0 7-11 22-21 17s10-23 21-66 7-65 7-70-8-28-12-28-17 0-27 7c-11 8 0 32 0 47-1 16-29 56-34 62-4 6-4-26 0-33 5-7 0-21-4-38-3-16 6-27-4-68-20-31-9 17-15 30l-10 26v-33c0-12 3-13 0-13h-28c-5 0 9 24 5 31-4 6 0 10 4 27 5 17 0 48-4 90-3 34-7 39-8 38v-38c0-19-7-47-7-56s0-12-4-22c-3-7 1-11 4-12 1-6 3-17 0-17h-21c4 4-5 17-5 26l5 49-12-24c-4-4-6-11-6-25s6-27 0-21c-4 4-8 1-9 0-1 9-4 32-4 50v58c0-6-8-23-12-31l-4-27 4-38-10 12-5 46v24l5 14-5 28-4-5-6-17-6-64-13 166 13 57Z" fill="url(#c)"/><path d="m55 196-1-4h10l-4 5-5-1Z" fill="url(#d)" style="mix-blend-mode:soft-light"/><path d="m285 78 6 3-10 10-1-9 5-4Z" fill="url(#e)" style="mix-blend-mode:soft-light"/><path d="m356 172 3 4-12 3 3-7h6Z" fill="url(#f)" style="mix-blend-mode:soft-light"/><path d="m86 160-6-2 9-10 2 8-5 4Z" fill="url(#g)" style="mix-blend-mode:soft-light"/><path d="m243 34 7-3 2 18-10-6 1-9Z" fill="url(#h)" style="mix-blend-mode:soft-light"/><path d="m336 136 9 5-11 11-5-12 7-4Z" fill="url(#i)" style="mix-blend-mode:soft-light"/><path d="m375 130 2 6-8 1 1-7h5Z" fill="url(#j)" style="mix-blend-mode:soft-light"/><path d="m128 139 2-4 5 4-5 3-2-3Z" fill="url(#k)" style="mix-blend-mode:soft-light"/><path d="m358 198 2 2-4 2v-3l2-1Z" fill="url(#l)" style="mix-blend-mode:soft-light"/><path d="m212 143 2 5-8 2 1-7h5Z" fill="url(#m)" style="mix-blend-mode:soft-light"/><path d="m333 67 3 5-9 1 2-7 4 1Z" fill="url(#n)" style="mix-blend-mode:soft-light"/><path d="M66 107v-7l7-4 7 4-5 7h-9Z" fill="url(#o)" style="mix-blend-mode:soft-light"/><path d="M-6 174H4l7 11-7 11-10-9v-13Z" fill="url(#p)" style="mix-blend-mode:soft-light"/><path d="M346 126v-10l11-7 11 7-8 10h-14Z" fill="url(#q)" style="mix-blend-mode:soft-light"/><path d="m345 80 6 6-2 11-11 4-1-12 8-9Z" fill="url(#r)" style="mix-blend-mode:soft-light"/><path d="m297 55 5 5-2 8-8 2-1-8 6-7Z" fill="url(#s)" style="mix-blend-mode:soft-light"/><path d="m357 157 4-5h8l3 8-8 2-7-5Z" fill="url(#t)" style="mix-blend-mode:soft-light"/><path d="m91 71 4-6 8 1 4 8-9 2-7-5Z" fill="url(#u)" style="mix-blend-mode:soft-light"/><path d="m348 207 1 5-5 5-6-2 3-7 7-1Z" fill="url(#v)" style="mix-blend-mode:soft-light"/><path d="m347 35 1 7-7 7-9-3 5-9 10-2Z" fill="url(#w)" style="mix-blend-mode:soft-light"/><path d="m42 79-2 5-5 2-4-5 5-4 6 2Z" fill="url(#x)" style="mix-blend-mode:soft-light"/><path d="m15 76-7 3-6-4 2-8 8 2 3 7Z" fill="url(#y)" style="mix-blend-mode:soft-light"/><path d="m216 74-7-2-3-7 7-6 6 7-3 8Z" fill="url(#z)" style="mix-blend-mode:soft-light"/><path d="m88 29 5 7-3 8h-9V34l7-5Z" fill="url(#A)" style="mix-blend-mode:soft-light"/><path d="m50 215-3-3 10-6v8l-7 1Z" fill="url(#B)" style="mix-blend-mode:soft-light"/><path d="M34 59v-7l16 2-6 8-10-3Z" fill="url(#C)" style="mix-blend-mode:soft-light"/><path d="m361 220 5 5-12 10-2-10 9-5Z" fill="url(#D)" style="mix-blend-mode:soft-light"/><path d="m9 143-6-3 9-14 5 10-8 7Z" fill="url(#E)" style="mix-blend-mode:soft-light"/><path d="m255 107 5 5-12 10-2-10 9-5Z" fill="url(#F)" style="mix-blend-mode:soft-light"/><path d="m22 178-6-2 9-14 5 10-8 6Z" fill="url(#G)" style="mix-blend-mode:soft-light"/><path d="m166 42 4-1 5 6h-7l-2-5Z" fill="url(#H)" style="mix-blend-mode:soft-light"/><path d="m131 112-3-1 2-8 4 5-3 4Z" fill="url(#I)" style="mix-blend-mode:soft-light"/><path d="m76 70-3 2-5-5 6-1 2 4Z" fill="url(#J)" style="mix-blend-mode:soft-light"/><path d="m127 169-3-1 2-8 4 5-3 4Z" fill="url(#K)" style="mix-blend-mode:soft-light"/><path d="m214 189-4-2 3-8 4 6-3 4Z" fill="url(#L)" style="mix-blend-mode:soft-light"/><path d="m299 111 5-2 6 10-9-1-2-7Z" fill="url(#M)" style="mix-blend-mode:soft-light"/><path d="M118 185v-3l8 2-4 4-4-3Z" fill="url(#N)" style="mix-blend-mode:soft-light"/><path d="m230 42 1 3h-9l3-5 5 2Z" fill="url(#O)" style="mix-blend-mode:soft-light"/><path d="m178 95-2 3-6-5 5-2 3 4Z" fill="url(#P)" style="mix-blend-mode:soft-light"/><path d="M288 115h-2v-6l3 2-1 4Z" fill="url(#Q)" style="mix-blend-mode:soft-light"/><path d="M324 187v5l-11-1 4-6 7 2Z" fill="url(#R)" style="mix-blend-mode:soft-light"/><path d="m42 116-2-4 9-2-2 6h-5Z" fill="url(#S)" style="mix-blend-mode:soft-light"/><path d="m133 220-3-2 5-6 2 5-4 3Z" fill="url(#T)" style="mix-blend-mode:soft-light"/><path d="m119 38 3 1-3 8-3-4 3-5Z" fill="url(#U)" style="mix-blend-mode:soft-light"/><path d="m308 155 5-1 2 11-7-2v-8Z" fill="url(#V)" style="mix-blend-mode:soft-light"/><path d="M175 67v3h-8l3-5 5 2Z" fill="url(#W)" style="mix-blend-mode:soft-light"/><path d="M247 149v3h-8l3-4 5 1Z" fill="url(#X)" style="mix-blend-mode:soft-light"/><path d="m308 205 3 4-10 6v-8l7-2Z" fill="url(#Y)" style="mix-blend-mode:soft-light"/><path d="m35 136-3-2 6-6 1 6-4 2Z" fill="url(#Z)" style="mix-blend-mode:soft-light"/><path d="m117 113 2-1 3 4h-4l-1-3Z" fill="url(#aa)" style="mix-blend-mode:soft-light"/><path d="M128 84v5l-11-1 4-6 7 2Z" fill="url(#ab)" style="mix-blend-mode:soft-light"/><path fill="#571C6B" fill-opacity=".6" style="mix-blend-mode:color" d="M1 1h377v816H1z"/><path fill="#65BDC8" fill-opacity=".2" style="mix-blend-mode:color-dodge" d="M1 1h377v816H1z"/><defs><linearGradient id="d" x1="54.6" y1="193.2" x2="62.1" y2="190.3" gradientUnits="userSpaceOnUse"><stop stop-color="#82C3FF"/><stop offset="1" stop-color="#82C3FF" stop-opacity="0"/></linearGradient><linearGradient id="e" x1="288.4" y1="79.8" x2="284.2" y2="90.2" gradientUnits="userSpaceOnUse"><stop stop-color="#82C3FF"/><stop offset="1" stop-color="#82C3FF" stop-opacity="0"/></linearGradient><linearGradient id="f" x1="357.7" y1="174.7" x2="349.6" y2="179.9" gradientUnits="userSpaceOnUse"><stop stop-color="#82C3FF"/><stop offset="1" stop-color="#82C3FF" stop-opacity="0"/></linearGradient><linearGradient id="g" x1="82.5" y1="158.5" x2="86.2" y2="148.7" gradientUnits="userSpaceOnUse"><stop stop-color="#82C3FF"/><stop offset="1" stop-color="#82C3FF" stop-opacity="0"/></linearGradient><linearGradient id="h" x1="247.3" y1="32.3" x2="253.7" y2="45.3" gradientUnits="userSpaceOnUse"><stop stop-color="#82C3FF"/><stop offset="1" stop-color="#82C3FF" stop-opacity="0"/></linearGradient><linearGradient id="i" x1="341" y1="139" x2="334.7" y2="149.8" gradientUnits="userSpaceOnUse"><stop stop-color="#82C3FF"/><stop offset="1" stop-color="#82C3FF" stop-opacity="0"/></linearGradient><linearGradient id="j" x1="376.1" y1="133.5" x2="369.7" y2="136.4" gradientUnits="userSpaceOnUse"><stop stop-color="#82C3FF"/><stop offset="1" stop-color="#82C3FF" stop-opacity="0"/></linearGradient><linearGradient id="k" x1="129.4" y1="136.8" x2="134.1" y2="138.7" gradientUnits="userSpaceOnUse"><stop stop-color="#82C3FF"/><stop offset="1" stop-color="#82C3FF" stop-opacity="0"/></linearGradient><linearGradient id="l" x1="358.9" y1="199.2" x2="356.7" y2="201.9" gradientUnits="userSpaceOnUse"><stop stop-color="#82C3FF"/><stop offset="1" stop-color="#82C3FF" stop-opacity="0"/></linearGradient><linearGradient id="m" x1="212.9" y1="146.4" x2="206.5" y2="149.3" gradientUnits="userSpaceOnUse"><stop stop-color="#82C3FF"/><stop offset="1" stop-color="#82C3FF" stop-opacity="0"/></linearGradient><linearGradient id="n" x1="334.7" y1="69.7" x2="328.3" y2="72.6" gradientUnits="userSpaceOnUse"><stop stop-color="#82C3FF"/><stop offset="1" stop-color="#82C3FF" stop-opacity="0"/></linearGradient><linearGradient id="o" x1="67.1" y1="99.5" x2="78.3" y2="96.7" gradientUnits="userSpaceOnUse"><stop stop-color="#82C3FF"/><stop offset="1" stop-color="#82C3FF" stop-opacity="0"/></linearGradient><linearGradient id="p" x1="5.5" y1="175.4" x2="9.6" y2="192.7" gradientUnits="userSpaceOnUse"><stop stop-color="#82C3FF"/><stop offset="1" stop-color="#82C3FF" stop-opacity="0"/></linearGradient><linearGradient id="q" x1="347.5" y1="114.5" x2="365.2" y2="110.1" gradientUnits="userSpaceOnUse"><stop stop-color="#82C3FF"/><stop offset="1" stop-color="#82C3FF" stop-opacity="0"/></linearGradient><linearGradient id="r" x1="351.3" y1="87.8" x2="343.4" y2="102" gradientUnits="userSpaceOnUse"><stop stop-color="#82C3FF"/><stop offset="1" stop-color="#82C3FF" stop-opacity="0"/></linearGradient><linearGradient id="s" x1="301.6" y1="61" x2="295.8" y2="71.6" gradientUnits="userSpaceOnUse"><stop stop-color="#82C3FF"/><stop offset="1" stop-color="#82C3FF" stop-opacity="0"/></linearGradient><linearGradient id="t" x1="362" y1="151.5" x2="372.8" y2="155.7" gradientUnits="userSpaceOnUse"><stop stop-color="#82C3FF"/><stop offset="1" stop-color="#82C3FF" stop-opacity="0"/></linearGradient><linearGradient id="u" x1="96.3" y1="65.3" x2="107.1" y2="69.5" gradientUnits="userSpaceOnUse"><stop stop-color="#82C3FF"/><stop offset="1" stop-color="#82C3FF" stop-opacity="0"/></linearGradient><linearGradient id="v" x1="348.8" y1="213" x2="340.1" y2="217.2" gradientUnits="userSpaceOnUse"><stop stop-color="#82C3FF"/><stop offset="1" stop-color="#82C3FF" stop-opacity="0"/></linearGradient><linearGradient id="w" x1="347.5" y1="43.5" x2="334.7" y2="49.7" gradientUnits="userSpaceOnUse"><stop stop-color="#82C3FF"/><stop offset="1" stop-color="#82C3FF" stop-opacity="0"/></linearGradient><linearGradient id="x" x1="39.3" y1="84.2" x2="31.4" y2="83.4" gradientUnits="userSpaceOnUse"><stop stop-color="#82C3FF"/><stop offset="1" stop-color="#82C3FF" stop-opacity="0"/></linearGradient><linearGradient id="y" x1="7" y1="78.2" x2="2" y2="69.5" gradientUnits="userSpaceOnUse"><stop stop-color="#82C3FF"/><stop offset="1" stop-color="#82C3FF" stop-opacity="0"/></linearGradient><linearGradient id="z" x1="208.3" y1="71.1" x2="209.2" y2="60" gradientUnits="userSpaceOnUse"><stop stop-color="#82C3FF"/><stop offset="1" stop-color="#82C3FF" stop-opacity="0"/></linearGradient><linearGradient id="A" x1="92.6" y1="37.3" x2="84.2" y2="46.2" gradientUnits="userSpaceOnUse"><stop stop-color="#82C3FF"/><stop offset="1" stop-color="#82C3FF" stop-opacity="0"/></linearGradient><linearGradient id="B" x1="47.5" y1="209" x2="55.6" y2="207.4" gradientUnits="userSpaceOnUse"><stop stop-color="#82C3FF"/><stop offset="1" stop-color="#82C3FF" stop-opacity="0"/></linearGradient><linearGradient id="C" x1="36.9" y1="49.8" x2="47.4" y2="54.5" gradientUnits="userSpaceOnUse"><stop stop-color="#82C3FF"/><stop offset="1" stop-color="#82C3FF" stop-opacity="0"/></linearGradient><linearGradient id="D" x1="365.9" y1="228.6" x2="355.3" y2="233.1" gradientUnits="userSpaceOnUse"><stop stop-color="#82C3FF"/><stop offset="1" stop-color="#82C3FF" stop-opacity="0"/></linearGradient><linearGradient id="E" x1="1.8" y1="135.9" x2="11.4" y2="128.4" gradientUnits="userSpaceOnUse"><stop stop-color="#82C3FF"/><stop offset="1" stop-color="#82C3FF" stop-opacity="0"/></linearGradient><linearGradient id="F" x1="260.2" y1="115.7" x2="249.5" y2="120.2" gradientUnits="userSpaceOnUse"><stop stop-color="#82C3FF"/><stop offset="1" stop-color="#82C3FF" stop-opacity="0"/></linearGradient><linearGradient id="G" x1="15.2" y1="171.8" x2="24.3" y2="164.7" gradientUnits="userSpaceOnUse"><stop stop-color="#82C3FF"/><stop offset="1" stop-color="#82C3FF" stop-opacity="0"/></linearGradient><linearGradient id="H" x1="172.6" y1="41.1" x2="172.9" y2="46.5" gradientUnits="userSpaceOnUse"><stop stop-color="#82C3FF"/><stop offset="1" stop-color="#82C3FF" stop-opacity="0"/></linearGradient><linearGradient id="I" x1="126.8" y1="108.3" x2="130.7" y2="104.6" gradientUnits="userSpaceOnUse"><stop stop-color="#82C3FF"/><stop offset="1" stop-color="#82C3FF" stop-opacity="0"/></linearGradient><linearGradient id="J" x1="71" y1="71.8" x2="69.8" y2="67.5" gradientUnits="userSpaceOnUse"><stop stop-color="#82C3FF"/><stop offset="1" stop-color="#82C3FF" stop-opacity="0"/></linearGradient><linearGradient id="K" x1="122.8" y1="165.4" x2="126.7" y2="161.7" gradientUnits="userSpaceOnUse"><stop stop-color="#82C3FF"/><stop offset="1" stop-color="#82C3FF" stop-opacity="0"/></linearGradient><linearGradient id="L" x1="209.4" y1="184.6" x2="213.4" y2="180.9" gradientUnits="userSpaceOnUse"><stop stop-color="#82C3FF"/><stop offset="1" stop-color="#82C3FF" stop-opacity="0"/></linearGradient><linearGradient id="M" x1="307.6" y1="110.4" x2="307.6" y2="117.9" gradientUnits="userSpaceOnUse"><stop stop-color="#82C3FF"/><stop offset="1" stop-color="#82C3FF" stop-opacity="0"/></linearGradient><linearGradient id="N" x1="119.9" y1="180.6" x2="124.7" y2="184.1" gradientUnits="userSpaceOnUse"><stop stop-color="#82C3FF"/><stop offset="1" stop-color="#82C3FF" stop-opacity="0"/></linearGradient><linearGradient id="O" x1="229.2" y1="46.5" x2="223.7" y2="44.4" gradientUnits="userSpaceOnUse"><stop stop-color="#82C3FF"/><stop offset="1" stop-color="#82C3FF" stop-opacity="0"/></linearGradient><linearGradient id="P" x1="174.4" y1="98" x2="171.1" y2="93.1" gradientUnits="userSpaceOnUse"><stop stop-color="#82C3FF"/><stop offset="1" stop-color="#82C3FF" stop-opacity="0"/></linearGradient><linearGradient id="Q" x1="284.9" y1="114.3" x2="286.3" y2="110.1" gradientUnits="userSpaceOnUse"><stop stop-color="#82C3FF"/><stop offset="1" stop-color="#82C3FF" stop-opacity="0"/></linearGradient><linearGradient id="R" x1="321.7" y1="193.7" x2="314.3" y2="190.3" gradientUnits="userSpaceOnUse"><stop stop-color="#82C3FF"/><stop offset="1" stop-color="#82C3FF" stop-opacity="0"/></linearGradient><linearGradient id="S" x1="41.7" y1="110.2" x2="48.2" y2="111.2" gradientUnits="userSpaceOnUse"><stop stop-color="#82C3FF"/><stop offset="1" stop-color="#82C3FF" stop-opacity="0"/></linearGradient><linearGradient id="T" x1="129.7" y1="216.6" x2="134.5" y2="213.1" gradientUnits="userSpaceOnUse"><stop stop-color="#82C3FF"/><stop offset="1" stop-color="#82C3FF" stop-opacity="0"/></linearGradient><linearGradient id="U" x1="123.1" y1="41" x2="119.4" y2="45.6" gradientUnits="userSpaceOnUse"><stop stop-color="#82C3FF"/><stop offset="1" stop-color="#82C3FF" stop-opacity="0"/></linearGradient><linearGradient id="V" x1="315.2" y1="155.4" x2="314.1" y2="163.5" gradientUnits="userSpaceOnUse"><stop stop-color="#82C3FF"/><stop offset="1" stop-color="#82C3FF" stop-opacity="0"/></linearGradient><linearGradient id="W" x1="174" y1="71.4" x2="168.5" y2="69.3" gradientUnits="userSpaceOnUse"><stop stop-color="#82C3FF"/><stop offset="1" stop-color="#82C3FF" stop-opacity="0"/></linearGradient><linearGradient id="X" x1="245.5" y1="153.8" x2="240" y2="151.7" gradientUnits="userSpaceOnUse"><stop stop-color="#82C3FF"/><stop offset="1" stop-color="#82C3FF" stop-opacity="0"/></linearGradient><linearGradient id="Y" x1="310.5" y1="211.8" x2="302.4" y2="213.4" gradientUnits="userSpaceOnUse"><stop stop-color="#82C3FF"/><stop offset="1" stop-color="#82C3FF" stop-opacity="0"/></linearGradient><linearGradient id="Z" x1="31.9" y1="132.2" x2="37.1" y2="129.7" gradientUnits="userSpaceOnUse"><stop stop-color="#82C3FF"/><stop offset="1" stop-color="#82C3FF" stop-opacity="0"/></linearGradient><linearGradient id="aa" x1="119.9" y1="111.7" x2="121.1" y2="115.3" gradientUnits="userSpaceOnUse"><stop stop-color="#82C3FF"/><stop offset="1" stop-color="#82C3FF" stop-opacity="0"/></linearGradient><linearGradient id="ab" x1="126" y1="90.7" x2="118.5" y2="87.3" gradientUnits="userSpaceOnUse"><stop stop-color="#82C3FF"/><stop offset="1" stop-color="#82C3FF" stop-opacity="0"/></linearGradient><radialGradient id="a" cx="0" cy="0" r="1" gradientUnits="userSpaceOnUse" gradientTransform="matrix(-9.99975 -360.00014 357.2842 -9.92431 198 354)"><stop stop-color="#110F49"/><stop offset=".9" stop-color="#000310"/></radialGradient><radialGradient id="b" cx="0" cy="0" r="1" gradientUnits="userSpaceOnUse" gradientTransform="matrix(8.50013 691.85579 -330.81603 4.0644 176 35)"><stop offset=".1" stop-color="#07002F"/><stop offset="1" stop-color="#050025"/></radialGradient><radialGradient id="c" cx="0" cy="0" r="1" gradientUnits="userSpaceOnUse" gradientTransform="matrix(7.54413 501.40825 -333.9432 5.02447 188 437)"><stop stop-color="#060438"/><stop offset="1"/></radialGradient></defs></svg>