<svg width="376" height="813" fill="none" xmlns="http://www.w3.org/2000/svg"><path fill="url(#a)" d="M-6-12h398v848H-6z"/><path d="m-64 475 204 349h112c30-48 93-153 107-182 17-35 53-104 74-152 20-47 17-38 17-114s7-126 10-205c4-80-2-62-10-103s-9 0-17 0-34 80-38 67c-5-12-3-26-13-79s3-59 3-92c-5 21-21 41-24 55-2 14-4 111-22 126 11-40-5-56-11-126-6-94 3-129 3-140s-17-60-24-60-28 78-43 117c-16-55-22-166-34-31-2 34-3 63-11 75-5-20-5-68-8-83l-6-32c-6-35 6-7-11-96-33-65-14 38-24 66l-17 55v-71c0-25 6-28 0-28s-19-31-30-31c-10 0-7 29-15 31-8 1 8 51 8 67 0 4 22 42 12 42-4 0-26-60-12 28 11 72-11 84-14 81v-81c0-41-13 54-13 57 0 19-5-21-10-42-5-17-4-62 0-64 2-12-4-37-10-37-7 0-10 25-13 37-2 11-8 37-8 57 0 15 1 59 4 88L37-11c-6-9-9-23-9-53s10-59 0-46c-7 8-13 3-15 0C11-90 7-41 7-3v124c0-11-14-48-21-65l-6-59 6-81-15 27-9 97v51l9 30-9 60-6-10-10-36-10-318-21 355 21 303Z" fill="url(#b)"/><path d="m-33 522 24 290 455 19c27-40-29-148-16-171 15-29-28-87-10-125 19-39 16-32 16-93s7-101 10-166c3-64-2-50-10-82-7-33-8 0-16 0-7 0-30 64-34 54s-2-22-12-64c-9-43 0-48 0-75-4 17-23 40-23 51 0 12-1 49-20 68 4-36 3-74-1-91l-6-96c0-9-12-49-18-49s-2-2-18 11c-15 13-26 24-27 51-1 28-3 57-10 67-11-23-23-78-17-89-18 17-13 35-27 59 0-40 11-67-4-139-31-53-14 30-22 53l-16 44V-8c0-20 5-23 0-23h-41c-7 2 34 25 28 36-6 12-14-1-8 29-10-5-8-36-14 37-2 17-2 32-8 53-2-22-2-11-2-38 0-32-13-64-13-80s0 77-5 60c-4-14-5-35-2-37 2-10 3-19-2-19-6 0-7-11-18-11 7 8-11 72-11 87 0 13 5 62 8 85-4-12-14-36-18-42-5-7-8-18-8-43 0-24 9-47 0-37-6 7-12 3-14 0-2 17-5 57-5 87v100c0-9-13-39-19-52l-6-48 6-65-14 21-8 79v41l8 24-8 49-6-9-9-28-9-112-19 287 19 99Z" fill="url(#c)"/><path fill="#571C6B" fill-opacity=".6" style="mix-blend-mode:color" d="M1 1h377v816H1z"/><path fill="#65BDC8" fill-opacity=".2" style="mix-blend-mode:color-dodge" d="M1 1h377v816H1z"/><defs><radialGradient id="a" cx="0" cy="0" r="1" gradientUnits="userSpaceOnUse" gradientTransform="matrix(-9.99975 -360.00014 357.2842 -9.92431 198 354)"><stop stop-color="#110F49"/><stop offset=".9" stop-color="#000310"/></radialGradient><radialGradient id="b" cx="0" cy="0" r="1" gradientUnits="userSpaceOnUse" gradientTransform="matrix(12.32549 943.68351 -479.68909 6.26524 169 -252)"><stop offset=".1" stop-color="#07002F"/><stop offset="1" stop-color="#050025"/></radialGradient><radialGradient id="c" cx="0" cy="0" r="1" gradientUnits="userSpaceOnUse" gradientTransform="matrix(11.25603 868.06703 -498.25611 6.46078 186 68)"><stop stop-color="#060358"/><stop offset="1"/></radialGradient></defs></svg>