<svg width="199" height="121" viewBox="0 0 199 121" fill="none" xmlns="http://www.w3.org/2000/svg">
<path d="M45.4778 95.2059L44.8398 93.5312H49.1461L47.5512 95.6047L45.4778 95.2059Z" fill="url(#paint0_radial_502_8574)"/>
<path d="M135.104 46.6172L137.418 47.5625L133.316 51.949L132.723 48.3494L135.104 46.6172Z" fill="url(#paint1_radial_502_8574)"/>
<path d="M74.2312 61.4685L74.6758 59.7324L78.1939 62.2158L75.6952 62.9899L74.2312 61.4685Z" fill="url(#paint2_radial_502_8574)"/>
<path d="M159.103 71.7334L160.27 73.5605L155.169 74.6171L156.549 71.7698L159.103 71.7334Z" fill="url(#paint3_radial_502_8574)"/>
<path d="M169.015 85.2873L167.598 85.6914L167.903 82.1627L169.489 83.6166L169.015 85.2873Z" fill="url(#paint4_radial_502_8574)"/>
<path d="M57.5892 103.205L55.2383 102.305L58.7501 98.0882L59.7159 101.538L57.5892 103.205Z" fill="url(#paint5_radial_502_8574)"/>
<path d="M100.266 26.9632L103.422 25.4258L104.372 33.0194L99.9381 30.7176L100.266 26.9632Z" fill="url(#paint6_radial_502_8574)"/>
<path d="M51.5434 81.6239L51.1602 79.9492H53.7469L52.7889 82.0226L51.5434 81.6239Z" fill="url(#paint7_radial_502_8574)"/>
<path d="M147.498 60.6487L151.184 62.793L146.798 67.4825L144.664 62.2307L147.498 60.6487Z" fill="url(#paint8_radial_502_8574)"/>
<path d="M122.064 52.0644L123.629 52.9746L121.767 54.9652L120.861 52.7359L122.064 52.0644Z" fill="url(#paint9_radial_502_8574)"/>
<path d="M71.2106 78.304L71.8633 76.7148L73.9766 78.2066L71.9982 79.348L71.2106 78.304Z" fill="url(#paint10_radial_502_8574)"/>
<path d="M126.292 66.0831L127.289 68.2617L123.756 68.9935L124.478 65.8909L126.292 66.0831Z" fill="url(#paint11_radial_502_8574)"/>
<path d="M178.112 64.0636L179.109 66.2422L175.577 66.9739L176.299 63.8714L178.112 64.0636Z" fill="url(#paint12_radial_502_8574)"/>
<path d="M86.4801 105.165L87.1328 103.576L89.2461 105.068L87.2677 106.209L86.4801 105.165Z" fill="url(#paint13_radial_502_8574)"/>
<path d="M169.152 75.7337L169.805 74.1445L171.918 75.6363L169.94 76.7777L169.152 75.7337Z" fill="url(#paint14_radial_502_8574)"/>
<path d="M161.58 92.2907L162.488 93.0254L161.105 94.1116L160.747 92.6005L161.58 92.2907Z" fill="url(#paint15_radial_502_8574)"/>
<path d="M100.272 74.0441L101.27 76.2227L97.737 76.9544L98.4588 73.8519L100.272 74.0441Z" fill="url(#paint16_radial_502_8574)"/>
<path d="M160.589 37.0558L161.586 39.2344L158.053 39.9661L158.775 36.8636L160.589 37.0558Z" fill="url(#paint17_radial_502_8574)"/>
<path d="M63.0391 86.0855V83.3618L65.9772 81.6074L69.0076 83.3618L66.6949 86.0855H63.0391Z" fill="url(#paint18_radial_502_8574)"/>
<path d="M50.0858 44.7174L54.2698 44.7657L56.9127 49.3104L54.1639 53.9344L50.0209 50.3335L50.0858 44.7174Z" fill="url(#paint19_radial_502_8574)"/>
<path d="M155.57 67.4329V63.1449L160.196 60.3828L164.967 63.1449L161.326 67.4329H155.57Z" fill="url(#paint20_radial_502_8574)"/>
<path d="M152.903 42.2286L155.678 44.823L154.666 49.487L149.992 50.9027L149.421 45.9526L152.903 42.2286Z" fill="url(#paint21_radial_502_8574)"/>
<path d="M144.373 68.9919L146.443 70.9284L145.688 74.4097L142.2 75.4664L141.773 71.7715L144.373 68.9919Z" fill="url(#paint22_radial_502_8574)"/>
<path d="M166.535 68.3557L168.105 66.1306L171.518 66.3916L172.982 69.5725L169.522 70.464L166.535 68.3557Z" fill="url(#paint23_radial_502_8574)"/>
<path d="M161.148 54.9221L162.719 52.697L166.131 52.9581L167.595 56.1389L164.135 57.0304L161.148 54.9221Z" fill="url(#paint24_radial_502_8574)"/>
<path d="M153.696 92.8169L154.159 95.0523L152.046 96.9917L149.26 96.067L150.695 93.4384L153.696 92.8169Z" fill="url(#paint25_radial_502_8574)"/>
<path d="M143.615 25.4169L143.994 27.2458L142.265 28.8325L139.987 28.0759L141.161 25.9254L143.615 25.4169Z" fill="url(#paint26_radial_502_8574)"/>
<path d="M103.197 87.4559L103.83 86.5585L105.206 86.6638L105.797 87.9466L104.401 88.3061L103.197 87.4559Z" fill="url(#paint27_radial_502_8574)"/>
<path d="M118.618 74.8903L119.292 78.1466L116.214 80.9718L112.156 79.6247L114.247 75.7957L118.618 74.8903Z" fill="url(#paint28_radial_502_8574)"/>
<path d="M41.1989 49.5045L40.5148 51.7303L38.1562 52.5746L36.6187 50.5329L38.8124 48.771L41.1989 49.5045Z" fill="url(#paint29_radial_502_8574)"/>
<path d="M38.687 30.4233L35.9289 31.3799L33.328 29.6195L34.2545 26.5521L37.6613 27.4662L38.687 30.4233Z" fill="url(#paint30_radial_502_8574)"/>
<path d="M78.3062 68.0964L79.3697 70.1843L78.2555 72.4457L75.7148 72.0458L76.0675 69.2366L78.3062 68.0964Z" fill="url(#paint31_radial_502_8574)"/>
<path d="M107.174 69.3435L104.065 68.4468L102.835 65.1901L105.635 63.0046L108.136 66.01L107.174 69.3435Z" fill="url(#paint32_radial_502_8574)"/>
<path d="M79.0015 87.1301L81.0106 89.978L79.8033 93.5771L75.9293 93.5626L75.8891 89.3257L79.0015 87.1301Z" fill="url(#paint33_radial_502_8574)"/>
<path d="M124.617 42.7394L122.5 42.4465L121.394 40.3989L123.023 38.6703L124.937 40.4263L124.617 42.7394Z" fill="url(#paint34_radial_502_8574)"/>
<path d="M57.2 90.8274L56.0156 89.2049L60.2422 86.8125V90.0024L57.2 90.8274Z" fill="url(#paint35_radial_502_8574)"/>
<path d="M143.386 39.7255L145.37 39.9674L144.236 44.6662L141.917 42.4978L143.386 39.7255Z" fill="url(#paint36_radial_502_8574)"/>
<path d="M75.0136 55.3532L74.9691 52.55L81.7136 53.2239L79.1463 56.8609L75.0136 55.3532Z" fill="url(#paint37_radial_502_8574)"/>
<path d="M115.325 50.3784L115.885 52.3074L111.097 53.1166L112.183 50.1176L115.325 50.3784Z" fill="url(#paint38_radial_502_8574)"/>
<path d="M135.798 79.2603L137.874 81.1411L132.779 85.6038L131.877 81.2476L135.798 79.2603Z" fill="url(#paint39_radial_502_8574)"/>
<path d="M23.263 69.4282L20.6088 68.0833L24.5782 62.0836L26.7233 66.2936L23.263 69.4282Z" fill="url(#paint40_radial_502_8574)"/>
<path d="M88.1601 83.0646L88.1282 81.0561L92.9608 81.5389L91.1212 84.1449L88.1601 83.0646Z" fill="url(#paint41_radial_502_8574)"/>
<path d="M77.8912 34.7847L78.4518 36.7136L73.6631 37.5228L74.7499 34.5238L77.8912 34.7847Z" fill="url(#paint42_radial_502_8574)"/>
<path d="M132.696 72.1842L134.772 74.0649L129.677 78.5276L128.775 74.1715L132.696 72.1842Z" fill="url(#paint43_radial_502_8574)"/>
<path d="M49.627 30.7216L47.128 29.4552L50.8653 23.8064L52.8849 27.7702L49.627 30.7216Z" fill="url(#paint44_radial_502_8574)"/>
<path d="M61.9126 78.8296L60.231 79.0474L59.0291 75.7364L61.8371 76.7241L61.9126 78.8296Z" fill="url(#paint45_radial_502_8574)"/>
<path d="M89.9391 26.698L91.5036 26.0442L93.5365 28.9208L90.5674 28.7089L89.9391 26.698Z" fill="url(#paint46_radial_502_8574)"/>
<path d="M124.246 29.1902L125.626 27.2697L130.144 29.1993L126.463 31.1187L124.246 29.1902Z" fill="url(#paint47_radial_502_8574)"/>
<path d="M46.5176 75.567L45.6932 77.7835L40.8266 77.1141L43.8707 74.2915L46.5176 75.567Z" fill="url(#paint48_radial_502_8574)"/>
<path d="M82.0272 84.1408L80.5277 83.349L81.4552 79.9509L83.1796 82.3771L82.0272 84.1408Z" fill="url(#paint49_radial_502_8574)"/>
<path d="M83.75 39.669L85.4052 40.0372L85.4071 43.5596L83.1037 41.6742L83.75 39.669Z" fill="url(#paint50_radial_502_8574)"/>
<path d="M125.521 91.9521L127.115 91.4005L128.954 94.3838L126.019 93.9882L125.521 91.9521Z" fill="url(#paint51_radial_502_8574)"/>
<path d="M51.5947 38.5125L50.429 39.3101L48.285 37.3073L50.7425 36.9785L51.5947 38.5125Z" fill="url(#paint52_radial_502_8574)"/>
<path d="M85.5936 97.0646L84.0941 96.2728L85.0216 92.8747L86.746 95.301L85.5936 97.0646Z" fill="url(#paint53_radial_502_8574)"/>
<path d="M76.6719 29.0127L78.3271 29.3809L78.329 32.9033L76.0255 31.018L76.6719 29.0127Z" fill="url(#paint54_radial_502_8574)"/>
<path d="M144.742 55.6444L146.977 54.8712L149.555 59.0528L145.441 58.4983L144.742 55.6444Z" fill="url(#paint55_radial_502_8574)"/>
<path d="M55.1002 64.1365L53.1485 65.4719L49.5586 62.1185L53.6733 61.5681L55.1002 64.1365Z" fill="url(#paint56_radial_502_8574)"/>
<path d="M63.034 94.2504L63.303 92.8528L66.5844 93.888L64.9311 95.4287L63.034 94.2504Z" fill="url(#paint57_radial_502_8574)"/>
<path d="M112.067 33.7115L112.176 35.1305L108.738 34.9978L109.926 33.0754L112.067 33.7115Z" fill="url(#paint58_radial_502_8574)"/>
<path d="M34.0319 72.7701L34.1412 74.1891L30.7029 74.0564L31.8912 72.134L34.0319 72.7701Z" fill="url(#paint59_radial_502_8574)"/>
<path d="M134.137 33.7478L135.305 35.353L131.125 37.7096L131.13 34.5578L134.137 33.7478Z" fill="url(#paint60_radial_502_8574)"/>
<path d="M163.784 83.8445L164.636 85.0156L161.586 86.735L161.59 84.4355L163.784 83.8445Z" fill="url(#paint61_radial_502_8574)"/>
<path d="M148.368 83.4446L147.439 83.7714L146.913 81.4498L148.41 81.9002L148.368 83.4446Z" fill="url(#paint62_radial_502_8574)"/>
<path d="M31.5443 84.5156L29.9947 83.2753L33.4051 79.8993L34.2313 82.9409L31.5443 84.5156Z" fill="url(#paint63_radial_502_8574)"/>
<path d="M63.0058 70.2664L64.0315 69.2797L66.1154 72.0178L63.8762 72.3231L63.0058 70.2664Z" fill="url(#paint64_radial_502_8574)"/>
<path d="M99.0073 55.6821L98.2783 56.9044L95.5458 54.8132L97.6252 53.928L99.0073 55.6821Z" fill="url(#paint65_radial_502_8574)"/>
<path d="M154.599 82.0151L154.621 83.6041L150.799 83.2155L152.258 81.1564L154.599 82.0151Z" fill="url(#paint66_radial_502_8574)"/>
<path d="M166.204 79.4235L165.164 79.1287L166.162 76.7144L167.219 78.0657L166.204 79.4235Z" fill="url(#paint67_radial_502_8574)"/>
<path d="M139.107 59.5346L139.129 61.1236L135.307 60.735L136.766 58.6759L139.107 59.5346Z" fill="url(#paint68_radial_502_8574)"/>
<path d="M141.572 57.5789L140.509 57.699L140.516 55.1135L141.992 55.9543L141.572 57.5789Z" fill="url(#paint69_radial_502_8574)"/>
<path d="M34.5071 68.6064L33.9564 66.6995L38.6894 65.9082L37.6104 68.8695L34.5071 68.6064Z" fill="url(#paint70_radial_502_8574)"/>
<path d="M115.721 64.7313L116.746 63.7446L118.83 66.4826L116.591 66.7879L115.721 64.7313Z" fill="url(#paint71_radial_502_8574)"/>
<path d="M70.1635 45.479L69.4345 46.7013L66.7021 44.6101L68.7815 43.7248L70.1635 45.479Z" fill="url(#paint72_radial_502_8574)"/>
<path d="M141.471 90.1979L141.499 92.1825L136.725 91.6972L138.547 89.1254L141.471 90.1979Z" fill="url(#paint73_radial_502_8574)"/>
<path d="M32.6745 52.2716L32.2307 50.735L36.0446 50.0973L35.1752 52.4836L32.6745 52.2716Z" fill="url(#paint74_radial_502_8574)"/>
<path d="M75.4286 102.709L74.1868 102.013L76.2025 99.2248L77.1443 101.279L75.4286 102.709Z" fill="url(#paint75_radial_502_8574)"/>
<path d="M69.8513 25.1579L71.2325 25.5009L70.0239 28.7225L68.5735 26.9894L69.8513 25.1579Z" fill="url(#paint76_radial_502_8574)"/>
<path d="M165.898 47.6923L167.789 47.0897L168.709 51.7993L165.72 50.8017L165.898 47.6923Z" fill="url(#paint77_radial_502_8574)"/>
<path d="M44.6044 85.768L44.8733 84.3704L48.1548 85.4055L46.5014 86.9463L44.6044 85.768Z" fill="url(#paint78_radial_502_8574)"/>
<path d="M98.9811 45.7193L99.0904 47.1383L95.6521 47.0056L96.8404 45.0833L98.9811 45.7193Z" fill="url(#paint79_radial_502_8574)"/>
<path d="M137.649 98.6872L138.817 100.292L134.636 102.649L134.642 99.4973L137.649 98.6872Z" fill="url(#paint80_radial_502_8574)"/>
<path d="M45.6471 55.9893L44.5431 55.1057L46.9728 52.7005L47.5614 54.8674L45.6471 55.9893Z" fill="url(#paint81_radial_502_8574)"/>
<path d="M85.7619 86.522L86.4773 85.8754L87.9029 87.6403L86.3518 87.8518L85.7619 86.522Z" fill="url(#paint82_radial_502_8574)"/>
<path d="M79.2716 41.0949L78.7521 41.9073L76.9115 40.581L78.3518 39.9678L79.2716 41.0949Z" fill="url(#paint83_radial_502_8574)"/>
<path d="M117.719 89.2353L117.697 90.58L114.541 90.3509L115.803 88.5695L117.719 89.2353Z" fill="url(#paint84_radial_502_8574)"/>
<path d="M56.7057 39.4138L56.3731 38.1107L59.4774 37.4991L58.73 39.5503L56.7057 39.4138Z" fill="url(#paint85_radial_502_8574)"/>
<path d="M94.2793 95.1434L95.3049 94.1567L97.3889 96.8947L95.1496 97.2L94.2793 95.1434Z" fill="url(#paint86_radial_502_8574)"/>
<path d="M68.6792 33.9458L67.9502 35.1681L65.2177 33.0769L67.2971 32.1916L68.6792 33.9458Z" fill="url(#paint87_radial_502_8574)"/>
<path d="M90.4361 67.7232L90.4642 69.7079L85.6901 69.2225L87.5121 66.6508L90.4361 67.7232Z" fill="url(#paint88_radial_502_8574)"/>
<path d="M64.2454 59.9131L63.6947 58.0062L68.4277 57.2148L67.3487 60.1761L64.2454 59.9131Z" fill="url(#paint89_radial_502_8574)"/>
<g filter="url(#filter0_d_502_8574)">
<path d="M123.447 98.6484L27.9473 89.9796L20.0437 68.9496L32.9473 37.8984L61.1973 30.1484L121.697 30.1484L164.197 40.1484L178.352 56.1484L178.352 76.8984L123.447 98.6484Z" fill="url(#paint90_radial_502_8574)"/>
<path d="M177.352 76.219L123.3 97.631L28.6626 89.0405L21.1189 68.968L33.6832 38.7335L61.332 31.1484L121.581 31.1484L163.659 41.0491L177.352 56.5273L177.352 76.219Z" stroke="url(#paint91_radial_502_8574)" stroke-width="2"/>
</g>
<path d="M110.522 67.141L122.836 30.3724L163.133 41.9219L176.273 75.5781L123.883 98.8438L110.522 67.141Z" fill="url(#paint92_radial_502_8574)"/>
<path d="M109.898 68.8906L29.3359 88.0781L19.8984 68.9531L33.1484 38.6406L61.4609 31.9531C81.0443 31.9531 120.273 30.5156 122.273 30.5156C124.273 30.5156 114.898 56.8906 109.898 68.8906Z" fill="url(#paint93_radial_502_8574)"/>
<path d="M124.023 98.8906L29.3359 88.1406L111.148 67.8906L124.023 98.8906Z" fill="url(#paint94_linear_502_8574)"/>
<path d="M176.398 75.7656L163.07 41.9062L178.461 56.2656L176.398 75.7656Z" fill="url(#paint95_linear_502_8574)"/>
<path d="M61.2578 32.002L124.132 31.094L110.819 67.018L61.2578 32.002Z" fill="url(#paint96_radial_502_8574)"/>
<g filter="url(#filter1_f_502_8574)">
<path d="M127.266 25.3262L121.99 29.6003H111.238L120.588 30.936L117.115 37.6143L124.061 32.2716L137.417 30.936L124.061 29.6003L127.266 25.3262Z" fill="white" style="mix-blend-mode:hard-light"/>
</g>
<g filter="url(#filter2_f_502_8574)">
<path d="M36.2119 35.8906L33.2709 38.2732H27.2773L32.4891 39.0177L30.5533 42.7404L34.425 39.7622L41.8704 39.0177L34.425 38.2732L36.2119 35.8906Z" fill="white" style="mix-blend-mode:hard-light"/>
</g>
<g filter="url(#filter3_f_502_8574)">
<path d="M36.4271 82.6074L30.9362 87.0557H19.7461L29.4767 88.4458L25.8624 95.3962L33.0909 89.8358L46.9917 88.4458L33.0909 87.0557L36.4271 82.6074Z" fill="white" style="mix-blend-mode:hard-light"/>
</g>
<g filter="url(#filter4_f_502_8574)">
<path d="M116.021 59.0605L110.53 63.5088H99.3398L109.07 64.8989L105.456 71.8493L112.685 66.289L126.585 64.8989L112.685 63.5088L116.021 59.0605Z" fill="white" style="mix-blend-mode:hard-light"/>
</g>
<g filter="url(#filter5_f_502_8574)">
<path d="M179.169 69.3418L173.678 73.7901H162.488L172.219 75.1801L168.605 82.1305L175.833 76.5702L189.734 75.1801L175.833 73.7901L179.169 69.3418Z" fill="white" style="mix-blend-mode:hard-light"/>
</g>
<g filter="url(#filter6_i_502_8574)">
<path d="M77.0197 58.3028L77.4197 57.5828H77.4397L78.0997 56.4028H69.6797V72.4028H78.8397L78.4397 71.7028L78.1797 71.2228L78.1597 71.2428L77.7397 70.5028H71.5597V63.8428H73.8197L74.5197 62.6028C74.5197 62.6228 74.5397 62.6228 74.5397 62.6028H74.5197L74.9197 61.9428H71.5597V58.3028H77.0197ZM81.6438 57.2628L82.2238 58.2828V72.3828H83.2238H84.1238V62.6828L91.6638 72.7428V56.3828H88.6838L89.1238 57.1028L89.7638 58.2828V67.0628L84.1238 59.5228V56.3828H81.1438L81.6438 57.2628ZM93.4672 56.3428L94.1072 57.4828L94.5472 58.2428H98.6272V72.3828H100.527V58.2428H104.587L105.107 57.3628L105.687 56.3428H93.4672ZM114.33 58.3028L114.73 57.5828H114.75L115.41 56.4028H106.99V72.4028H116.15L115.75 71.7028L115.49 71.2228L115.47 71.2428L115.05 70.5028H108.87V63.8428H111.13L111.83 62.6028C111.83 62.6228 111.85 62.6228 111.85 62.6028H111.83L112.23 61.9428H108.87V58.3028H114.33ZM124.774 72.3828H129.154L124.574 64.4028L126.474 61.1228V56.4028H116.954L117.374 57.1628L118.034 58.3028V72.4428H118.794H118.934H119.934V65.3428H122.934L125.874 70.5028L125.494 71.1628L124.894 72.1828L124.774 72.3828ZM119.934 58.3028H124.574V60.6228L122.934 63.4628H119.934V58.3028Z" fill="#00264A"/>
</g>
<defs>
<filter id="filter0_d_502_8574" x="0.0429688" y="12.1484" width="198.309" height="108.5" filterUnits="userSpaceOnUse" color-interpolation-filters="sRGB">
<feFlood flood-opacity="0" result="BackgroundImageFix"/>
<feColorMatrix in="SourceAlpha" type="matrix" values="0 0 0 0 0 0 0 0 0 0 0 0 0 0 0 0 0 0 127 0" result="hardAlpha"/>
<feOffset dy="2"/>
<feGaussianBlur stdDeviation="10"/>
<feComposite in2="hardAlpha" operator="out"/>
<feColorMatrix type="matrix" values="0 0 0 0 0.277083 0 0 0 0 0.877902 0 0 0 0 0.95 0 0 0 0.5 0"/>
<feBlend mode="normal" in2="BackgroundImageFix" result="effect1_dropShadow_502_8574"/>
<feBlend mode="normal" in="SourceGraphic" in2="effect1_dropShadow_502_8574" result="shape"/>
</filter>
<filter id="filter1_f_502_8574" x="109.238" y="23.3262" width="30.1797" height="16.2871" filterUnits="userSpaceOnUse" color-interpolation-filters="sRGB">
<feFlood flood-opacity="0" result="BackgroundImageFix"/>
<feBlend mode="normal" in="SourceGraphic" in2="BackgroundImageFix" result="shape"/>
<feGaussianBlur stdDeviation="1" result="effect1_foregroundBlur_502_8574"/>
</filter>
<filter id="filter2_f_502_8574" x="25.2773" y="33.8906" width="18.5938" height="10.8496" filterUnits="userSpaceOnUse" color-interpolation-filters="sRGB">
<feFlood flood-opacity="0" result="BackgroundImageFix"/>
<feBlend mode="normal" in="SourceGraphic" in2="BackgroundImageFix" result="shape"/>
<feGaussianBlur stdDeviation="1" result="effect1_foregroundBlur_502_8574"/>
</filter>
<filter id="filter3_f_502_8574" x="17.7461" y="80.6074" width="31.2461" height="16.7891" filterUnits="userSpaceOnUse" color-interpolation-filters="sRGB">
<feFlood flood-opacity="0" result="BackgroundImageFix"/>
<feBlend mode="normal" in="SourceGraphic" in2="BackgroundImageFix" result="shape"/>
<feGaussianBlur stdDeviation="1" result="effect1_foregroundBlur_502_8574"/>
</filter>
<filter id="filter4_f_502_8574" x="97.3398" y="57.0605" width="31.2461" height="16.7891" filterUnits="userSpaceOnUse" color-interpolation-filters="sRGB">
<feFlood flood-opacity="0" result="BackgroundImageFix"/>
<feBlend mode="normal" in="SourceGraphic" in2="BackgroundImageFix" result="shape"/>
<feGaussianBlur stdDeviation="1" result="effect1_foregroundBlur_502_8574"/>
</filter>
<filter id="filter5_f_502_8574" x="160.488" y="67.3418" width="31.2461" height="16.7891" filterUnits="userSpaceOnUse" color-interpolation-filters="sRGB">
<feFlood flood-opacity="0" result="BackgroundImageFix"/>
<feBlend mode="normal" in="SourceGraphic" in2="BackgroundImageFix" result="shape"/>
<feGaussianBlur stdDeviation="1" result="effect1_foregroundBlur_502_8574"/>
</filter>
<filter id="filter6_i_502_8574" x="69.6797" y="56.3438" width="59.5727" height="16.5984" filterUnits="userSpaceOnUse" color-interpolation-filters="sRGB">
<feFlood flood-opacity="0" result="BackgroundImageFix"/>
<feBlend mode="normal" in="SourceGraphic" in2="BackgroundImageFix" result="shape"/>
<feColorMatrix in="SourceAlpha" type="matrix" values="0 0 0 0 0 0 0 0 0 0 0 0 0 0 0 0 0 0 127 0" result="hardAlpha"/>
<feOffset dx="0.1" dy="0.2"/>
<feGaussianBlur stdDeviation="0.1"/>
<feComposite in2="hardAlpha" operator="arithmetic" k2="-1" k3="1"/>
<feColorMatrix type="matrix" values="0 0 0 0 0.883333 0 0 0 0 0.998611 0 0 0 0 1 0 0 0 1 0"/>
<feBlend mode="normal" in2="shape" result="effect1_innerShadow_502_8574"/>
</filter>
<radialGradient id="paint0_radial_502_8574" cx="0" cy="0" r="1" gradientUnits="userSpaceOnUse" gradientTransform="translate(46.6728 94.5098) rotate(78.9413) scale(0.972822 2.01034)">
<stop stop-color="white"/>
<stop offset="1" stop-color="#000D1A" stop-opacity="0"/>
</radialGradient>
<radialGradient id="paint1_radial_502_8574" cx="0" cy="0" r="1" gradientUnits="userSpaceOnUse" gradientTransform="translate(134.675 48.4975) rotate(-147.979) scale(1.35672 2.80366)">
<stop stop-color="white"/>
<stop offset="1" stop-color="#000D1A" stop-opacity="0"/>
</radialGradient>
<radialGradient id="paint2_radial_502_8574" cx="0" cy="0" r="1" gradientUnits="userSpaceOnUse" gradientTransform="translate(75.609 61.5889) rotate(114.159) scale(0.972822 2.01034)">
<stop stop-color="white"/>
<stop offset="1" stop-color="#000D1A" stop-opacity="0"/>
</radialGradient>
<radialGradient id="paint3_radial_502_8574" cx="0" cy="0" r="1" gradientUnits="userSpaceOnUse" gradientTransform="translate(157.858 72.8512) rotate(-112.761) scale(1.17679 2.43183)">
<stop stop-color="white"/>
<stop offset="1" stop-color="#000D1A" stop-opacity="0"/>
</radialGradient>
<radialGradient id="paint4_radial_502_8574" cx="0" cy="0" r="1" gradientUnits="userSpaceOnUse" gradientTransform="translate(168.529 84.2588) rotate(-6.11707) scale(0.800123 1.65346)">
<stop stop-color="white"/>
<stop offset="1" stop-color="#000D1A" stop-opacity="0"/>
</radialGradient>
<radialGradient id="paint5_radial_502_8574" cx="0" cy="0" r="1" gradientUnits="userSpaceOnUse" gradientTransform="translate(57.8027 101.401) rotate(29.86) scale(1.37892 2.57109)">
<stop stop-color="white"/>
<stop offset="1" stop-color="#000D1A" stop-opacity="0"/>
</radialGradient>
<radialGradient id="paint6_radial_502_8574" cx="0" cy="0" r="1" gradientUnits="userSpaceOnUse" gradientTransform="translate(101.9 28.899) rotate(162.94) scale(1.92306 3.58569)">
<stop stop-color="white"/>
<stop offset="1" stop-color="#000D1A" stop-opacity="0"/>
</radialGradient>
<radialGradient id="paint7_radial_502_8574" cx="0" cy="0" r="1" gradientUnits="userSpaceOnUse" gradientTransform="translate(52.2612 80.9277) rotate(83.304) scale(0.961315 1.22205)">
<stop stop-color="white"/>
<stop offset="1" stop-color="#000D1A" stop-opacity="0"/>
</radialGradient>
<radialGradient id="paint8_radial_502_8574" cx="0" cy="0" r="1" gradientUnits="userSpaceOnUse" gradientTransform="translate(147.543 63.1302) rotate(-143.616) scale(2.38603 3.0332)">
<stop stop-color="white"/>
<stop offset="1" stop-color="#000D1A" stop-opacity="0"/>
</radialGradient>
<radialGradient id="paint9_radial_502_8574" cx="0" cy="0" r="1" gradientUnits="userSpaceOnUse" gradientTransform="translate(122.084 53.1178) rotate(-143.616) scale(1.01282 1.28753)">
<stop stop-color="white"/>
<stop offset="1" stop-color="#000D1A" stop-opacity="0"/>
</radialGradient>
<radialGradient id="paint10_radial_502_8574" cx="0" cy="0" r="1" gradientUnits="userSpaceOnUse" gradientTransform="translate(72.1985 78.1492) rotate(118.522) scale(0.961315 1.22205)">
<stop stop-color="white"/>
<stop offset="1" stop-color="#000D1A" stop-opacity="0"/>
</radialGradient>
<radialGradient id="paint11_radial_502_8574" cx="0" cy="0" r="1" gradientUnits="userSpaceOnUse" gradientTransform="translate(125.509 67.2369) rotate(-108.399) scale(1.34067 1.7043)">
<stop stop-color="white"/>
<stop offset="1" stop-color="#000D1A" stop-opacity="0"/>
</radialGradient>
<radialGradient id="paint12_radial_502_8574" cx="0" cy="0" r="1" gradientUnits="userSpaceOnUse" gradientTransform="translate(177.329 65.2174) rotate(-108.399) scale(1.34067 1.7043)">
<stop stop-color="white"/>
<stop offset="1" stop-color="#000D1A" stop-opacity="0"/>
</radialGradient>
<radialGradient id="paint13_radial_502_8574" cx="0" cy="0" r="1" gradientUnits="userSpaceOnUse" gradientTransform="translate(87.468 105.011) rotate(118.522) scale(0.961315 1.22205)">
<stop stop-color="white"/>
<stop offset="1" stop-color="#000D1A" stop-opacity="0"/>
</radialGradient>
<radialGradient id="paint14_radial_502_8574" cx="0" cy="0" r="1" gradientUnits="userSpaceOnUse" gradientTransform="translate(170.14 75.5789) rotate(118.522) scale(0.961315 1.22205)">
<stop stop-color="white"/>
<stop offset="1" stop-color="#000D1A" stop-opacity="0"/>
</radialGradient>
<radialGradient id="paint15_radial_502_8574" cx="0" cy="0" r="1" gradientUnits="userSpaceOnUse" gradientTransform="translate(161.489 92.9644) rotate(-134.834) scale(0.65362 0.830902)">
<stop stop-color="white"/>
<stop offset="1" stop-color="#000D1A" stop-opacity="0"/>
</radialGradient>
<radialGradient id="paint16_radial_502_8574" cx="0" cy="0" r="1" gradientUnits="userSpaceOnUse" gradientTransform="translate(99.4891 75.1978) rotate(-108.399) scale(1.34067 1.7043)">
<stop stop-color="white"/>
<stop offset="1" stop-color="#000D1A" stop-opacity="0"/>
</radialGradient>
<radialGradient id="paint17_radial_502_8574" cx="0" cy="0" r="1" gradientUnits="userSpaceOnUse" gradientTransform="translate(159.806 38.2095) rotate(-108.399) scale(1.34067 1.7043)">
<stop stop-color="white"/>
<stop offset="1" stop-color="#000D1A" stop-opacity="0"/>
</radialGradient>
<radialGradient id="paint18_radial_502_8574" cx="0" cy="0" r="1" gradientUnits="userSpaceOnUse" gradientTransform="translate(65.5795 83.7208) rotate(82.8511) scale(2.07821 2.81697)">
<stop stop-color="white"/>
<stop offset="1" stop-color="#000D1A" stop-opacity="0"/>
</radialGradient>
<radialGradient id="paint19_radial_502_8574" cx="0" cy="0" r="1" gradientUnits="userSpaceOnUse" gradientTransform="translate(53.6733 48.662) rotate(173.513) scale(3.19269 4.32763)">
<stop stop-color="white"/>
<stop offset="1" stop-color="#000D1A" stop-opacity="0"/>
</radialGradient>
<radialGradient id="paint20_radial_502_8574" cx="0" cy="0" r="1" gradientUnits="userSpaceOnUse" gradientTransform="translate(159.57 63.71) rotate(82.8511) scale(3.27184 4.43492)">
<stop stop-color="white"/>
<stop offset="1" stop-color="#000D1A" stop-opacity="0"/>
</radialGradient>
<radialGradient id="paint21_radial_502_8574" cx="0" cy="0" r="1" gradientUnits="userSpaceOnUse" gradientTransform="translate(152.892 47.0689) rotate(-144.069) scale(2.89831 3.9286)">
<stop stop-color="white"/>
<stop offset="1" stop-color="#000D1A" stop-opacity="0"/>
</radialGradient>
<radialGradient id="paint22_radial_502_8574" cx="0" cy="0" r="1" gradientUnits="userSpaceOnUse" gradientTransform="translate(144.364 72.6048) rotate(-144.069) scale(2.16333 2.93235)">
<stop stop-color="white"/>
<stop offset="1" stop-color="#000D1A" stop-opacity="0"/>
</radialGradient>
<radialGradient id="paint23_radial_502_8574" cx="0" cy="0" r="1" gradientUnits="userSpaceOnUse" gradientTransform="translate(169.974 67.8889) rotate(118.069) scale(2.07821 2.81697)">
<stop stop-color="white"/>
<stop offset="1" stop-color="#000D1A" stop-opacity="0"/>
</radialGradient>
<radialGradient id="paint24_radial_502_8574" cx="0" cy="0" r="1" gradientUnits="userSpaceOnUse" gradientTransform="translate(164.587 54.4553) rotate(118.069) scale(2.07821 2.81697)">
<stop stop-color="white"/>
<stop offset="1" stop-color="#000D1A" stop-opacity="0"/>
</radialGradient>
<radialGradient id="paint25_radial_502_8574" cx="0" cy="0" r="1" gradientUnits="userSpaceOnUse" gradientTransform="translate(152.013 95.1896) rotate(-108.852) scale(1.74186 2.36106)">
<stop stop-color="white"/>
<stop offset="1" stop-color="#000D1A" stop-opacity="0"/>
</radialGradient>
<radialGradient id="paint26_radial_502_8574" cx="0" cy="0" r="1" gradientUnits="userSpaceOnUse" gradientTransform="translate(142.238 27.3581) rotate(-108.852) scale(1.42509 1.93169)">
<stop stop-color="white"/>
<stop offset="1" stop-color="#000D1A" stop-opacity="0"/>
</radialGradient>
<radialGradient id="paint27_radial_502_8574" cx="0" cy="0" r="1" gradientUnits="userSpaceOnUse" gradientTransform="translate(104.584 87.2676) rotate(118.069) scale(0.838112 1.13604)">
<stop stop-color="white"/>
<stop offset="1" stop-color="#000D1A" stop-opacity="0"/>
</radialGradient>
<radialGradient id="paint28_radial_502_8574" cx="0" cy="0" r="1" gradientUnits="userSpaceOnUse" gradientTransform="translate(116.166 78.3466) rotate(-108.852) scale(2.53739 3.43938)">
<stop stop-color="white"/>
<stop offset="1" stop-color="#000D1A" stop-opacity="0"/>
</radialGradient>
<radialGradient id="paint29_radial_502_8574" cx="0" cy="0" r="1" gradientUnits="userSpaceOnUse" gradientTransform="translate(38.9466 50.9273) rotate(-78.6376) scale(1.77177 1.92917)">
<stop stop-color="white"/>
<stop offset="1" stop-color="#000D1A" stop-opacity="0"/>
</radialGradient>
<radialGradient id="paint30_radial_502_8574" cx="0" cy="0" r="1" gradientUnits="userSpaceOnUse" gradientTransform="translate(35.5797 29.1989) rotate(-24.8496) scale(2.2212 2.41852)">
<stop stop-color="white"/>
<stop offset="1" stop-color="#000D1A" stop-opacity="0"/>
</radialGradient>
<radialGradient id="paint31_radial_502_8574" cx="0" cy="0" r="1" gradientUnits="userSpaceOnUse" gradientTransform="translate(77.6738 70.7015) rotate(-122.712) scale(1.7829 1.94129)">
<stop stop-color="white"/>
<stop offset="1" stop-color="#000D1A" stop-opacity="0"/>
</radialGradient>
<radialGradient id="paint32_radial_502_8574" cx="0" cy="0" r="1" gradientUnits="userSpaceOnUse" gradientTransform="translate(105.143 66.2485) rotate(10.3679) scale(2.46203 2.68076)">
<stop stop-color="white"/>
<stop offset="1" stop-color="#000D1A" stop-opacity="0"/>
</radialGradient>
<radialGradient id="paint33_radial_502_8574" cx="0" cy="0" r="1" gradientUnits="userSpaceOnUse" gradientTransform="translate(78.583 91.1284) rotate(-131.032) scale(2.65239 2.9426)">
<stop stop-color="white"/>
<stop offset="1" stop-color="#000D1A" stop-opacity="0"/>
</radialGradient>
<radialGradient id="paint34_radial_502_8574" cx="0" cy="0" r="1" gradientUnits="userSpaceOnUse" gradientTransform="translate(123.001 40.8777) rotate(2.04825) scale(1.62606 1.80397)">
<stop stop-color="white"/>
<stop offset="1" stop-color="#000D1A" stop-opacity="0"/>
</radialGradient>
<radialGradient id="paint35_radial_502_8574" cx="0" cy="0" r="1" gradientUnits="userSpaceOnUse" gradientTransform="translate(57.8146 88.7073) rotate(84.3426) scale(1.85783 2.00065)">
<stop stop-color="white"/>
<stop offset="1" stop-color="#000D1A" stop-opacity="0"/>
</radialGradient>
<radialGradient id="paint36_radial_502_8574" cx="0" cy="0" r="1" gradientUnits="userSpaceOnUse" gradientTransform="translate(144.509 41.6135) rotate(-142.578) scale(1.84904 1.99118)">
<stop stop-color="white"/>
<stop offset="1" stop-color="#000D1A" stop-opacity="0"/>
</radialGradient>
<radialGradient id="paint37_radial_502_8574" cx="0" cy="0" r="1" gradientUnits="userSpaceOnUse" gradientTransform="translate(77.4207 53.4306) rotate(119.56) scale(2.59283 2.79214)">
<stop stop-color="white"/>
<stop offset="1" stop-color="#000D1A" stop-opacity="0"/>
</radialGradient>
<radialGradient id="paint38_radial_502_8574" cx="0" cy="0" r="1" gradientUnits="userSpaceOnUse" gradientTransform="translate(114.025 52.1623) rotate(-75.7368) scale(1.85783 2.00065)">
<stop stop-color="white"/>
<stop offset="1" stop-color="#000D1A" stop-opacity="0"/>
</radialGradient>
<radialGradient id="paint39_radial_502_8574" cx="0" cy="0" r="1" gradientUnits="userSpaceOnUse" gradientTransform="translate(135.558 82.3295) rotate(-107.36) scale(2.59097 2.79014)">
<stop stop-color="white"/>
<stop offset="1" stop-color="#000D1A" stop-opacity="0"/>
</radialGradient>
<radialGradient id="paint40_radial_502_8574" cx="0" cy="0" r="1" gradientUnits="userSpaceOnUse" gradientTransform="translate(22.6485 66.2168) rotate(57.3429) scale(2.75191 2.96346)">
<stop stop-color="white"/>
<stop offset="1" stop-color="#000D1A" stop-opacity="0"/>
</radialGradient>
<radialGradient id="paint41_radial_502_8574" cx="0" cy="0" r="1" gradientUnits="userSpaceOnUse" gradientTransform="translate(89.8849 81.687) rotate(119.56) scale(1.85783 2.00065)">
<stop stop-color="white"/>
<stop offset="1" stop-color="#000D1A" stop-opacity="0"/>
</radialGradient>
<radialGradient id="paint42_radial_502_8574" cx="0" cy="0" r="1" gradientUnits="userSpaceOnUse" gradientTransform="translate(76.5909 36.5685) rotate(-75.7368) scale(1.85783 2.00065)">
<stop stop-color="white"/>
<stop offset="1" stop-color="#000D1A" stop-opacity="0"/>
</radialGradient>
<radialGradient id="paint43_radial_502_8574" cx="0" cy="0" r="1" gradientUnits="userSpaceOnUse" gradientTransform="translate(132.456 75.2533) rotate(-107.36) scale(2.59097 2.79014)">
<stop stop-color="white"/>
<stop offset="1" stop-color="#000D1A" stop-opacity="0"/>
</radialGradient>
<radialGradient id="paint44_radial_502_8574" cx="0" cy="0" r="1" gradientUnits="userSpaceOnUse" gradientTransform="translate(49.0484 27.6979) rotate(57.3429) scale(2.59097 2.79014)">
<stop stop-color="white"/>
<stop offset="1" stop-color="#000D1A" stop-opacity="0"/>
</radialGradient>
<radialGradient id="paint45_radial_502_8574" cx="0" cy="0" r="1" gradientUnits="userSpaceOnUse" gradientTransform="translate(60.1778 77.7993) rotate(15.4647) scale(1.72925 1.29299)">
<stop stop-color="white"/>
<stop offset="1" stop-color="#000D1A" stop-opacity="0"/>
</radialGradient>
<radialGradient id="paint46_radial_502_8574" cx="0" cy="0" r="1" gradientUnits="userSpaceOnUse" gradientTransform="translate(91.8842 27.234) rotate(-179.832) scale(1.72925 1.29299)">
<stop stop-color="white"/>
<stop offset="1" stop-color="#000D1A" stop-opacity="0"/>
</radialGradient>
<radialGradient id="paint47_radial_502_8574" cx="0" cy="0" r="1" gradientUnits="userSpaceOnUse" gradientTransform="translate(126.948 28.4043) rotate(148.544) scale(2.41164 1.80322)">
<stop stop-color="white"/>
<stop offset="1" stop-color="#000D1A" stop-opacity="0"/>
</radialGradient>
<radialGradient id="paint48_radial_502_8574" cx="0" cy="0" r="1" gradientUnits="userSpaceOnUse" gradientTransform="translate(44.1187 77.0378) rotate(-46.7525) scale(2.41164 1.80322)">
<stop stop-color="white"/>
<stop offset="1" stop-color="#000D1A" stop-opacity="0"/>
</radialGradient>
<radialGradient id="paint49_radial_502_8574" cx="0" cy="0" r="1" gradientUnits="userSpaceOnUse" gradientTransform="translate(81.204 82.2987) rotate(50.6822) scale(1.72925 1.29299)">
<stop stop-color="white"/>
<stop offset="1" stop-color="#000D1A" stop-opacity="0"/>
</radialGradient>
<radialGradient id="paint50_radial_502_8574" cx="0" cy="0" r="1" gradientUnits="userSpaceOnUse" gradientTransform="translate(85.03 41.2287) rotate(-144.615) scale(1.72925 1.29299)">
<stop stop-color="white"/>
<stop offset="1" stop-color="#000D1A" stop-opacity="0"/>
</radialGradient>
<radialGradient id="paint51_radial_502_8574" cx="0" cy="0" r="1" gradientUnits="userSpaceOnUse" gradientTransform="translate(127.419 92.6058) rotate(-176.238) scale(1.72051 1.28645)">
<stop stop-color="white"/>
<stop offset="1" stop-color="#000D1A" stop-opacity="0"/>
</radialGradient>
<radialGradient id="paint52_radial_502_8574" cx="0" cy="0" r="1" gradientUnits="userSpaceOnUse" gradientTransform="translate(49.9176 38.4039) rotate(-11.535) scale(1.44036 1.07698)">
<stop stop-color="white"/>
<stop offset="1" stop-color="#000D1A" stop-opacity="0"/>
</radialGradient>
<radialGradient id="paint53_radial_502_8574" cx="0" cy="0" r="1" gradientUnits="userSpaceOnUse" gradientTransform="translate(84.7704 95.2225) rotate(50.6822) scale(1.72925 1.29299)">
<stop stop-color="white"/>
<stop offset="1" stop-color="#000D1A" stop-opacity="0"/>
</radialGradient>
<radialGradient id="paint54_radial_502_8574" cx="0" cy="0" r="1" gradientUnits="userSpaceOnUse" gradientTransform="translate(77.9519 30.5724) rotate(-144.615) scale(1.72925 1.29299)">
<stop stop-color="white"/>
<stop offset="1" stop-color="#000D1A" stop-opacity="0"/>
</radialGradient>
<radialGradient id="paint55_radial_502_8574" cx="0" cy="0" r="1" gradientUnits="userSpaceOnUse" gradientTransform="translate(147.403 56.5606) rotate(-176.238) scale(2.41164 1.80322)">
<stop stop-color="white"/>
<stop offset="1" stop-color="#000D1A" stop-opacity="0"/>
</radialGradient>
<radialGradient id="paint56_radial_502_8574" cx="0" cy="0" r="1" gradientUnits="userSpaceOnUse" gradientTransform="translate(52.2922 63.9547) rotate(-11.535) scale(2.41164 1.80322)">
<stop stop-color="white"/>
<stop offset="1" stop-color="#000D1A" stop-opacity="0"/>
</radialGradient>
<radialGradient id="paint57_radial_502_8574" cx="0" cy="0" r="1" gradientUnits="userSpaceOnUse" gradientTransform="translate(64.4298 93.5449) rotate(131.362) scale(1.31625 1.41743)">
<stop stop-color="white"/>
<stop offset="1" stop-color="#000D1A" stop-opacity="0"/>
</radialGradient>
<radialGradient id="paint58_radial_502_8574" cx="0" cy="0" r="1" gradientUnits="userSpaceOnUse" gradientTransform="translate(110.907 34.7602) rotate(-63.9352) scale(1.31625 1.41743)">
<stop stop-color="white"/>
<stop offset="1" stop-color="#000D1A" stop-opacity="0"/>
</radialGradient>
<radialGradient id="paint59_radial_502_8574" cx="0" cy="0" r="1" gradientUnits="userSpaceOnUse" gradientTransform="translate(32.8717 73.8188) rotate(-63.9352) scale(1.31625 1.41743)">
<stop stop-color="white"/>
<stop offset="1" stop-color="#000D1A" stop-opacity="0"/>
</radialGradient>
<radialGradient id="paint60_radial_502_8574" cx="0" cy="0" r="1" gradientUnits="userSpaceOnUse" gradientTransform="translate(133.526 35.8415) rotate(-95.5585) scale(1.83566 1.97677)">
<stop stop-color="white"/>
<stop offset="1" stop-color="#000D1A" stop-opacity="0"/>
</radialGradient>
<radialGradient id="paint61_radial_502_8574" cx="0" cy="0" r="1" gradientUnits="userSpaceOnUse" gradientTransform="translate(163.338 85.3721) rotate(-95.5585) scale(1.33926 1.44221)">
<stop stop-color="white"/>
<stop offset="1" stop-color="#000D1A" stop-opacity="0"/>
</radialGradient>
<radialGradient id="paint62_radial_502_8574" cx="0" cy="0" r="1" gradientUnits="userSpaceOnUse" gradientTransform="translate(147.46 82.8568) rotate(11.0859) scale(0.910591 0.98059)">
<stop stop-color="white"/>
<stop offset="1" stop-color="#000D1A" stop-opacity="0"/>
</radialGradient>
<radialGradient id="paint63_radial_502_8574" cx="0" cy="0" r="1" gradientUnits="userSpaceOnUse" gradientTransform="translate(31.5812 82.3349) rotate(69.1446) scale(1.83566 1.97677)">
<stop stop-color="white"/>
<stop offset="1" stop-color="#000D1A" stop-opacity="0"/>
</radialGradient>
<radialGradient id="paint64_radial_502_8574" cx="0" cy="0" r="1" gradientUnits="userSpaceOnUse" gradientTransform="translate(64.553 70.495) rotate(166.579) scale(1.31625 1.41743)">
<stop stop-color="white"/>
<stop offset="1" stop-color="#000D1A" stop-opacity="0"/>
</radialGradient>
<radialGradient id="paint65_radial_502_8574" cx="0" cy="0" r="1" gradientUnits="userSpaceOnUse" gradientTransform="translate(97.4547 55.8698) rotate(-28.7177) scale(1.31625 1.41743)">
<stop stop-color="white"/>
<stop offset="1" stop-color="#000D1A" stop-opacity="0"/>
</radialGradient>
<radialGradient id="paint66_radial_502_8574" cx="0" cy="0" r="1" gradientUnits="userSpaceOnUse" gradientTransform="translate(153.233 83.1026) rotate(-60.341) scale(1.46974 1.58272)">
<stop stop-color="white"/>
<stop offset="1" stop-color="#000D1A" stop-opacity="0"/>
</radialGradient>
<radialGradient id="paint67_radial_502_8574" cx="0" cy="0" r="1" gradientUnits="userSpaceOnUse" gradientTransform="translate(165.761 78.3217) rotate(46.3034) scale(0.99931 1.07613)">
<stop stop-color="white"/>
<stop offset="1" stop-color="#000D1A" stop-opacity="0"/>
</radialGradient>
<radialGradient id="paint68_radial_502_8574" cx="0" cy="0" r="1" gradientUnits="userSpaceOnUse" gradientTransform="translate(137.74 60.6221) rotate(-60.341) scale(1.46974 1.58272)">
<stop stop-color="white"/>
<stop offset="1" stop-color="#000D1A" stop-opacity="0"/>
</radialGradient>
<radialGradient id="paint69_radial_502_8574" cx="0" cy="0" r="1" gradientUnits="userSpaceOnUse" gradientTransform="translate(140.753 56.7357) rotate(24.0221) scale(0.989046 1.06508)">
<stop stop-color="white"/>
<stop offset="1" stop-color="#000D1A" stop-opacity="0"/>
</radialGradient>
<radialGradient id="paint70_radial_502_8574" cx="0" cy="0" r="1" gradientUnits="userSpaceOnUse" gradientTransform="translate(35.7948 66.8461) rotate(104.362) scale(1.83566 1.97677)">
<stop stop-color="white"/>
<stop offset="1" stop-color="#000D1A" stop-opacity="0"/>
</radialGradient>
<radialGradient id="paint71_radial_502_8574" cx="0" cy="0" r="1" gradientUnits="userSpaceOnUse" gradientTransform="translate(117.268 64.9599) rotate(166.579) scale(1.31625 1.41743)">
<stop stop-color="white"/>
<stop offset="1" stop-color="#000D1A" stop-opacity="0"/>
</radialGradient>
<radialGradient id="paint72_radial_502_8574" cx="0" cy="0" r="1" gradientUnits="userSpaceOnUse" gradientTransform="translate(68.6109 45.6667) rotate(-28.7177) scale(1.31625 1.41743)">
<stop stop-color="white"/>
<stop offset="1" stop-color="#000D1A" stop-opacity="0"/>
</radialGradient>
<radialGradient id="paint73_radial_502_8574" cx="0" cy="0" r="1" gradientUnits="userSpaceOnUse" gradientTransform="translate(139.765 91.5561) rotate(-60.341) scale(1.83566 1.97677)">
<stop stop-color="white"/>
<stop offset="1" stop-color="#000D1A" stop-opacity="0"/>
</radialGradient>
<radialGradient id="paint74_radial_502_8574" cx="0" cy="0" r="1" gradientUnits="userSpaceOnUse" gradientTransform="translate(33.7122 50.8531) rotate(104.362) scale(1.47919 1.5929)">
<stop stop-color="white"/>
<stop offset="1" stop-color="#000D1A" stop-opacity="0"/>
</radialGradient>
<radialGradient id="paint75_radial_502_8574" cx="0" cy="0" r="1" gradientUnits="userSpaceOnUse" gradientTransform="translate(75.1985 101.162) rotate(59.7153) scale(1.31625 1.41743)">
<stop stop-color="white"/>
<stop offset="1" stop-color="#000D1A" stop-opacity="0"/>
</radialGradient>
<radialGradient id="paint76_radial_502_8574" cx="0" cy="0" r="1" gradientUnits="userSpaceOnUse" gradientTransform="translate(70.4813 26.5893) rotate(-135.582) scale(1.31625 1.41743)">
<stop stop-color="white"/>
<stop offset="1" stop-color="#000D1A" stop-opacity="0"/>
</radialGradient>
<radialGradient id="paint77_radial_502_8574" cx="0" cy="0" r="1" gradientUnits="userSpaceOnUse" gradientTransform="translate(167.693 48.9315) rotate(-167.205) scale(1.83566 1.97677)">
<stop stop-color="white"/>
<stop offset="1" stop-color="#000D1A" stop-opacity="0"/>
</radialGradient>
<radialGradient id="paint78_radial_502_8574" cx="0" cy="0" r="1" gradientUnits="userSpaceOnUse" gradientTransform="translate(46.0001 85.0625) rotate(131.362) scale(1.31625 1.41743)">
<stop stop-color="white"/>
<stop offset="1" stop-color="#000D1A" stop-opacity="0"/>
</radialGradient>
<radialGradient id="paint79_radial_502_8574" cx="0" cy="0" r="1" gradientUnits="userSpaceOnUse" gradientTransform="translate(97.8209 46.768) rotate(-63.9352) scale(1.31625 1.41743)">
<stop stop-color="white"/>
<stop offset="1" stop-color="#000D1A" stop-opacity="0"/>
</radialGradient>
<radialGradient id="paint80_radial_502_8574" cx="0" cy="0" r="1" gradientUnits="userSpaceOnUse" gradientTransform="translate(137.038 100.781) rotate(-95.5585) scale(1.83566 1.97677)">
<stop stop-color="white"/>
<stop offset="1" stop-color="#000D1A" stop-opacity="0"/>
</radialGradient>
<radialGradient id="paint81_radial_502_8574" cx="0" cy="0" r="1" gradientUnits="userSpaceOnUse" gradientTransform="translate(45.6734 54.4357) rotate(69.1446) scale(1.30781 1.40835)">
<stop stop-color="white"/>
<stop offset="1" stop-color="#000D1A" stop-opacity="0"/>
</radialGradient>
<radialGradient id="paint82_radial_502_8574" cx="0" cy="0" r="1" gradientUnits="userSpaceOnUse" gradientTransform="translate(86.8309 86.6611) rotate(166.939) scale(0.911169 0.919476)">
<stop stop-color="white"/>
<stop offset="1" stop-color="#000D1A" stop-opacity="0"/>
</radialGradient>
<radialGradient id="paint83_radial_502_8574" cx="0" cy="0" r="1" gradientUnits="userSpaceOnUse" gradientTransform="translate(78.2038 41.2427) rotate(-28.3574) scale(0.911169 0.919476)">
<stop stop-color="white"/>
<stop offset="1" stop-color="#000D1A" stop-opacity="0"/>
</radialGradient>
<radialGradient id="paint84_radial_502_8574" cx="0" cy="0" r="1" gradientUnits="userSpaceOnUse" gradientTransform="translate(116.559 90.1917) rotate(-59.9808) scale(1.27073 1.28232)">
<stop stop-color="white"/>
<stop offset="1" stop-color="#000D1A" stop-opacity="0"/>
</radialGradient>
<radialGradient id="paint85_radial_502_8574" cx="0" cy="0" r="1" gradientUnits="userSpaceOnUse" gradientTransform="translate(57.5724 38.1852) rotate(104.722) scale(1.27073 1.28232)">
<stop stop-color="white"/>
<stop offset="1" stop-color="#000D1A" stop-opacity="0"/>
</radialGradient>
<radialGradient id="paint86_radial_502_8574" cx="0" cy="0" r="1" gradientUnits="userSpaceOnUse" gradientTransform="translate(95.8264 95.372) rotate(166.579) scale(1.31625 1.41743)">
<stop stop-color="white"/>
<stop offset="1" stop-color="#000D1A" stop-opacity="0"/>
</radialGradient>
<radialGradient id="paint87_radial_502_8574" cx="0" cy="0" r="1" gradientUnits="userSpaceOnUse" gradientTransform="translate(67.1265 34.1335) rotate(-28.7177) scale(1.31625 1.41743)">
<stop stop-color="white"/>
<stop offset="1" stop-color="#000D1A" stop-opacity="0"/>
</radialGradient>
<radialGradient id="paint88_radial_502_8574" cx="0" cy="0" r="1" gradientUnits="userSpaceOnUse" gradientTransform="translate(88.7295 69.0815) rotate(-60.341) scale(1.83566 1.97677)">
<stop stop-color="white"/>
<stop offset="1" stop-color="#000D1A" stop-opacity="0"/>
</radialGradient>
<radialGradient id="paint89_radial_502_8574" cx="0" cy="0" r="1" gradientUnits="userSpaceOnUse" gradientTransform="translate(65.5331 58.1527) rotate(104.362) scale(1.83566 1.97677)">
<stop stop-color="white"/>
<stop offset="1" stop-color="#000D1A" stop-opacity="0"/>
</radialGradient>
<radialGradient id="paint90_radial_502_8574" cx="0" cy="0" r="1" gradientUnits="userSpaceOnUse" gradientTransform="translate(99.1978 64.3984) rotate(170.625) scale(162.673 375.949)">
<stop stop-color="#87E4F9"/>
<stop offset="0.361027" stop-color="#274E4D"/>
<stop offset="1" stop-color="white"/>
</radialGradient>
<radialGradient id="paint91_radial_502_8574" cx="0" cy="0" r="1" gradientUnits="userSpaceOnUse" gradientTransform="translate(120.697 41.1484) rotate(172.64) scale(181.495 60.3383)">
<stop offset="0.204098" stop-color="#AEF2FF"/>
<stop offset="0.54403" stop-color="#095A6B"/>
</radialGradient>
<radialGradient id="paint92_radial_502_8574" cx="0" cy="0" r="1" gradientUnits="userSpaceOnUse" gradientTransform="translate(149.945 37.4062) rotate(111.909) scale(74.3711 70.6967)">
<stop offset="0.385417" stop-color="#E0FFFF"/>
<stop offset="1" stop-color="#70DFD2"/>
</radialGradient>
<radialGradient id="paint93_radial_502_8574" cx="0" cy="0" r="1" gradientUnits="userSpaceOnUse" gradientTransform="translate(74.4453 53.9062) rotate(121.894) scale(81.8585 147.895)">
<stop stop-color="#DCFBFF"/>
<stop offset="1" stop-color="#18A8B1"/>
</radialGradient>
<linearGradient id="paint94_linear_502_8574" x1="109.648" y1="76.5156" x2="99.6953" y2="130.656" gradientUnits="userSpaceOnUse">
<stop stop-color="#B4FFF1"/>
<stop offset="1" stop-color="#81A5A8"/>
</linearGradient>
<linearGradient id="paint95_linear_502_8574" x1="170.586" y1="41.7031" x2="170.586" y2="75.7656" gradientUnits="userSpaceOnUse">
<stop stop-color="#A2E3EE"/>
<stop offset="1" stop-color="#CFFFF4"/>
</linearGradient>
<radialGradient id="paint96_radial_502_8574" cx="0" cy="0" r="1" gradientUnits="userSpaceOnUse" gradientTransform="translate(112.445 51.6387) rotate(-176.813) scale(107.917 49.8993)">
<stop stop-color="#EDFFFB"/>
<stop offset="1" stop-color="#56DBF9"/>
</radialGradient>
</defs>
</svg>
