<svg width="214" height="85" fill="none" xmlns="http://www.w3.org/2000/svg"><path d="M9.3 14.5 135 9.2l73.5 5.3 2.3 39.8-3.7 23.5-151.3 3.4L7 76.3 4 44.4l5.3-29.9Z" fill="url(#a)"/><path d="m4 44.5 5.2-30 5.5 3.8-2.3 54-5.4 4-3-31.8Z" fill="url(#b)"/><path d="m134.1 14.4.9-5.3 73.5 5.4-5.4 4.3-37.7.7-31.3-5Z" fill="url(#c)"/><path d="m14.6 18.9-5.4-4.4L135.7 9l-1.4 5.5-105.6 4.1-14 .3Z" fill="url(#d)"/><path d="m207.2 77.8-9-7.2 5-51.8 5.3-4.3 2.4 40-3.8 23.3Z" fill="url(#e)"/><path d="M14.3 18.6 133.6 14l69.7 4.6 2.1 34.5-3.7 20.3-143.2 3L12.2 72 9.3 44.5l5-25.9Z" fill="url(#f)"/><path d="M134.9 15.7 28.9 18l106-4 68.4 4.6-68.4-2.9Z" fill="#EEFFF4"/><path d="M12.2 72.2 9.3 44.3l5 25.4 44 6.7-46.1-4.2Z" fill="#5FA99C"/><path d="m206.3 77 .5.4.3.4-12.7.3 11.8-1Z" fill="#24AEC0"/><path d="m207.6 15.2-8.8-1.4 9.7.7-.9.7Z" fill="#EEFFF4"/><path d="m168 11.5 40.5 3 .6 9.2v4l-27.3-4-16-5.6 2.2-6.6Z" fill="url(#g)" style="mix-blend-mode:screen"/><path d="m195.3 23.6 4.6 3.8.9 3.4-3 3.8-6.5-3.2-1.3-4.7 5.3-3.1Z" fill="url(#h)" style="mix-blend-mode:screen"/><path d="m190 36.2-2.3 4-2.4 1.2-3.2-1.6 1.5-5.2 3.3-1.8 3 3.4Z" fill="url(#i)" style="mix-blend-mode:screen"/><path d="m175.6 26.3 4.2-.7 4.2-.7 1 5.4-3 .9-5.5.4-1-5.3Z" fill="url(#j)" style="mix-blend-mode:screen"/><path d="m14.7 19-1.4 7 5.3-5.1 83-2 22.4 4.5 78.7 9-.9-12.7-68.8-5.3L14.7 19Z" fill="url(#k)" style="mix-blend-mode:screen"/><path d="m13.9 59.6 1.8 9.4L58 76l143.1-3.8 2-12.6L177 67l-70.5-4L32 54.7l-18.2 4.9Z" fill="url(#l)" style="mix-blend-mode:multiply"/><path d="m16.5 77.3-9.5-1-.4-4.6 1.3-10.4 8.6-4.4 14.1 12-14 8.4Z" fill="url(#m)" style="mix-blend-mode:multiply"/><path transform="rotate(-110.2 27.7 72.5)" fill="url(#n)" style="mix-blend-mode:multiply" d="M27.7 72.5h5.8v5.8h-5.8z"/><path transform="rotate(-54.1 12.1 46.7)" fill="url(#o)" style="mix-blend-mode:multiply" d="M12.1 46.7h4.7v4.2H12z"/><path transform="rotate(-99.1 17.4 54.3)" fill="url(#p)" style="mix-blend-mode:multiply" d="M17.4 54.3h2.5v2.2h-2.5z"/><path d="m30.5 74.3 2.7-4.1 4.4-2 1.5 4-1 3.3-5 2.3-2.6-3.5Z" fill="url(#q)" style="mix-blend-mode:multiply"/><path d="M14.5 51 4.3 48.3l-.4-3.8.9-4.8 10.4.4-.7 10.8Z" fill="url(#r)" style="mix-blend-mode:multiply"/><g filter="url(#s)"><path d="M81.5 36.5v-2.4h-7.8v24.5h7.8v-2.5h-5.4v-6.5l4.3-4.1-1.8-1.8-2.5 2.4v-9.6h5.4Zm9.2 5.4 3.6-4.4v21.1H97V34.1h-2.6l-3.6 4.2v-4.2h-2.5v24.5h2.5V41.9Zm12.8-7.8v2.4h3v22.1h2.6v-22h2.8V34h-8.4Zm22.7 2.4v-2.4h-7.9v24.5h7.9v-2.5h-5.4v-2L125 50l-1.7-1.8-2.5 2.5V36.5h5.4Zm12.5 18v4.1h2.6v-5.2l-2.6-2.6 2.6-2.6v-9.8c0-1.8-.5-2.8-1.3-3.5a4.7 4.7 0 0 0-3-.8H133v24.5h2.5v-4.5l1.5-1.5 1.8 1.8Zm-3.3-3.8V36.5h1.7c1 0 1.6.4 1.6 2.4v8.5l-3.3 3.3Z" fill="#00264A"/></g><defs><linearGradient id="a" x1="9.3" y1="87.3" x2="205.7" y2="75" gradientUnits="userSpaceOnUse"><stop stop-color="#4B8693"/><stop offset="1" stop-color="#72BCAA"/></linearGradient><linearGradient id="b" x1="1.6" y1=".7" x2="3.9" y2="95.5" gradientUnits="userSpaceOnUse"><stop stop-color="#71D9C1"/><stop offset=".3" stop-color="#68B7A8"/><stop offset="1" stop-color="#47A7C1"/></linearGradient><linearGradient id="d" x1="11.7" y1="18.9" x2="143" y2="11.8" gradientUnits="userSpaceOnUse"><stop stop-color="#6CD6BC"/><stop offset="1" stop-color="#8FEBE5"/></linearGradient><linearGradient id="e" x1="204.5" y1="20.9" x2="204.5" y2="77.8" gradientUnits="userSpaceOnUse"><stop stop-color="#B8FCEB"/><stop offset="1" stop-color="#82E4CD"/></linearGradient><linearGradient id="g" x1="198.4" y1="17.1" x2="142" y2="31.7" gradientUnits="userSpaceOnUse"><stop stop-color="#A5C083"/><stop offset="1" stop-color="#728D4E" stop-opacity="0"/></linearGradient><linearGradient id="h" x1="198.2" y1="30.3" x2="184.7" y2="20.3" gradientUnits="userSpaceOnUse"><stop stop-color="#A5C083"/><stop offset="1" stop-color="#728D4E" stop-opacity="0"/></linearGradient><linearGradient id="i" x1="185.3" y1="39.4" x2="190.7" y2="27.9" gradientUnits="userSpaceOnUse"><stop stop-color="#A5C083"/><stop offset="1" stop-color="#728D4E" stop-opacity="0"/></linearGradient><linearGradient id="j" x1="181.7" y1="27.2" x2="171.2" y2="34.4" gradientUnits="userSpaceOnUse"><stop stop-color="#A5C083"/><stop offset="1" stop-color="#728D4E" stop-opacity="0"/></linearGradient><linearGradient id="k" x1="183" y1="14.4" x2="83" y2="23.4" gradientUnits="userSpaceOnUse"><stop stop-color="#5CE8BE"/><stop offset="1" stop-color="#056649"/></linearGradient><linearGradient id="m" x1="12.5" y1="81.2" x2="30.2" y2="61.3" gradientUnits="userSpaceOnUse"><stop stop-color="#B1EAEE"/><stop offset="1" stop-color="#79C4C9" stop-opacity="0"/></linearGradient><linearGradient id="n" x1="29.7" y1="72.3" x2="28.7" y2="79.4" gradientUnits="userSpaceOnUse"><stop stop-color="#B1EAEE"/><stop offset="1" stop-color="#79C4C9" stop-opacity="0"/></linearGradient><linearGradient id="o" x1="13.7" y1="46.5" x2="13.1" y2="51.8" gradientUnits="userSpaceOnUse"><stop stop-color="#B1EAEE"/><stop offset="1" stop-color="#79C4C9" stop-opacity="0"/></linearGradient><linearGradient id="p" x1="18.3" y1="54.2" x2="17.9" y2="57" gradientUnits="userSpaceOnUse"><stop stop-color="#B1EAEE"/><stop offset="1" stop-color="#79C4C9" stop-opacity="0"/></linearGradient><linearGradient id="q" x1="31.8" y1="71" x2="36.9" y2="78.4" gradientUnits="userSpaceOnUse"><stop stop-color="#B1EAEE"/><stop offset="1" stop-color="#79C4C9" stop-opacity="0"/></linearGradient><linearGradient id="r" x1="10.7" y1="51.1" x2="13.3" y2="37.9" gradientUnits="userSpaceOnUse"><stop stop-color="#B1EAEE"/><stop offset="1" stop-color="#79C4C9" stop-opacity="0"/></linearGradient><radialGradient id="c" cx="0" cy="0" r="1" gradientUnits="userSpaceOnUse" gradientTransform="matrix(93.04461 5.15667 -37.169 670.66081 164.3 14.3)"><stop stop-color="#8FEBE5"/><stop offset="1" stop-color="#6CD6BC"/></radialGradient><radialGradient id="f" cx="0" cy="0" r="1" gradientUnits="userSpaceOnUse" gradientTransform="matrix(-143.05764 50.0252 -157.44413 -450.24473 148.2 28.5)"><stop stop-color="#ECFFFD"/><stop offset="1" stop-color="#D9FFF6"/></radialGradient><radialGradient id="l" cx="0" cy="0" r="1" gradientUnits="userSpaceOnUse" gradientTransform="matrix(188.95642 -19.36374 166.37771 1623.5573 6.7 71.3)"><stop stop-color="#D9F1EA"/><stop offset=".4" stop-color="#FCFDFD"/><stop offset="1" stop-color="#D9F1EA"/></radialGradient><filter id="s" x="73.3" y="34" width="68" height="24.9" filterUnits="userSpaceOnUse" color-interpolation-filters="sRGB"><feFlood flood-opacity="0" result="BackgroundImageFix"/><feColorMatrix in="SourceAlpha" values="0 0 0 0 0 0 0 0 0 0 0 0 0 0 0 0 0 0 127 0" result="hardAlpha"/><feOffset dx="-.4" dy=".4"/><feComposite in2="hardAlpha" operator="out"/><feColorMatrix values="0 0 0 0 0.298194 0 0 0 0 0.633333 0 0 0 0 0.613225 0 0 0 0.5 0"/><feBlend in2="BackgroundImageFix" result="effect1_dropShadow_730_9914"/><feBlend in="SourceGraphic" in2="effect1_dropShadow_730_9914" result="shape"/></filter></defs></svg>