<svg width="215" height="86" fill="none" xmlns="http://www.w3.org/2000/svg"><path d="m9.2 15 125.7-5.4 73.5 5.4 2.3 39.8-3.7 23.4-151.3 3.4-48.8-4.8-3-32L9.2 15Z" fill="url(#a)"/><path d="m3.8 45 5.3-30 5.5 3.8-2.3 54-5.4 4L4 45Z" fill="url(#b)"/><path d="m134 15 .9-5.4 73.5 5.4-5.4 4.3-37.7.6-31.3-5Z" fill="url(#c)"/><path d="m14.5 19.4-5.4-4.5 126.5-5.4-1.4 5.5L28.6 19l-14 .3Z" fill="url(#d)"/><path d="m207 78.2-9-7.1 5-51.9 5.4-4.2 2.4 40-3.7 23.2Z" fill="url(#e)"/><path d="m14.2 19 119.3-4.5 69.7 4.6 2.1 34.5-3.7 20.3-143.2 2.9L12 72.6 9.2 45l5-26Z" fill="url(#f)"/><path d="m134.8 16.2-106 2.3 106-4 68.4 4.5-68.4-2.8Z" fill="#EEFFF4"/><path d="m12 72.7-2.8-28 5 25.4 44 6.8-46.1-4.2Z" fill="#5FA99C"/><path d="m206.2 77.5.5.4.4.3-12.8.3 11.9-1Z" fill="#24AEC0"/><path d="m207.5 15.6-8.8-1.4 9.7.7-.9.7Z" fill="#EEFFF4"/><path d="m168 12 40.4 3 .6 9.2v4l-27.3-4-16-5.7L168 12Z" fill="url(#g)" style="mix-blend-mode:screen"/><path d="m195.2 24 4.6 3.8.9 3.4-3 3.9-6.5-3.2-1.3-4.7 5.3-3.2Z" fill="url(#h)" style="mix-blend-mode:screen"/><path d="m189.8 36.7-2.2 4-2.4 1.2-3.2-1.6 1.5-5.3 3.3-1.7 3 3.4Z" fill="url(#i)" style="mix-blend-mode:screen"/><path d="m175.5 26.7 4.2-.6 4.2-.7 1 5.3-3 1-5.5.4-1-5.4Z" fill="url(#j)" style="mix-blend-mode:screen"/><path d="m14.6 19.4-1.4 7 5.4-5 83-2 22.3 4.5 78.7 8.9-.9-12.6-68.8-5.3-118.3 4.5Z" fill="url(#k)" style="mix-blend-mode:screen"/><path d="m13.8 60 1.8 9.5 42.4 7 143.1-3.8 2-12.7-26.2 7.5-70.5-4L32 55l-18.2 5Z" fill="url(#l)" style="mix-blend-mode:multiply"/><path d="M16.4 77.7 7 76.8l-.4-4.6 1.3-10.4 8.6-4.5 14.1 12-14 8.4Z" fill="url(#m)" style="mix-blend-mode:multiply"/><path transform="rotate(-110.2 27.6 73)" fill="url(#n)" style="mix-blend-mode:multiply" d="M27.6 73h5.8v5.8h-5.8z"/><path transform="rotate(-54.1 12 47.1)" fill="url(#o)" style="mix-blend-mode:multiply" d="M12 47.1h4.6v4.3H12z"/><path transform="rotate(-99.1 17.3 54.7)" fill="url(#p)" style="mix-blend-mode:multiply" d="M17.3 54.7h2.5v2.2h-2.5z"/><path d="m30.4 74.7 2.7-4 4.4-2 1.5 4-1 3.3-5 2.2-2.6-3.5Z" fill="url(#q)" style="mix-blend-mode:multiply"/><path d="M14.4 51.4 4.2 48.8 3.8 45l.9-4.9 10.4.4-.7 10.9Z" fill="url(#r)" style="mix-blend-mode:multiply"/><g filter="url(#s)"><path d="M70.4 37.4H74V40h2.4v-5.2h-5.6c-1.4 0-2 .4-2.4 1-.3.7-.3 1.6-.3 2.7v20.9h2.4l3.7-3.6v3.6h2.4v-13h-4.2V49H74v3.6l-3.7 3.7v-19Zm21.8 2.1c0-3.4-1.6-4.8-4.2-4.8-1.1 0-2.1.4-3 1.1-.8.8-1.3 2-1.3 3.7V55c0 1.7.5 3 1.3 3.7.9.7 1.9 1 3 1 2.6 0 4.2-1.3 4.2-4.7V39.5Zm-2.7 0V55c0 1.7-.5 2.2-1.5 2.2s-1.6-.6-1.6-2.3V39.5c0-1.7.6-2.3 1.6-2.3s1.5.5 1.5 2.2Zm9.2-4.6v2.5h3v22h2.6v-22h2.7v-2.5h-8.3Zm28.3-5.3-2 2 2 2 2-2-2-2Zm1.3 5.3h-2.6v24.6h2.6V34.9Zm7.3 0v2.5h3v22h2.6v-22h2.7v-2.5h-8.3Zm15.7 18.8h2.7v-20h-2.7v20Zm1.3 5.6 2-2-2-2-2 2 2 2Z" fill="#00264A"/></g><defs><linearGradient id="a" x1="9.2" y1="87.7" x2="205.6" y2="75.4" gradientUnits="userSpaceOnUse"><stop stop-color="#4B8693"/><stop offset="1" stop-color="#72BCAA"/></linearGradient><linearGradient id="b" x1="1.5" y1="1.2" x2="3.8" y2="96" gradientUnits="userSpaceOnUse"><stop stop-color="#71D9C1"/><stop offset=".3" stop-color="#68B7A8"/><stop offset="1" stop-color="#47A7C1"/></linearGradient><linearGradient id="d" x1="11.6" y1="19.4" x2="142.9" y2="12.2" gradientUnits="userSpaceOnUse"><stop stop-color="#6CD6BC"/><stop offset="1" stop-color="#8FEBE5"/></linearGradient><linearGradient id="e" x1="204.4" y1="21.4" x2="204.4" y2="78.2" gradientUnits="userSpaceOnUse"><stop stop-color="#B8FCEB"/><stop offset="1" stop-color="#82E4CD"/></linearGradient><linearGradient id="g" x1="198.3" y1="17.5" x2="141.9" y2="32.2" gradientUnits="userSpaceOnUse"><stop stop-color="#A5C083"/><stop offset="1" stop-color="#728D4E" stop-opacity="0"/></linearGradient><linearGradient id="h" x1="198.1" y1="30.8" x2="184.6" y2="20.8" gradientUnits="userSpaceOnUse"><stop stop-color="#A5C083"/><stop offset="1" stop-color="#728D4E" stop-opacity="0"/></linearGradient><linearGradient id="i" x1="185.2" y1="39.9" x2="190.6" y2="28.3" gradientUnits="userSpaceOnUse"><stop stop-color="#A5C083"/><stop offset="1" stop-color="#728D4E" stop-opacity="0"/></linearGradient><linearGradient id="j" x1="181.6" y1="27.7" x2="171.1" y2="34.9" gradientUnits="userSpaceOnUse"><stop stop-color="#A5C083"/><stop offset="1" stop-color="#728D4E" stop-opacity="0"/></linearGradient><linearGradient id="k" x1="182.9" y1="14.9" x2="82.9" y2="23.8" gradientUnits="userSpaceOnUse"><stop stop-color="#5CE8BE"/><stop offset="1" stop-color="#056649"/></linearGradient><linearGradient id="m" x1="12.4" y1="81.6" x2="30.1" y2="61.7" gradientUnits="userSpaceOnUse"><stop stop-color="#B1EAEE"/><stop offset="1" stop-color="#79C4C9" stop-opacity="0"/></linearGradient><linearGradient id="n" x1="29.6" y1="72.8" x2="28.6" y2="79.9" gradientUnits="userSpaceOnUse"><stop stop-color="#B1EAEE"/><stop offset="1" stop-color="#79C4C9" stop-opacity="0"/></linearGradient><linearGradient id="o" x1="13.6" y1="47" x2="13" y2="52.2" gradientUnits="userSpaceOnUse"><stop stop-color="#B1EAEE"/><stop offset="1" stop-color="#79C4C9" stop-opacity="0"/></linearGradient><linearGradient id="p" x1="18.2" y1="54.7" x2="17.8" y2="57.4" gradientUnits="userSpaceOnUse"><stop stop-color="#B1EAEE"/><stop offset="1" stop-color="#79C4C9" stop-opacity="0"/></linearGradient><linearGradient id="q" x1="31.7" y1="71.5" x2="36.8" y2="78.9" gradientUnits="userSpaceOnUse"><stop stop-color="#B1EAEE"/><stop offset="1" stop-color="#79C4C9" stop-opacity="0"/></linearGradient><linearGradient id="r" x1="10.6" y1="51.6" x2="13.2" y2="38.3" gradientUnits="userSpaceOnUse"><stop stop-color="#B1EAEE"/><stop offset="1" stop-color="#79C4C9" stop-opacity="0"/></linearGradient><radialGradient id="c" cx="0" cy="0" r="1" gradientUnits="userSpaceOnUse" gradientTransform="matrix(93.04461 5.15667 -37.169 670.66081 164.2 14.8)"><stop stop-color="#8FEBE5"/><stop offset="1" stop-color="#6CD6BC"/></radialGradient><radialGradient id="f" cx="0" cy="0" r="1" gradientUnits="userSpaceOnUse" gradientTransform="matrix(-143.05764 50.0252 -157.44413 -450.24473 148.1 29)"><stop stop-color="#ECFFFD"/><stop offset="1" stop-color="#D9FFF6"/></radialGradient><radialGradient id="l" cx="0" cy="0" r="1" gradientUnits="userSpaceOnUse" gradientTransform="matrix(188.95642 -19.36374 166.37771 1623.5573 6.6 71.7)"><stop stop-color="#D9F1EA"/><stop offset=".4" stop-color="#FCFDFD"/><stop offset="1" stop-color="#D9F1EA"/></radialGradient><filter id="s" x="67.6" y="29.6" width="87.1" height="30.5" filterUnits="userSpaceOnUse" color-interpolation-filters="sRGB"><feFlood flood-opacity="0" result="BackgroundImageFix"/><feColorMatrix in="SourceAlpha" values="0 0 0 0 0 0 0 0 0 0 0 0 0 0 0 0 0 0 127 0" result="hardAlpha"/><feOffset dx="-.4" dy=".4"/><feComposite in2="hardAlpha" operator="out"/><feColorMatrix values="0 0 0 0 0.298194 0 0 0 0 0.633333 0 0 0 0 0.613225 0 0 0 0.5 0"/><feBlend in2="BackgroundImageFix" result="effect1_dropShadow_733_11248"/><feBlend in="SourceGraphic" in2="effect1_dropShadow_733_11248" result="shape"/></filter></defs></svg>