<svg width="214" height="86" fill="none" xmlns="http://www.w3.org/2000/svg"><path d="M9.3 15.3 135 10l73.4 5.3 2.3 39.9-3.6 23.4L55.7 82 7 77.2l-3-32 5.4-29.9Z" fill="url(#a)"/><path d="m3.9 45.4 5.3-30 5.5 3.8-2.3 54-5.5 4-3-31.8Z" fill="url(#b)"/><path d="m134 15.3 1-5.3 73.4 5.3-5.3 4.4-37.8.6-31.2-5Z" fill="url(#c)"/><path d="m14.6 19.8-5.4-4.5L135.6 10l-1.4 5.5-105.5 4.1-14.1.3Z" fill="url(#d)"/><path d="m207.1 78.6-9-7.1 5-51.9 5.3-4.2 2.4 40-3.7 23.2Z" fill="url(#e)"/><path d="m14.3 19.5 119.3-4.6 69.6 4.6 2.2 34.4-3.8 20.4-143.2 2.9L12.1 73 9.3 45.4l5-26Z" fill="url(#f)"/><path d="m134.8 16.6-106 2.3 106-4 68.4 4.5-68.3-2.8Z" fill="#EEFFF4"/><path d="M12.1 73 9.3 45.3l5 25.3 44 6.8L12.1 73Z" fill="#5FA99C"/><path d="m206.2 77.9.5.4.4.3-12.8.3 12-1Z" fill="#24AEC0"/><path d="m207.6 16-8.8-1.4 9.7.7-1 .7Z" fill="#EEFFF4"/><path d="m168 12.4 40.4 3 .7 9.2v4l-27.4-4-16-5.7 2.3-6.5Z" fill="url(#g)" style="mix-blend-mode:screen"/><path d="m195.2 24.4 4.6 3.8 1 3.4-3 3.9-6.5-3.2-1.4-4.7 5.3-3.2Z" fill="url(#h)" style="mix-blend-mode:screen"/><path d="m189.9 37.1-2.2 4-2.4 1.2-3.3-1.6 1.5-5.3 3.3-1.7 3 3.4Z" fill="url(#i)" style="mix-blend-mode:screen"/><path d="m175.5 27.1 4.3-.6 4.2-.7.9 5.3-2.9 1-5.6.4-.9-5.4Z" fill="url(#j)" style="mix-blend-mode:screen"/><path d="m14.7 19.8-1.4 7 5.3-5 83-2 22.3 4.5 78.8 8.9-1-12.6-68.8-5.3-118.2 4.5Z" fill="url(#k)" style="mix-blend-mode:screen"/><path d="m13.8 60.4 1.8 9.5 42.5 7 143-3.8 2-12.7-26.2 7.5-70.4-4L32 55.4l-18.2 5Z" fill="url(#l)" style="mix-blend-mode:multiply"/><path d="m16.5 78.1-9.6-.9-.4-4.6L8 62.2l8.6-4.5 14 12-14 8.4Z" fill="url(#m)" style="mix-blend-mode:multiply"/><path transform="rotate(-110.2 27.6 73.4)" fill="url(#n)" style="mix-blend-mode:multiply" d="M27.6 73.4h5.8v5.8h-5.8z"/><path transform="rotate(-54.1 12 47.5)" fill="url(#o)" style="mix-blend-mode:multiply" d="M12 47.5h4.7v4.3h-4.6z"/><path transform="rotate(-99.1 17.3 55.1)" fill="url(#p)" style="mix-blend-mode:multiply" d="M17.3 55.1h2.5v2.3h-2.5z"/><path d="m30.4 75.2 2.7-4.2 4.5-2 1.5 4-1 3.4-5 2.2-2.7-3.4Z" fill="url(#q)" style="mix-blend-mode:multiply"/><path d="M14.5 51.8 4.3 49.2l-.4-3.8.8-4.9 10.4.4-.6 10.9Z" fill="url(#r)" style="mix-blend-mode:multiply"/><g filter="url(#s)"><path d="M97.8 34.6c-1.4 0-2.5.5-3.2 1.2-.7.8-1 1.7-1 2.4v6.4l5.7 5.4v5.4c0 1-.8 1.7-1.6 1.7-.6 0-1.5-.7-1.5-1.7v-5.9h-2.6v6.3a4 4 0 0 0 4.1 3.9c1.4 0 2.4-.6 3-1.4a4 4 0 0 0 1.1-2.5v-7.1l-5.6-5.5v-4.7c0-1 .7-1.6 1.6-1.6.9 0 1.5.6 1.5 1.6v4.7h2.5v-5a3.7 3.7 0 0 0-.8-2.4c-.6-.6-1.7-1.2-3.2-1.2Zm10.1.3v2.5h3v22h2.6v-22h2.8v-2.5h-8.4Zm20.8 19.5.6 5h2.6l-2.8-22h1.8v-2.5h-8.5v2.5h1.8l-2.7 22h2.5l.6-5 2 2 2-2Zm-3.7-2.9 1.7-13.5 1.6 13.5-1.6 1.6-1.7-1.6Zm19.5-.7v8.7h2.6v-9.6l-2.6-2.7 2.6-2.6v-5.3c0-1.8-.5-2.9-1.3-3.5a4.7 4.7 0 0 0-3-.8h-4.2v24.5h2.5v-9l1.6-1.5 1.8 1.9Zm-3.4-3.6v-9.8h1.7c.5 0 1 0 1.3.4.3.3.5.9.5 1.9v4l-3.5 3.4Zm12-12.3v2.5h3.1v22h2.6v-22h2.7v-2.5h-8.3Z" fill="#00264A"/></g><path d="m57.8 40.4 4.8 1.5 2.4 4.4-1.5 4.8-4.4 2.4-4.8-1.5-2.4-4.4 1.5-4.8 4.4-2.4Z" fill="url(#t)"/><path d="m57.8 40.4 4.8 1.5 2.4 4.4-1.5 4.8-4.4 2.4-4.8-1.5-2.4-4.4 1.5-4.8 4.4-2.4Z" fill="url(#u)" fill-opacity=".2"/><path fill-rule="evenodd" clip-rule="evenodd" d="m63.6 30-12.8 1.3-3 5-10.4 1 2.4 25 40.2-4-2.4-25-10.1 1-3.9-4.3Zm-6 7.7 7 2.1 3.3 6.3-2.1 6.8-6.3 3.3-6.9-2-3.3-6.3 2-6.8 6.4-3.4Zm13 .5-1-1-1.4.2-.5 1.3 1 1.1 1.4-.3.5-1.3Z" fill="url(#v)"/><path d="m37 60.5.4-23 2.4 24.7 39.9-3.9-37.9 5.9-4.7-3.7Z" fill="#560019"/><path d="m41.9 53.3-4.4-13.7 1.9 19.2.3 3.5 40-4-32.7 1-5.1-6Z" fill="#B50E3F"/><path d="m62.5 31.4-11.1 1 15.2 2.3-4.1-3.3Z" fill="#FFE9F4"/><path d="m76.2 35.4-5.8.6 4.6 2.4 2.6 11.9-1.4-14.9Z" fill="#FFFCFE"/><defs><linearGradient id="a" x1="9.2" y1="88.1" x2="205.7" y2="75.8" gradientUnits="userSpaceOnUse"><stop stop-color="#4B8693"/><stop offset="1" stop-color="#72BCAA"/></linearGradient><linearGradient id="b" x1="1.6" y1="1.6" x2="3.9" y2="96.4" gradientUnits="userSpaceOnUse"><stop stop-color="#71D9C1"/><stop offset=".3" stop-color="#68B7A8"/><stop offset="1" stop-color="#47A7C1"/></linearGradient><linearGradient id="d" x1="11.6" y1="19.8" x2="142.9" y2="12.6" gradientUnits="userSpaceOnUse"><stop stop-color="#6CD6BC"/><stop offset="1" stop-color="#8FEBE5"/></linearGradient><linearGradient id="e" x1="204.4" y1="21.8" x2="204.4" y2="78.6" gradientUnits="userSpaceOnUse"><stop stop-color="#B8FCEB"/><stop offset="1" stop-color="#82E4CD"/></linearGradient><linearGradient id="g" x1="198.4" y1="17.9" x2="141.9" y2="32.6" gradientUnits="userSpaceOnUse"><stop stop-color="#A5C083"/><stop offset="1" stop-color="#728D4E" stop-opacity="0"/></linearGradient><linearGradient id="h" x1="198.1" y1="31.2" x2="184.7" y2="21.2" gradientUnits="userSpaceOnUse"><stop stop-color="#A5C083"/><stop offset="1" stop-color="#728D4E" stop-opacity="0"/></linearGradient><linearGradient id="i" x1="185.3" y1="40.3" x2="190.7" y2="28.7" gradientUnits="userSpaceOnUse"><stop stop-color="#A5C083"/><stop offset="1" stop-color="#728D4E" stop-opacity="0"/></linearGradient><linearGradient id="j" x1="181.6" y1="28.1" x2="171.2" y2="35.3" gradientUnits="userSpaceOnUse"><stop stop-color="#A5C083"/><stop offset="1" stop-color="#728D4E" stop-opacity="0"/></linearGradient><linearGradient id="k" x1="183" y1="15.3" x2="83" y2="24.2" gradientUnits="userSpaceOnUse"><stop stop-color="#5CE8BE"/><stop offset="1" stop-color="#056649"/></linearGradient><linearGradient id="m" x1="12.5" y1="82" x2="30.2" y2="62.1" gradientUnits="userSpaceOnUse"><stop stop-color="#B1EAEE"/><stop offset="1" stop-color="#79C4C9" stop-opacity="0"/></linearGradient><linearGradient id="n" x1="29.6" y1="73.2" x2="28.7" y2="80.3" gradientUnits="userSpaceOnUse"><stop stop-color="#B1EAEE"/><stop offset="1" stop-color="#79C4C9" stop-opacity="0"/></linearGradient><linearGradient id="o" x1="13.7" y1="47.4" x2="13" y2="52.6" gradientUnits="userSpaceOnUse"><stop stop-color="#B1EAEE"/><stop offset="1" stop-color="#79C4C9" stop-opacity="0"/></linearGradient><linearGradient id="p" x1="18.2" y1="55.1" x2="17.9" y2="57.8" gradientUnits="userSpaceOnUse"><stop stop-color="#B1EAEE"/><stop offset="1" stop-color="#79C4C9" stop-opacity="0"/></linearGradient><linearGradient id="q" x1="31.7" y1="71.8" x2="36.9" y2="79.3" gradientUnits="userSpaceOnUse"><stop stop-color="#B1EAEE"/><stop offset="1" stop-color="#79C4C9" stop-opacity="0"/></linearGradient><linearGradient id="r" x1="10.7" y1="52" x2="13.2" y2="38.7" gradientUnits="userSpaceOnUse"><stop stop-color="#B1EAEE"/><stop offset="1" stop-color="#79C4C9" stop-opacity="0"/></linearGradient><linearGradient id="t" x1="56.4" y1="51.7" x2="61.1" y2="44.5" gradientUnits="userSpaceOnUse"><stop stop-color="#A9525C"/><stop offset="1" stop-color="#FFC6E5"/></linearGradient><linearGradient id="v" x1="37.8" y1="62.5" x2="75.2" y2="35.9" gradientUnits="userSpaceOnUse"><stop stop-color="#E23865"/><stop offset="1" stop-color="#FFDBE8"/></linearGradient><radialGradient id="c" cx="0" cy="0" r="1" gradientUnits="userSpaceOnUse" gradientTransform="matrix(93.04461 5.15667 -37.169 670.66081 164.3 15.2)"><stop stop-color="#8FEBE5"/><stop offset="1" stop-color="#6CD6BC"/></radialGradient><radialGradient id="f" cx="0" cy="0" r="1" gradientUnits="userSpaceOnUse" gradientTransform="matrix(-143.05764 50.0252 -157.44413 -450.24473 148.2 29.4)"><stop stop-color="#ECFFFD"/><stop offset="1" stop-color="#D9FFF6"/></radialGradient><radialGradient id="l" cx="0" cy="0" r="1" gradientUnits="userSpaceOnUse" gradientTransform="matrix(188.95642 -19.36374 166.37771 1623.5573 6.7 72.1)"><stop stop-color="#D9F1EA"/><stop offset=".4" stop-color="#FCFDFD"/><stop offset="1" stop-color="#D9F1EA"/></radialGradient><radialGradient id="u" cx="0" cy="0" r="1" gradientUnits="userSpaceOnUse" gradientTransform="rotate(-35.6 108.2 -56.9) scale(11.7669)"><stop stop-color="#003471"/><stop offset="1" stop-opacity="0"/><stop offset="1" stop-color="#45D2FF" stop-opacity="0"/></radialGradient><filter id="s" x="93.2" y="34.6" width="68.3" height="25.4" filterUnits="userSpaceOnUse" color-interpolation-filters="sRGB"><feFlood flood-opacity="0" result="BackgroundImageFix"/><feColorMatrix in="SourceAlpha" values="0 0 0 0 0 0 0 0 0 0 0 0 0 0 0 0 0 0 127 0" result="hardAlpha"/><feOffset dx="-.4" dy=".4"/><feComposite in2="hardAlpha" operator="out"/><feColorMatrix values="0 0 0 0 0.298194 0 0 0 0 0.633333 0 0 0 0 0.613225 0 0 0 0.5 0"/><feBlend in2="BackgroundImageFix" result="effect1_dropShadow_730_11051"/><feBlend in="SourceGraphic" in2="effect1_dropShadow_730_11051" result="shape"/></filter></defs></svg>