<svg width="426" height="195" viewBox="0 0 426 195" fill="none" xmlns="http://www.w3.org/2000/svg">
<g filter="url(#filter0_dd_502_8685)">
<path d="M114.601 56.5789C116.449 56.5789 118.758 56.5789 118.758 60.644V80.7849H135.111V68.6819H131.046V64.6168H139.084V112.751C139.084 116.077 136.867 116.262 134.649 116.262V117.094H159.132V116.262C157.192 116.262 155.437 116.077 155.437 112.751V64.6168H163.567V68.7743H159.502V80.7849H175.3V59.5354C175.762 56.5789 177.703 56.5789 179.366 56.5789V52.329H114.601V56.5789ZM179.746 111.735C179.746 114.692 181.871 117.094 184.55 117.094H215.316C217.995 117.094 220.12 114.692 220.12 111.735V61.106C220.12 61.106 220.12 56.7637 215.316 56.7637H208.941V52.329H184.55C181.871 52.329 179.746 54.7311 179.746 57.78V111.735ZM193.881 68.5895V64.5244H201.919V100.833H205.984V104.898H197.854V68.5895H193.881ZM220.531 117.094H240.671V68.5895H236.606V64.5244H244.737V117.094H265.155V116.447C263.03 116.447 260.72 116.447 260.72 112.474V56.4865C260.72 56.4865 260.72 52.329 256.47 52.329H220.531V56.3017C222.101 56.3017 224.319 56.3017 224.319 59.9049V113.029C224.319 116.447 221.639 116.447 220.531 116.447V117.094ZM265.556 117.094H285.604C301.772 117.094 305.283 125.224 305.283 125.224H306.299V96.8605H290.131V109.148H286.159V92.8878H306.299V76.6273H286.159V64.6168H282.094V60.5516H290.131V72.5622H306.299V60.5516C306.299 56.4865 308.609 56.4865 310.365 56.4865V52.329H265.556V56.4865C267.311 56.4865 269.621 56.4865 269.621 60.5516V112.751C269.621 116.355 266.942 116.355 265.556 116.355V117.094Z" fill="url(#paint0_linear_502_8685)"/>
<path d="M51.4449 142.229H113.013V141.333C111.221 141.333 107.381 141.205 107.381 136.469V97.4285C107.381 97.4285 79.7329 96.4045 79.7329 74.7725V69.2685H74.1009V63.6365H85.3649V74.9005C85.3649 91.6685 107.381 91.6685 107.381 91.6685V64.0205C107.381 58.3885 110.581 58.3885 113.013 58.3885V52.5005H51.4449V58.3885C54.0049 58.3885 57.2049 58.3885 57.2049 64.0205V97.4285C57.2049 97.4285 84.9809 97.4285 84.9809 119.701V124.949H90.6129V130.581H79.4769V119.701C79.4769 119.701 79.0929 102.933 57.2049 102.933V136.213C57.2049 141.333 53.3649 141.333 51.4449 141.333V142.229Z" fill="url(#paint1_linear_502_8685)"/>
<path d="M312.308 141.832H373.876V140.936C372.084 140.936 368.244 140.808 368.244 136.072V97.032C368.244 97.032 340.596 96.008 340.596 74.376V68.872H334.964V63.24H346.228V74.504C346.228 91.272 368.244 91.272 368.244 91.272V63.624C368.244 57.992 371.444 57.992 373.876 57.992V52.104H312.308V57.992C314.868 57.992 318.068 57.992 318.068 63.624V97.032C318.068 97.032 345.844 97.032 345.844 119.304V124.552H351.476V130.184H340.34V119.304C340.34 119.304 339.956 102.536 318.068 102.536V135.816C318.068 140.936 314.228 140.936 312.308 140.936V141.832Z" fill="url(#paint2_linear_502_8685)"/>
<path d="M124.628 132.359V142.229H125.202C125.454 142.229 125.706 142.229 125.958 142.229V131.029H123.872L124.278 131.729L124.628 132.359ZM135.207 131.645L135.613 132.359V142.229H136.313H136.943V135.439L142.221 142.481V131.029H140.135L140.443 131.533L140.891 132.359V138.505L136.943 133.227V131.029H134.857L135.207 131.645ZM162.809 131.001L163.257 131.799L163.565 132.331H166.421V142.229H167.751V132.331H170.593L170.957 131.715L171.363 131.001H162.809ZM180.941 133.507V132.359L181.389 131.589H181.375L181.697 131.029H178.855L179.037 131.365V131.351L179.611 132.359V142.243H180.241H180.941V134.823H184.903V142.243H185.603H186.219V133.507H180.941ZM199.541 132.373L199.821 131.869H199.835L200.297 131.043H194.403V142.243H200.815L200.535 141.753L200.353 141.417L200.339 141.431L200.045 140.913H195.719V136.251H197.301L197.791 135.383C197.791 135.397 197.805 135.397 197.805 135.383H197.791L198.071 134.921H195.719V132.373H199.541ZM227.745 135.845L231.091 131.057H221.319L229.075 140.913H223.279L224.805 138.771V138.757L224.847 138.715H225.491H225.659H225.925H226.597L224.749 136.559L220.703 142.229H231.805L224.049 132.373H225.169H228.375L227.591 133.367H226.779H226.667H225.617L227.745 135.845ZM245.914 142.229H240.454H245.914ZM240.482 142.229H245.872L245.102 140.913H243.968L246.95 134.375L249.918 140.913H248.728L247.958 142.243H252.998L252.242 140.913H251.024L254.944 131.057H252.228L252.998 132.387L250.422 138.841L247.496 132.387H249.064L249.834 131.057H244.024L244.794 132.387H246.39L243.45 138.869L242.274 136.055L240.86 132.387H240.874L241.63 131.057H238.942L241.042 136.545L242.862 140.913H241.252L240.51 142.229H240.482ZM270.604 142.089L270.338 141.613H270.324L269.932 140.913H267.146L269.806 136.251L267.188 132.359H269.722L270.044 131.799L270.058 131.785L270.478 131.029H262.288L262.778 131.869L263.058 132.359H265.662L263.338 136.251L265.69 140.913H262.848L262.442 141.613L262.162 142.103L262.092 142.229H266.362L266.376 142.257L266.39 142.229H270.688L270.604 142.089ZM266.446 133.633L268.238 136.307L266.446 139.457L264.85 136.307L266.446 133.633ZM283.652 142.229H286.718L283.512 136.643L284.842 134.347V131.043H278.178L278.472 131.575L278.934 132.373V142.271H279.466H279.564H280.264V137.301H282.364L284.422 140.913L284.156 141.375L283.736 142.089L283.652 142.229ZM280.264 132.373H283.512V133.997L282.364 135.985H280.264V132.373ZM293.869 131.043L293.939 131.197L294.345 131.869C294.331 131.869 294.331 131.869 294.345 131.869V131.883L294.625 132.373H301.037V140.913H297.089V132.765L296.599 133.059V133.045L295.885 133.465L295.759 133.535V142.243H302.367V131.043H293.869Z" fill="url(#paint3_linear_502_8685)"/>
</g>
<defs>
<filter id="filter0_dd_502_8685" x="0.0347517" y="0.692955" width="425.457" height="193.404" filterUnits="userSpaceOnUse" color-interpolation-filters="sRGB">
<feFlood flood-opacity="0" result="BackgroundImageFix"/>
<feColorMatrix in="SourceAlpha" type="matrix" values="0 0 0 0 0 0 0 0 0 0 0 0 0 0 0 0 0 0 127 0" result="hardAlpha"/>
<feOffset dx="0.103027" dy="0.103027"/>
<feGaussianBlur stdDeviation="25.7568"/>
<feComposite in2="hardAlpha" operator="out"/>
<feColorMatrix type="matrix" values="0 0 0 0 1 0 0 0 0 1 0 0 0 0 1 0 0 0 0.5 0"/>
<feBlend mode="normal" in2="BackgroundImageFix" result="effect1_dropShadow_502_8685"/>
<feColorMatrix in="SourceAlpha" type="matrix" values="0 0 0 0 0 0 0 0 0 0 0 0 0 0 0 0 0 0 127 0" result="hardAlpha"/>
<feOffset dy="4.12109"/>
<feGaussianBlur stdDeviation="2.06054"/>
<feComposite in2="hardAlpha" operator="out"/>
<feColorMatrix type="matrix" values="0 0 0 0 0 0 0 0 0 0 0 0 0 0 0 0 0 0 0.25 0"/>
<feBlend mode="normal" in2="effect1_dropShadow_502_8685" result="effect2_dropShadow_502_8685"/>
<feBlend mode="normal" in="SourceGraphic" in2="effect2_dropShadow_502_8685" result="shape"/>
</filter>
<linearGradient id="paint0_linear_502_8685" x1="212.194" y1="37.7686" x2="213.468" y2="133.639" gradientUnits="userSpaceOnUse">
<stop offset="0.104167" stop-color="#FFC8F7"/>
<stop offset="1" stop-color="#88FFF8"/>
</linearGradient>
<linearGradient id="paint1_linear_502_8685" x1="75.4437" y1="34.7929" x2="95.6624" y2="222.957" gradientUnits="userSpaceOnUse">
<stop offset="0.104167" stop-color="#FFC8F7"/>
<stop offset="1" stop-color="#88FFF8"/>
</linearGradient>
<linearGradient id="paint2_linear_502_8685" x1="338.682" y1="31.878" x2="360.691" y2="236.707" gradientUnits="userSpaceOnUse">
<stop offset="0.104167" stop-color="#FFC8F7"/>
<stop offset="1" stop-color="#88FFF8"/>
</linearGradient>
<linearGradient id="paint3_linear_502_8685" x1="213.021" y1="91.8839" x2="215.882" y2="228.003" gradientUnits="userSpaceOnUse">
<stop offset="0.104167" stop-color="#FFC8F7"/>
<stop offset="1" stop-color="#88FFF8"/>
</linearGradient>
</defs>
</svg>
