<svg width="166" height="86" fill="none" xmlns="http://www.w3.org/2000/svg"><path d="m7.071 15.485 97.27-5.314 56.811 5.314 1.776 39.83-2.803 23.43-117.08 3.408-37.75-4.83L2.96 45.41l4.111-29.926Z" fill="url(#a)"/><path d="M2.929 45.51 7.03 15.47l4.25 3.823-1.79 53.976-4.193 4.045L2.929 45.51Z" fill="url(#b)"/><path d="m103.647 15.438.647-5.302 56.865 5.35-4.12 4.321-29.231.643-24.161-5.012Z" fill="url(#c)"/><path d="M11.194 19.887 7.03 15.47l97.811-5.43-1.094 5.45-81.654 4.14-10.9.258Z" fill="url(#d)"/><path d="m160.146 78.763-6.985-7.165 3.878-51.855 4.117-4.253 1.848 40.044-2.858 23.23Z" fill="url(#e)"/><path d="m10.972 19.603 92.271-4.601 53.89 4.6 1.684 34.484-2.908 20.356-110.812 2.88L9.288 73.14 7.072 45.51l3.9-25.908Z" fill="url(#f)"/><path d="m104.243 16.723-82.026 2.281 82.026-3.952 52.895 4.498-52.895-2.827Z" fill="#EEFFF4"/><path d="M9.292 73.205 7.104 45.317l3.828 25.318 34.104 6.747-35.744-4.177Z" fill="#5FA99C"/><path d="m159.451 78.04.398.402.298.305-9.893.306 9.197-1.013Z" fill="#24AEC0"/><path d="m160.519 16.177-6.811-1.414 7.507.707-.696.707Z" fill="#EEFFF4"/><path d="m129.859 12.526 31.319 2.924.498 9.253v4.049l-21.178-4.049-12.329-5.654 1.69-6.523Z" fill="url(#g)" style="mix-blend-mode:screen"/><path d="m150.938 24.574 3.579 3.792.696 3.405-2.287 3.856-5.021-3.213-1.032-4.722 4.065-3.118Z" fill="url(#h)" style="mix-blend-mode:screen"/><path d="m146.806 37.225-1.695 3.992-1.861 1.185-2.519-1.588 1.169-5.278 2.572-1.707 2.334 3.396Z" fill="url(#i)" style="mix-blend-mode:screen"/><path d="m135.726 27.274 3.268-.685 3.268-.685.672 5.36-2.187.893-4.349.476-.672-5.36Z" fill="url(#j)" style="mix-blend-mode:screen"/><path d="m11.258 19.927-1.07 7.023 4.116-5.107 64.204-1.916 17.285 4.47 60.912 8.936-.7-12.607-53.256-5.32-91.49 4.521Z" fill="url(#k)" style="mix-blend-mode:screen"/><path d="m10.6 60.566 1.4 9.47 32.843 7.022 110.71-3.83 1.482-12.662-20.249 7.451-54.491-4.042-57.619-8.3-14.075 4.891Z" fill="url(#l)" style="mix-blend-mode:multiply"/><path d="m12.66 78.267-7.367-.936-.342-4.635 1.072-10.403 6.637-4.433 10.913 12.016-10.913 8.39Z" fill="url(#m)" style="mix-blend-mode:multiply"/><path transform="matrix(-.2742 -.96167 .9028 -.43006 21.303 73.51)" fill="url(#n)" style="mix-blend-mode:multiply" d="M0 0h5.622v4.662H0z"/><path transform="matrix(.48829 -.87268 .73052 .6829 9.254 47.653)" fill="url(#o)" style="mix-blend-mode:multiply" d="M0 0h4.306v3.656H0z"/><path transform="matrix(-.1234 -.99236 .9791 -.20342 13.331 55.28)" fill="url(#p)" style="mix-blend-mode:multiply" d="M0 0h2.485v1.735H0z"/><path d="m23.455 75.28 2.078-4.119 3.47-2 1.153 4.056-.795 3.278-3.828 2.248-2.078-3.464Z" fill="url(#q)" style="mix-blend-mode:multiply"/><path d="M11.104 51.935 3.209 49.29l-.283-3.787.66-4.836 8.015.397-.498 10.87Z" fill="url(#r)" style="mix-blend-mode:multiply"/><g filter="url(#s)"><path d="M56.068 50.982v8.604h2.592V50.01l-2.592-2.664 2.592-2.592V39.39c0-1.8-.504-2.844-1.26-3.456-.756-.612-1.836-.828-2.988-.828h-4.248v24.48h2.52v-9l1.584-1.512 1.8 1.908Zm-3.312-3.708v-9.756h1.656c.468 0 .972.072 1.296.36.324.324.54.9.54 1.908v3.996l-3.492 3.492Zm21.138-9.756v-2.412h-7.848v24.48h7.848v-2.448H68.53v-1.98l4.212-4.176-1.728-1.764-2.484 2.448V37.518h5.364Zm10.488-2.772c-1.44 0-2.484.504-3.168 1.224-.72.72-1.008 1.62-1.008 2.34v6.444l5.652 5.364v5.364c0 .972-.756 1.764-1.584 1.764-.612 0-1.512-.72-1.512-1.728v-5.904h-2.556v6.3c0 .864.324 1.836 1.008 2.556.684.756 1.656 1.296 3.06 1.296 1.368 0 2.376-.54 3.096-1.296.684-.756 1.044-1.728 1.044-2.556v-7.092l-5.652-5.508V38.67c0-.972.684-1.62 1.584-1.62s1.512.576 1.512 1.584v4.644h2.556V38.31c0-.72-.252-1.62-.864-2.34-.612-.684-1.62-1.224-3.168-1.224Zm19.246 2.772v-2.412H95.78v24.48h7.848v-2.448h-5.364v-6.516l4.212-4.176-1.728-1.764-2.484 2.448v-9.612h5.364Zm5.231-2.484v2.484h3.024v22.068h2.556V37.518h2.772v-2.484h-8.352Z" fill="#00264A"/></g><defs><linearGradient id="a" x1="7.067" y1="88.254" x2="159.266" y2="80.889" gradientUnits="userSpaceOnUse"><stop stop-color="#4B8693"/><stop offset="1" stop-color="#72BCAA"/></linearGradient><linearGradient id="b" x1="1.139" y1="1.687" x2="4.128" y2="96.493" gradientUnits="userSpaceOnUse"><stop stop-color="#71D9C1"/><stop offset=".326" stop-color="#68B7A8"/><stop offset="1" stop-color="#47A7C1"/></linearGradient><linearGradient id="d" x1="8.895" y1="19.887" x2="110.629" y2="15.604" gradientUnits="userSpaceOnUse"><stop stop-color="#6CD6BC"/><stop offset="1" stop-color="#8FEBE5"/></linearGradient><linearGradient id="e" x1="158.083" y1="21.94" x2="158.083" y2="78.763" gradientUnits="userSpaceOnUse"><stop stop-color="#B8FCEB"/><stop offset="1" stop-color="#82E4CD"/></linearGradient><linearGradient id="g" x1="153.391" y1="18.068" x2="108.579" y2="27.066" gradientUnits="userSpaceOnUse"><stop stop-color="#A5C083"/><stop offset="1" stop-color="#728D4E" stop-opacity="0"/></linearGradient><linearGradient id="h" x1="153.211" y1="31.299" x2="141.063" y2="24.332" gradientUnits="userSpaceOnUse"><stop stop-color="#A5C083"/><stop offset="1" stop-color="#728D4E" stop-opacity="0"/></linearGradient><linearGradient id="i" x1="143.252" y1="40.422" x2="149.483" y2="30.112" gradientUnits="userSpaceOnUse"><stop stop-color="#A5C083"/><stop offset="1" stop-color="#728D4E" stop-opacity="0"/></linearGradient><linearGradient id="j" x1="140.435" y1="28.192" x2="131.137" y2="33.136" gradientUnits="userSpaceOnUse"><stop stop-color="#A5C083"/><stop offset="1" stop-color="#728D4E" stop-opacity="0"/></linearGradient><linearGradient id="k" x1="141.477" y1="15.406" x2="63.855" y2="20.788" gradientUnits="userSpaceOnUse"><stop stop-color="#5CE8BE"/><stop offset="1" stop-color="#056649"/></linearGradient><linearGradient id="m" x1="9.58" y1="82.163" x2="27.211" y2="66.803" gradientUnits="userSpaceOnUse"><stop stop-color="#B1EAEE"/><stop offset="1" stop-color="#79C4C9" stop-opacity="0"/></linearGradient><linearGradient id="n" x1="1.937" y1="-.181" x2="1.305" y2="5.582" gradientUnits="userSpaceOnUse"><stop stop-color="#B1EAEE"/><stop offset="1" stop-color="#79C4C9" stop-opacity="0"/></linearGradient><linearGradient id="o" x1="1.484" y1="-.142" x2=".977" y2="4.374" gradientUnits="userSpaceOnUse"><stop stop-color="#B1EAEE"/><stop offset="1" stop-color="#79C4C9" stop-opacity="0"/></linearGradient><linearGradient id="p" x1=".856" y1="-.068" x2=".657" y2="2.085" gradientUnits="userSpaceOnUse"><stop stop-color="#B1EAEE"/><stop offset="1" stop-color="#79C4C9" stop-opacity="0"/></linearGradient><linearGradient id="q" x1="24.448" y1="71.986" x2="29.924" y2="78.087" gradientUnits="userSpaceOnUse"><stop stop-color="#B1EAEE"/><stop offset="1" stop-color="#79C4C9" stop-opacity="0"/></linearGradient><linearGradient id="r" x1="8.175" y1="52.135" x2="11.396" y2="39.182" gradientUnits="userSpaceOnUse"><stop stop-color="#B1EAEE"/><stop offset="1" stop-color="#79C4C9" stop-opacity="0"/></linearGradient><radialGradient id="c" cx="0" cy="0" r="1" gradientUnits="userSpaceOnUse" gradientTransform="matrix(71.98454 5.15666 -47.94472 669.28592 127.013 15.293)"><stop stop-color="#8FEBE5"/><stop offset="1" stop-color="#6CD6BC"/></radialGradient><radialGradient id="f" cx="0" cy="0" r="1" gradientUnits="userSpaceOnUse" gradientTransform="matrix(-110.67715 50.02614 -189.65023 -419.57954 114.564 29.49)"><stop stop-color="#ECFFFD"/><stop offset="1" stop-color="#D9FFF6"/></radialGradient><radialGradient id="l" cx="0" cy="0" r="1" gradientUnits="userSpaceOnUse" gradientTransform="rotate(-7.545 550.555 -2.426) scale(147.464 1626.4)"><stop stop-color="#D9F1EA"/><stop offset=".434" stop-color="#FCFDFD"/><stop offset="1" stop-color="#D9F1EA"/></radialGradient><filter id="s" x="49.764" y="34.746" width="67.448" height="25.42" filterUnits="userSpaceOnUse" color-interpolation-filters="sRGB"><feFlood flood-opacity="0" result="BackgroundImageFix"/><feColorMatrix in="SourceAlpha" values="0 0 0 0 0 0 0 0 0 0 0 0 0 0 0 0 0 0 127 0" result="hardAlpha"/><feOffset dx="-.4" dy=".4"/><feComposite in2="hardAlpha" operator="out"/><feColorMatrix values="0 0 0 0 0.298194 0 0 0 0 0.633333 0 0 0 0 0.613225 0 0 0 0.5 0"/><feBlend in2="BackgroundImageFix" result="effect1_dropShadow_864_15147"/><feBlend in="SourceGraphic" in2="effect1_dropShadow_864_15147" result="shape"/></filter></defs></svg>