{
	"nodes":[{
		"name":"Circle Gem V2",
		"scale":[1.0,
		1.0,
		1.0],
		"translation":[0.0,
		0.0,
		-123.91215515136719],
		"rotation":[0.0,
		0.0,
		0.0,
		-1.0],
		"mesh":0
	}],
	"scenes":[{
		"nodes":[0]
	}],
	"asset":{
		"version":"2.0",
		"generator":"Created using the official Cinema 4D glTF Exporter 1.000x284978"
	},
	"meshes":[{
		"name":"Circle Gem V2",
		"primitives":[{
			"attributes":{
				"POSITION":1,
				"NORMAL":2,
				"TEXCOORD_0":3
			},
			"indices":0
		}]
	}],
	"accessors":[{
		"bufferView":0,
		"type":"SCALAR",
		"componentType":5123,
		"count":576,
		"byteOffset":0,
		"min":[0],
		"max":[131]
	},
	{
		"bufferView":1,
		"type":"VEC3",
		"componentType":5126,
		"count":132,
		"byteOffset":0,
		"min":[-12.0,
		-25.0,
		-25.0],
		"max":[12.0,
		25.0,
		25.0]
	},
	{
		"bufferView":1,
		"type":"VEC3",
		"componentType":5126,
		"count":132,
		"byteOffset":12,
		"min":[-1.0,
		-0.9972918033599854,
		-0.9972918033599854],
		"max":[1.0,
		0.9972918033599854,
		0.9972918033599854]
	},
	{
		"bufferView":1,
		"type":"VEC2",
		"componentType":5126,
		"count":132,
		"byteOffset":24,
		"min":[0.0,
		0.0],
		"max":[1.0,
		1.0]
	}],
	"bufferViews":[{
		"buffer":0,
		"target":34963,
		"byteOffset":0,
		"byteLength":1152
	},
	{
		"buffer":0,
		"target":34962,
		"byteOffset":1152,
		"byteLength":4224,
		"byteStride":32
	}],
	"buffers":[{
		"uri":"data:application/octet-stream;base64,",
		"byteLength":5376
	}]
}