{
	"nodes":[{
		"name":"Triangle Gem",
		"scale":[1.0,
		1.0,
		1.0],
		"translation":[0.0,
		0.0,
		-308.4352111816406],
		"rotation":[0.0,
		0.0,
		0.0,
		-1.0],
		"mesh":0
	}],
	"scenes":[{
		"nodes":[0]
	}],
	"asset":{
		"version":"2.0",
		"generator":"Created using the official Cinema 4D glTF Exporter 1.000x284978"
	},
	"meshes":[{
		"name":"Triangle Gem",
		"primitives":[{
			"attributes":{
				"POSITION":1,
				"NORMAL":2,
				"TEXCOORD_0":3
			},
			"indices":0
		}]
	}],
	"accessors":[{
		"bufferView":0,
		"type":"SCALAR",
		"componentType":5123,
		"count":72,
		"byteOffset":0,
		"min":[0],
		"max":[43]
	},
	{
		"bufferView":1,
		"type":"VEC3",
		"componentType":5126,
		"count":44,
		"byteOffset":0,
		"min":[-11.925691604614258,
		-13.684080123901368,
		-23.849205017089845],
		"max":[11.925691604614258,
		27.368160247802736,
		23.849205017089845]
	},
	{
		"bufferView":1,
		"type":"VEC3",
		"componentType":5126,
		"count":44,
		"byteOffset":12,
		"min":[-1.0,
		-1.0,
		-0.8646753430366516],
		"max":[1.0,
		0.5023311972618103,
		0.8646753430366516]
	},
	{
		"bufferView":1,
		"type":"VEC2",
		"componentType":5126,
		"count":44,
		"byteOffset":24,
		"min":[0.0,
		0.0],
		"max":[1.0,
		1.0]
	}],
	"bufferViews":[{
		"buffer":0,
		"target":34963,
		"byteOffset":0,
		"byteLength":144
	},
	{
		"buffer":0,
		"target":34962,
		"byteOffset":144,
		"byteLength":1408,
		"byteStride":32
	}],
	"buffers":[{
		"uri":"data:application/octet-stream;base64,",
		"byteLength":1552
	}]
}